<?xml version="1.0" encoding="utf-8"?>
<!-- Generator: Adobe Illustrator 21.1.0, SVG Export Plug-In . SVG Version: 6.00 Build 0)  -->
<svg version="1.1" xmlns="http://www.w3.org/2000/svg" xmlns:xlink="http://www.w3.org/1999/xlink" x="0px" y="0px"
	 viewBox="0 0 100 100" style="enable-background:new 0 0 100 100;" xml:space="preserve">
<style type="text/css">
	.st0{fill:none;stroke:#000000;stroke-width:2;}
	.st1{fill:none;stroke:#000000;stroke-width:2;stroke-linecap:round;}
	.st2{display:none;}
	.st3{display:inline;}
	.st4{fill:none;stroke:#181818;stroke-width:2;}
	.st5{fill:none;stroke:#181818;stroke-width:2;stroke-linecap:round;stroke-linejoin:round;}
	.st6{fill:#181818;}
	.st7{display:inline;fill:none;stroke:#181818;stroke-width:3;}
	.st8{display:inline;fill:none;stroke:#181818;stroke-width:3;stroke-linecap:round;stroke-linejoin:round;}
	.st9{display:inline;fill:none;stroke:#181818;stroke-width:3;stroke-linecap:round;stroke-linejoin:round;stroke-dasharray:19,15;}
	.st10{fill:none;stroke:#181818;stroke-width:3;}
	.st11{fill:none;stroke:#001324;stroke-width:2;}
	.st12{fill:#001324;}
	.st13{fill:none;stroke:#00162A;stroke-width:2;}
	.st14{fill:#FFE449;}
	.st15{filter:url(#Adobe_OpacityMaskFilter);}
	.st16{fill:#FFFFFF;}
	.st17{mask:url(#mask-2_2_);fill:#FFE449;}
	.st18{display:inline;fill:#FFE449;}
</style>
<g id="Layer_6">
	<g>
		<path d="M39.1,54.3h-1.2c-0.1,0-0.2-0.1-0.2-0.2v-1.3c0-0.1,0.1-0.2,0.2-0.2h1.2c0.1,0,0.2,0.1,0.2,0.2v1.3
			C39.2,54.2,39.2,54.3,39.1,54.3z M25.5,62.2c-0.1,0-0.2-0.1-0.2-0.2v-1.3c0-0.1,0.1-0.2,0.2-0.2h1.2c0.1,0,0.2,0.1,0.2,0.2V62
			c0,0.1-0.1,0.2-0.2,0.2H25.5z M24.5,53.2h-1.2c-0.1,0-0.2-0.1-0.2-0.2v-1.3c0-0.1,0.1-0.2,0.2-0.2h1.2c0.1,0,0.2,0.1,0.2,0.2V53
			C24.6,53.1,24.5,53.2,24.5,53.2z M23.1,45.5h-1.2c-0.1,0-0.2-0.1-0.2-0.2V44c0-0.1,0.1-0.2,0.2-0.2h1.2c0.1,0,0.2,0.1,0.2,0.2v1.3
			C23.3,45.4,23.2,45.5,23.1,45.5z M40.5,52.9c0-0.8-0.6-1.5-1.4-1.5h-1.2c-0.8,0-1.4,0.6-1.4,1.5h-1.6c-1.5,0-2.7,1.3-2.7,2.9v0.1
			h0h-2c-0.6,0-1.1-0.5-1.1-1.2v-2.1v-5.5c0-1.6-1.2-2.9-2.7-2.9h-1.7V44c0-0.8-0.6-1.5-1.4-1.5h-1.2c-0.8,0-1.4,0.7-1.4,1.5v1.3
			c0,0.8,0.6,1.5,1.4,1.5h1.2c0.1,0,0.3,0,0.4-0.1c0.5-0.2,0.9-0.7,1-1.3h1.8c0.8,0,1.5,0.7,1.5,1.6v4.2v0.5h-1.9
			c0-0.8-0.7-1.5-1.4-1.5h-1.2c-0.8,0-1.4,0.7-1.4,1.5V53c0,0.8,0.6,1.5,1.4,1.5h1.2c0.8,0,1.4-0.7,1.4-1.5h1.9v1.6
			c0,1.4,1.1,2.5,2.3,2.5h2v0.6v1.5c0,0.9-0.7,1.6-1.5,1.6h-2.5v-0.1v-0.1c0-0.8-0.6-1.5-1.4-1.5h-1.2c-0.8,0-1.4,0.7-1.4,1.5V62
			c0,0.8,0.6,1.5,1.4,1.5h1.2c0.7,0,1.3-0.6,1.4-1.3h2.5c1.5,0,2.7-1.3,2.7-2.9v-2.5v-1.1c0-0.9,0.7-1.6,1.5-1.6h1.6
			c0,0.1,0,0.2,0,0.3c0.1,0.7,0.7,1.2,1.4,1.2h1.2c0.8,0,1.4-0.7,1.4-1.5L40.5,52.9L40.5,52.9z"/>
		<path d="M34.2,44v-1.2c0-0.1,0.1-0.2,0.2-0.2h1.2c0.1,0,0.2,0.1,0.2,0.2V44c0,0.1-0.1,0.2-0.2,0.2h-1.2
			C34.3,44.2,34.2,44.1,34.2,44z M26.8,29.8c0-0.1,0.1-0.2,0.2-0.2h1.2c0.1,0,0.2,0.1,0.2,0.2V31c0,0.1-0.1,0.2-0.2,0.2H27
			c-0.1,0-0.2-0.1-0.2-0.2V29.8z M35.3,28.6v-1.2c0-0.1,0.1-0.2,0.2-0.2h1.2c0.1,0,0.2,0.1,0.2,0.2v1.2c0,0.1-0.1,0.2-0.2,0.2h-1.2
			C35.4,28.8,35.3,28.8,35.3,28.6z M42.6,27.3V26c0-0.1,0.1-0.2,0.2-0.2H44c0.1,0,0.2,0.1,0.2,0.2v1.2c0,0.1-0.1,0.2-0.2,0.2h-1.2
			C42.7,27.4,42.6,27.4,42.6,27.3z M35.6,45.5c0.8,0,1.5-0.7,1.5-1.5v-1.2c0-0.8-0.6-1.5-1.4-1.5v-1.7c0-1.6-1.2-2.9-2.8-2.9h-0.1v0
			v-2.1c0-0.6,0.5-1.1,1.1-1.1h2h5.3c1.5,0,2.8-1.3,2.8-2.9v-1.8H44c0.8,0,1.5-0.7,1.5-1.5V26c0-0.8-0.7-1.5-1.5-1.5h-1.2
			c-0.8,0-1.5,0.7-1.5,1.5v1.2c0,0.2,0,0.3,0.1,0.4c0.2,0.6,0.6,1,1.2,1.1v1.9c0,0.9-0.7,1.5-1.5,1.5h-4h-0.4v-2
			c0.8,0,1.4-0.7,1.4-1.5v-1.2c0-0.8-0.7-1.5-1.5-1.5h-1.2c-0.8,0-1.5,0.7-1.5,1.5v1.2c0,0.8,0.6,1.5,1.4,1.5v2h-1.5
			c-1.3,0-2.4,1.1-2.4,2.5v2.1h-0.6h-1.5c-0.8,0-1.5-0.7-1.5-1.5v-2.6h0.1h0.1c0.8,0,1.5-0.7,1.5-1.5v-1.2c0-0.8-0.7-1.5-1.5-1.5H27
			c-0.8,0-1.5,0.7-1.5,1.5V31c0,0.7,0.5,1.4,1.2,1.5v2.7c0,1.6,1.2,2.9,2.8,2.9h2.4h1.1c0.8,0,1.5,0.7,1.5,1.5v1.7
			c-0.1,0-0.2,0-0.3,0C33.4,41.4,33,42,33,42.7V44c0,0.8,0.7,1.5,1.5,1.5L35.6,45.5L35.6,45.5z"/>
		<path class="st0" d="M63.8,81.1c3,0.7,9.6-1.2,13.6-7.6c5.1-2.3,8-10.9,4.4-17.7c4-7.5-1-14.3-3.6-17.1
			c4.4-10.2-8.1-16.3-8.1-16.3s-1.4-5.9-9.2-5.9S50,23,50,23s-3.2-6.5-11-6.5c-7.8,0-9.2,5.9-9.2,5.9s-12.5,6.1-8.1,16.3
			c-2.6,2.7-7.6,9.6-3.6,17.1c-3.6,6.8-0.7,15.5,4.4,17.7c4,6.4,10.6,8.3,13.6,7.6c0,0,4,3.1,7.9,2.3c3.9-0.8,5.9-5.2,5.9-5.2
			s2.1,4.8,6,5.2C60.1,83.7,63.8,81.1,63.8,81.1z"/>
		<line class="st0" x1="50.5" y1="23.5" x2="50.5" y2="78.5"/>
		<path class="st1" d="M58.5,27.9c0,0,6.9-2.5,8,4.6"/>
		<path class="st1" d="M67.5,52.5c0,0,4.5-4.4,9,0"/>
		<path class="st1" d="M65.5,65.5c0,0,4.5-4.4,9,0"/>
		<path class="st1" d="M53.5,36.5c0,0,3.7,3.5,8,2.9"/>
		<path class="st1" d="M57.6,39.5c0,0-1.1,7.3,4.9,10"/>
		<path class="st1" d="M69.5,74.5c0,0,4.8-4.5,2.2-11"/>
		<path class="st1" d="M57.5,55.5c0,0,4.4,5,0,10"/>
		<path d="M40.1,75.1c0,0.1-0.1,0.2-0.2,0.2h-1.1c-0.1,0-0.2-0.1-0.2-0.2V74c0-0.1,0.1-0.2,0.2-0.2h1.1c0.1,0,0.2,0.1,0.2,0.2V75.1z
			 M40.5,65c0,0.1-0.1,0.2-0.2,0.2h-1.1c-0.1,0-0.2-0.1-0.2-0.2v-1.1c0-0.1,0.1-0.2,0.2-0.2h1.1c0.1,0,0.2,0.1,0.2,0.2V65z
			 M44.4,68.9v-3.4c0-0.9-0.7-1.7-1.6-1.7h-1.1c0-0.7-0.6-1.3-1.3-1.3h-1.1c-0.7,0-1.3,0.6-1.3,1.4V65c0,0.8,0.6,1.4,1.3,1.4h1.1
			c0.7,0,1.3-0.6,1.3-1.4h1.1c0.3,0,0.5,0.2,0.5,0.5v8c0,0.3-0.2,0.5-0.5,0.5h-1.5v0c0-0.8-0.6-1.4-1.3-1.4h-1.1
			c-0.7,0-1.3,0.6-1.3,1.4v1.1c0,0.8,0.6,1.4,1.3,1.4h1.1c0.7,0,1.3-0.6,1.3-1.3h1.5c0.9,0,1.6-0.8,1.6-1.7v-3.4h5.1v-1.2H44.4z"/>
	</g>
</g>
<g id="Layer_7" class="st2">
	<g class="st3">
		<polyline class="st4" points="-78.9,59 -69.7,56.4 -62,56.4 -62,74.4 -107,74.4 -107,67.4 -98.6,65.1 		"/>
		<path class="st5" d="M-93.8,56.5l6.7-1.9c2.7-0.8,5.4,0.8,6.2,3.4l0.6,1.9l-16.3,4.7l-0.6-1.9C-98,60-96.5,57.3-93.8,56.5z"/>
		<path class="st6" d="M-105.9,43.1c0.4,0.2,0.7,0.5,0.8,0.9c0.2,0.4,0.1,0.9-0.1,1.3c-0.2,0.4-0.5,0.7-0.9,0.9
			c-0.4,0.2-0.9,0.1-1.3-0.1c-0.4-0.2-0.7-0.5-0.8-0.9c-0.2-0.4-0.1-0.9,0.1-1.3c0.2-0.4,0.5-0.7,0.9-0.8
			C-106.7,42.9-106.3,42.9-105.9,43.1z"/>
		<path class="st6" d="M-112,42.9c0.4,0.2,0.7,0.5,0.9,0.9c0.2,0.4,0.1,0.9-0.1,1.3c-0.2,0.4-0.5,0.7-0.9,0.8
			c-0.4,0.2-0.9,0.1-1.3-0.1c-0.4-0.2-0.7-0.5-0.8-0.9c-0.2-0.4-0.1-0.9,0.1-1.3c0.2-0.4,0.5-0.7,0.9-0.8
			C-112.9,42.7-112.4,42.7-112,42.9z"/>
		<path class="st6" d="M-118.1,42.5c0.4,0.2,0.7,0.5,0.9,0.9c0.2,0.4,0.1,0.9-0.1,1.3c-0.2,0.4-0.5,0.7-0.9,0.8
			c-0.4,0.2-0.9,0.1-1.3-0.1c-0.4-0.2-0.7-0.5-0.8-0.9c-0.2-0.4-0.1-0.9,0.1-1.3c0.2-0.4,0.5-0.7,0.9-0.8S-118.5,42.3-118.1,42.5z"
			/>
		<path class="st6" d="M-124,41.3c0.4,0.2,0.7,0.5,0.9,0.9c0.2,0.4,0.1,0.9-0.1,1.3c-0.2,0.4-0.5,0.7-0.9,0.8
			c-0.4,0.2-0.9,0.1-1.3-0.1c-0.4-0.2-0.7-0.5-0.8-0.9c-0.2-0.4-0.1-0.9,0.1-1.3c0.2-0.4,0.5-0.7,0.9-0.9S-124.4,41.1-124,41.3z"/>
		<path class="st6" d="M-129.1,39.9c0.2,0.4,0.1,0.9-0.1,1.3c-0.2,0.4-0.5,0.7-0.9,0.8c-0.4,0.2-0.9,0.1-1.3-0.1
			c-0.4-0.2-0.7-0.5-0.8-0.9c-0.2-0.4-0.1-0.9,0.1-1.3c0.2-0.4,0.5-0.7,0.9-0.8c0.4-0.2,0.9-0.1,1.3,0.1
			C-129.5,39.2-129.2,39.5-129.1,39.9z"/>
		<path class="st6" d="M-135,35.4c0.4,0.2,0.7,0.5,0.8,0.9c0.2,0.4,0.1,0.9-0.1,1.3c-0.2,0.4-0.5,0.7-0.9,0.8s-0.9,0.1-1.3-0.1
			c-0.4-0.2-0.7-0.5-0.9-0.9c-0.2-0.4-0.1-0.9,0.1-1.3c0.2-0.4,0.5-0.7,0.9-0.8C-135.8,35.2-135.4,35.2-135,35.4z"/>
		<path class="st6" d="M-143.1,42.5c3.2-1.2,6.7,0.5,7.9,3.7c1.2,3.2-0.5,6.7-3.7,7.9c-3.2,1.2-6.7-0.5-7.9-3.7
			C-147.9,47.2-146.3,43.6-143.1,42.5z M-136.7,46.7c-0.4-1.2-1.3-2.1-2.4-2.6c-1.1-0.5-2.3-0.6-3.5-0.2s-2.1,1.3-2.6,2.4
			c-0.5,1.1-0.6,2.3-0.2,3.5c0.4,1.2,1.3,2.1,2.4,2.6c1.1,0.5,2.3,0.6,3.5,0.1c1.2-0.4,2.1-1.3,2.6-2.4
			C-136.3,49.1-136.2,47.9-136.7,46.7z"/>
		<path class="st6" d="M-102.8,40.1L-102.8,40.1L-102.8,40.1L-102.8,40.1l0.1,0c0.8-0.2,1.5-0.4,2.3-0.6l3-1.1
			c0.9-0.3,1.9-0.6,2.8-0.7c1-0.1,2-0.1,2.9,0.1c0.5,0.1,1,0.3,1.4,0.5l0,0c0.4-0.1,0.8-0.1,1.2,0c0.4,0.1,0.8,0.4,1,0.9l1.2,2
			c0.1,0.2,0.2,0.3,0.2,0.5c0.2,0.6,0.2,1.2,0,1.8c-0.2,0.6-0.6,1.1-1.1,1.5l-12.9,8.9c-1.9,1.3-4,2.4-6.3,3.2
			c-0.3,0.1-0.5,0.2-0.8,0.3l-36,11.9c-1.4,0.5-2.9-0.2-3.5-1.6l-1.4-3.2l0-0.1c-0.2-0.5-0.1-1,0.1-1.5l0.1-0.1l-0.4-1
			c-0.9-2.4-1.2-4.9-0.9-7.5c0.3-2.3,0-4.6-0.8-6.7c-0.1-0.4-0.3-0.7-0.5-1.1l-2.3-5.1l-0.1-0.2c-0.3-0.8-0.2-1.6,0.1-2.2
			c0.3-0.7,0.9-1.2,1.6-1.5c0.1-0.1,0.3-0.1,0.5-0.1l4.4-0.8c0.4-0.1,0.8-0.2,1.2-0.3c0.6-0.2,1.2-0.5,1.7-0.9l3.5-2.4
			c0.1-0.1,0.3-0.2,0.4-0.3l-0.3-0.9l0,0l0,0c-0.4-1-0.5-2-0.3-3c0.1-1,0.5-2,1.1-2.8c0.3-0.4,0.7-0.7,1.2-0.9
			c0.5-0.2,1-0.2,1.5-0.1c0.5,0.1,1,0.4,1.3,0.8l12,13.3c0.7,0.2,1.3,0.3,2,0.3l14,1.1C-105.7,40.5-104.3,40.4-102.8,40.1
			L-102.8,40.1z M-126.5,37.7l-9.9-11c-0.1-0.2-0.3-0.2-0.5-0.3c-0.2,0-0.4,0-0.6,0c-0.2,0.1-0.3,0.2-0.4,0.3l0,0
			c-0.9,1.3-1.1,2.9-0.6,4.3l0,0l0,0l0.3,0.9c1.8-0.5,3.8-0.1,5.3,1.1l4.5,3.4C-127.8,37-127.2,37.4-126.5,37.7z M-88.1,42.2
			l-0.1-0.2l-1.2-2l-0.2-0.2l-0.2,0l-0.1,0l0,0l-11,7l-3.9,2.5c-1.7,1.1-3.5,2-5.4,2.6c-0.4,0.1-0.8,0.3-1.2,0.4l-35.4,11l0,0l0,0
			c-0.1,0-0.2,0.1-0.2,0.2c0,0.1,0,0.2,0,0.3l0,0l1.4,3.2c0.3,0.6,0.9,0.9,1.5,0.7l36-11.9c0.2-0.1,0.5-0.2,0.7-0.3
			c2.1-0.8,4.1-1.8,5.9-3l12.9-8.9c0.2-0.2,0.4-0.4,0.5-0.7C-88,42.7-88,42.5-88.1,42.2z M-101,45.1l9-5.7l0,0
			c-0.5-0.1-1-0.2-1.5-0.1c-1.1,0-2.2,0.3-3.3,0.7l-3,1.1c-0.6,0.2-1.2,0.4-1.9,0.6l0,0.7c0,0.8,0.2,1.5,0.5,2.3
			C-101.2,44.7-101.1,44.9-101,45.1z M-103.3,42.3l0-0.5c-1.3,0.2-2.7,0.2-4,0.1l-14-1.1c-0.9-0.1-1.7-0.2-2.5-0.4
			c-2-0.5-3.9-1.4-5.5-2.7l-4.5-3.4c-1.3-1-2.9-1.2-4.3-0.7c-0.4,0.1-0.7,0.3-1,0.5l-3.5,2.4c-0.7,0.4-1.4,0.8-2.1,1.1
			c-0.5,0.2-1,0.3-1.5,0.4l-4.4,0.8L-151,39c-0.3,0.1-0.6,0.4-0.7,0.7c-0.1,0.3-0.2,0.7,0,1l0,0.1l2.3,5.1c0.2,0.4,0.4,0.8,0.5,1.2
			c0.9,2.4,1.2,4.9,0.9,7.5c-0.3,2.3,0,4.6,0.8,6.7l0.2,0.6l35.1-10.9c0.4-0.1,0.8-0.3,1.2-0.4c1.8-0.6,3.5-1.5,5-2.5l3.3-2.1
			c-0.1-0.3-0.3-0.6-0.4-0.9C-103.1,44.2-103.3,43.3-103.3,42.3z"/>
	</g>
</g>
<g id="Layer_8" class="st2">
	<circle class="st7" cx="-244.2" cy="25.1" r="14"/>
	<line class="st8" x1="-188.2" y1="88.1" x2="-173.2" y2="73.1"/>
	<line class="st8" x1="-188.2" y1="73.1" x2="-173.2" y2="88.1"/>
	<path class="st9" d="M-204.7,83.1h-20.7c-7.6,0-13.8-6.4-13.8-14.3c0-7.9,6.2-14.3,13.8-14.3h11.7h11.7c7.6,0,13.8-6.4,13.8-14.3
		c0-7.9-6.2-14.3-13.8-14.3h-22.8"/>
	<polyline class="st8" points="-204.2,86.1 -201.2,82.6 -204.2,79.1 	"/>
</g>
<g id="Layer_9" class="st2">
	<g class="st3">
		<path class="st6" d="M-315.5,2.4c0,4.2-2.5,6.4-5.6,6.4c-3.2,0-5.5-2.5-5.5-6.2c0-3.9,2.4-6.4,5.6-6.4
			C-317.6-3.7-315.5-1.2-315.5,2.4z M-324.9,2.6c0,2.6,1.4,4.9,3.9,4.9c2.5,0,3.9-2.3,3.9-5c0-2.4-1.3-4.9-3.9-4.9
			C-323.6-2.5-324.9-0.1-324.9,2.6z"/>
		<path class="st6" d="M-325.9,30.6V18.5h1.7l3.9,6.1c0.9,1.4,1.6,2.7,2.2,3.9l0,0c-0.1-1.6-0.2-3.1-0.2-5v-5.1h1.5v12.1h-1.6
			l-3.9-6.2c-0.8-1.3-1.7-2.7-2.3-4.1l-0.1,0c0.1,1.5,0.1,3,0.1,5v5.2H-325.9z"/>
		<path class="st6" d="M-321.9,54.8l-1.3,3.8h-1.6l4.1-12.1h1.9l4.1,12.1h-1.7l-1.3-3.8H-321.9z M-317.9,53.6l-1.2-3.5
			c-0.3-0.8-0.5-1.5-0.6-2.2h0c-0.2,0.7-0.4,1.5-0.6,2.2l-1.2,3.5H-317.9z"/>
		<rect x="-323.9" y="68.5" class="st6" width="1.6" height="12.1"/>
		<path class="st6" d="M-323.9,90.6c0.8-0.2,1.9-0.3,3-0.3c1.7,0,2.8,0.3,3.5,1c0.6,0.5,1,1.4,1,2.3c0,1.6-1,2.7-2.3,3.1v0.1
			c0.9,0.3,1.5,1.2,1.8,2.4c0.4,1.7,0.7,2.9,0.9,3.3h-1.6c-0.2-0.3-0.5-1.4-0.8-2.9c-0.4-1.7-1-2.3-2.4-2.4h-1.5v5.3h-1.6V90.6z
			 M-322.3,96.1h1.6c1.7,0,2.7-0.9,2.7-2.3c0-1.6-1.1-2.3-2.8-2.3c-0.8,0-1.3,0.1-1.5,0.1V96.1z"/>
		<path class="st10" d="M-331.7-11.9h22c4.4,0,8,3.6,8,8v107c0,4.4-3.6,8-8,8h-22c-4.4,0-8-3.6-8-8v-107
			C-339.7-8.3-336.2-11.9-331.7-11.9z"/>
	</g>
</g>
<g id="Layer_3" class="st2">
	<g id="noun_688247_cc_1_" transform="translate(0.000000, 3.000000)" class="st3">
		<g id="Group_3_">
			<path id="Shape_12_" d="M-320.7,3.5c-0.5,0-1,0.5-1,1v5h-41c-0.7,0-1,0.6-1,1v6c0,0.5,0.5,1,1,1h4v50c0,1.1,0.9,2,2,2h35v4.6
				l-12.7,13.7c-0.3,0.2-0.5,0.6-0.4,1c0.1,0.4,0.4,0.7,0.8,0.8c0.4,0.1,0.8-0.1,1-0.4l11.3-12.2v9.5c0,0.5,0.5,1,1,1
				c0.5,0,1-0.5,1-1V77l11.3,12.2c0.2,0.3,0.6,0.5,1,0.4c0.4-0.1,0.7-0.4,0.8-0.8c0.1-0.4-0.1-0.8-0.4-1l-12.7-13.7v-4.6h35
				c1.1,0,2-0.9,2-2v-50h4c0.5,0,1-0.5,1-1v-6c0-0.5-0.5-1-1-1h-41v-5C-319.7,4-320.2,3.5-320.7,3.5z M-361.7,11.5h82v4h-82V11.5z
				 M-356.7,17.5h72v50h-72V17.5z M-297.2,20.5c-0.3,0-0.5,0.1-0.7,0.3c-0.4,0.4-0.4,1,0,1.4l8.5,8.5c0.4,0.4,1,0.4,1.4,0
				c0.4-0.4,0.4-1,0-1.4l-8.5-8.5C-296.7,20.6-297,20.5-297.2,20.5z M-301.5,23.3c-0.3,0-0.5,0.1-0.7,0.3c-0.4,0.4-0.4,1,0,1.4
				l9.9,9.9c0.4,0.4,1,0.4,1.4,0c0.4-0.4,0.4-1,0-1.4l-9.9-9.9C-301,23.4-301.2,23.3-301.5,23.3z"/>
		</g>
	</g>
</g>
<g id="Layer_4" class="st2">
	<g id="noun_469047_cc_1_" transform="translate(13.000000, 393.000000)" class="st3">
		<path id="Shape_14_" class="st11" d="M-123.1-323.6c11.7,1.8,21.8-7.2,21.8-18.5v-5.8h-9.6v-3.7h9.6v-5.6h-9.6v-3.7h9.6v-5.6h-9.6
			v-3.7h9.6c0-10.6-8.5-19-19-19s-19,8.5-19,18.9l9.4,0.2v3.7h-9.4v5.6h9.4v3.7h-9.4v5.6h9.4v3.7h-9.4v5.3
			C-139.2-333.3-132.5-325-123.1-323.6z"/>
		<path id="Shape_13_" class="st12" d="M-101.5-300.5h-18v-13.6c13.7-0.5,24.5-11.5,25.3-25.1c0-0.7-0.5-1.2-1.2-1.2
			s-1.2,0.5-1.2,1.2c-0.5,12.7-11.2,22.8-24,22.8s-23.5-10.1-24-22.8c0-0.7-0.5-1.2-1.2-1.2s-1.2,0.5-1.2,1.2
			c0.7,13.6,11.6,24.4,25.3,25.1v13.6h-18c-0.5,0-1.1,0.2-1.4,0.5c-1.4,1.4-0.4,2.5,1.4,2.5c14.8,0,25.4,0,31.9,0c1.4,0,3.6,0,6.5,0
			c2,0,2.8-1.3,1.4-2.5C-100.5-300.1-101-300.5-101.5-300.5z"/>
	</g>
</g>
<g id="Layer_5" class="st2">
	<g id="noun_1052494_cc_1_" transform="translate(10.000000, 204.000000)" class="st3">
		<path id="Shape_15_" class="st13" d="M-204.9-180.8C-204.9-180.8-204.9-180.8-204.9-180.8c-11.5-11.5-30.2-11.5-41.7,0l0,0
			c-11.5,11.5-11.5,30.3,0,41.8l18.5,18.5c0.7,0.7,1.5,1,2.3,1c0.8,0,1.7-0.3,2.3-1l18.5-18.6C-193.4-150.5-193.4-169.2-204.9-180.8
			z M-225.7-150.7c-6.7,0-12.1-5.4-12.1-12.1s5.4-12.1,12.1-12.1c6.7,0,12.1,5.4,12.1,12.1S-219.1-150.7-225.7-150.7z"/>
	</g>
</g>
<g id="Layer_1" class="st2">
	<g id="lettering" transform="translate(223.000000, 218.000000)" class="st3">
		<path id="Fill-1_4_" class="st14" d="M-568,6.2c-3.2,0.1-6.5,3.2-7.9,6c-1.9,3.9-0.8,6,2.2,6c3.2-0.1,6.5-3,8-6
			C-563.8,8.3-565,6.1-568,6.2"/>
		<path id="Fill-3_4_" class="st14" d="M-586.5,64.2l14.3-2.3c0.2,0,0.3-0.3,0.1-0.4c-1-0.3-2.4-1.8-1.7-5.2
			c0.6-3.3,6-31.5,7.1-36.9c0-0.2-0.2-0.3-0.3-0.2c-2.8,3-7.6,5.5-11.2,5.4c-0.2,0-0.4,0.4-0.2,0.5c1.1,0.6,1.1,1.4,0.6,4.1
			c-2.1,10.6-4.9,25.8-5.5,28.6c-0.8,4.2-2.2,5.3-3.3,6C-586.8,64-586.7,64.3-586.5,64.2"/>
		<path id="Fill-5_2_" class="st14" d="M-532.1,23.2c2.1-10.7-5.5-9.9-9.7-7.5c-3.7,2.2-5.6,5-6.6,6.7c0.6-3.2,1.1-5.8,1.4-7
			c0-0.2-0.2-0.3-0.3-0.2c-2.8,3-7.5,5.3-11,5.3c-0.2,0-0.4,0.4-0.2,0.5c1.1,0.6,1.1,1.3,0.6,4c-2.1,10.3-4.8,25.2-5.4,27.9
			c-0.8,4.1-2.2,5.2-3.2,5.9c-0.2,0.1,0,0.4,0.2,0.4l14-2.2c0.2,0,0.3-0.3,0.1-0.4c-1-0.3-2.3-1.8-1.7-5.1c0.3-1.8,2-10.6,3.7-19.1
			l0,0c0,0,0.1-0.3,0.3-1.2c0.7-3.3,2.1-5.8,3.1-7.2c4.1-6.1,5.8-5.2,6-3.2c0.1,0.7-0.1,2-0.3,3.4l-3.1,16c-0.2,0.8-1.2,6.4-1.4,7.1
			c-0.7,3.6-0.4,6.3,1,7.7c3.2,3.1,10.2,0.4,11.9-7.1c0-0.2-0.3-0.2-0.4,0c-1.2,2.1-3.5,2.9-3.4,0.2c0.1-1.9,0.9-6.1,1.1-7
			c0,0,0,0,0,0l3.2-16.4C-532.3,24.2-532.2,23.8-532.1,23.2"/>
		<path id="Fill-7_2_" class="st14" d="M-488.8-208.5c12.2-1.1,17.2,15.8,10.1,46.6c0,2.8-0.2,5.7-0.7,8.6
			c-0.6,3.5-1.6,6.9-2.9,10.2c-0.2,0.4-0.7,1.9-1.2,3c0.1-0.4,0.3-0.8,0.4-1.2c0.7-2.2,1.5-4.9,2-8.1c0.5-3.2,3.2-20.6-7.3-34.7
			c-2.8-3.7-8-9-16.4-12.8C-499.8-203.6-494.3-208-488.8-208.5 M-547.3-162.1c4.1-1.5,7.4-5.1,8.2-9.5c0.5-2.9-0.3-5.3-1.6-6.3
			c-0.3-0.2-0.6,0-0.6,0.3c-0.1,0.6-0.4,1.4-0.9,2.1c-1.5,1.8-4.6,3-7,0.9c-2.6-2.3-2.2-6.1,0.1-10.1c4.3-7.3,17.8-13.7,35.3-10.5
			c8.8,1.6,17.8,7.7,22.8,13.7c5.5,6.7,7.3,15,7.8,21.6c-0.6-1.1-1.2-2.1-1.8-2.9c-1.1-1.4-2.3-2.7-3.9-3.7
			c-2.6-1.7-5.5-2.2-8.7-1.7c-4.1,0.7-6.4,3.3-6.9,6.4c-0.3,1.4-0.2,3,0.7,4.4c1.4,2.5,4.1,4.4,7.4,3.6c2.8-0.7,3.8-3,3.7-4.7
			c0-0.2-0.3-0.4-0.5-0.2c-1.1,0.8-2.9,0.7-4-0.3c-1.3-1.1-1.4-3-0.2-4.2c0.2-0.2,0.5-0.4,0.8-0.6c0.6-0.4,1.3-0.7,2.1-0.8
			c1-0.2,3.6-0.5,6.2,1.9c1.7,1.5,3,3.6,4,6c0.2,0.6,0.5,1.3,0.6,2.1c0.5,3.3,0.3,6.2-0.2,8.9c-0.3,1.3-0.6,2.5-0.9,3.6
			c-0.4,1.2-0.8,2.4-1.2,3.3c0,0,0,0,0,0c-1.2,2.7-2.5,5.3-3.8,7.8h0c-3.5,6.6-7.5,12.2-11.7,16c-6.5-1.8-13.1-3-19.9-2.7
			c-0.6,0-1.3,0.1-1.9,0.1c-3.2-8-3-22,1.8-41.3c2.8-11.5,7.6-23.5,13.3-32.8c-3.7-1.2-7.7-1.8-11.8-1.9
			c-8.9,10.5-15.4,24.2-18.1,37.1c-3.9,18.8-2,32.6,4.2,40.9c-7.8,2.4-14.8,6.9-19.5,14.1c-4.9,7.5-7.2,17.3-1.6,24.3
			c3.4,4.3,9,6.7,14.7,6.3c2.8-0.2,5.5-1.1,8-2.6c1.1-0.7,2.5-1.7,3.2-2.9c0.2-0.4,0.2-0.7-0.2-0.7c-4.2,0.2-8.3-1.4-11-4.7
			c-5.1-6.3-0.8-16.9,4.5-22c2.5-2.4,5.4-4.4,8.6-5.9c0.3-0.1,2.2-1,3.5-1.4c0.2-0.1,0.4-0.1,0.6-0.2c0.1,0,0.2-0.1,0.3-0.1
			c0,0,0.1,0,0.1,0c0.1,0,0.3-0.1,0.4-0.1c0.6-0.2,1.2-0.3,1.7-0.4c1.5-0.3,3-0.5,4.4-0.5c4,0,7.3,0.2,10.3,0.6
			c-0.1,0.1-0.3,0.2-0.4,0.3c0,0,0,0-0.1,0c-0.2,0.1-0.5,0.2-0.7,0.4c0,0,0,0-0.1,0c-0.5,0.2-0.9,0.4-1.4,0.6c0,0-0.1,0-0.1,0
			c-0.2,0.1-0.5,0.2-0.7,0.2c0,0-0.1,0-0.1,0c-0.5,0.1-0.9,0.2-1.4,0.3c0,0-0.1,0-0.1,0c-0.2,0-0.5,0.1-0.7,0.1c0,0-0.1,0-0.1,0
			c-0.2,0-0.5,0-0.7,0.1c0,0,0,0-0.1,0c-0.2,0-0.3,0-0.5,0c-0.1,0-0.3,0-0.4,0c-0.1,0-0.1,0-0.2,0c-0.6,0-1.1-0.1-1.6-0.2
			c-0.8-0.2-1.5-0.4-2.3-0.8c-0.1,0-2.7,0.4-4.5,1.1c-1.8,0.6-3.1,1.2-3.1,1.2c3.7,1.6,8,2.3,12.8,2c0,0,0,0,0.1,0
			c0.4,0,0.7,0,1.1-0.1c0.4,0,0.8-0.1,1.2-0.1c0.1,0,0.2,0,0.3,0c0.3,0,0.6-0.1,0.9-0.1c0.1,0,0.3,0,0.4-0.1c0.3,0,0.6-0.1,0.8-0.2
			c0.1,0,0.3-0.1,0.4-0.1c0.3-0.1,0.6-0.1,0.9-0.2c0.1,0,0.2-0.1,0.3-0.1c0.4-0.1,0.7-0.2,1.1-0.3c0,0,0.1,0,0.1,0
			c0.4-0.1,0.8-0.2,1.2-0.4c0.1,0,0.2-0.1,0.2-0.1c0.3-0.1,0.6-0.2,0.9-0.3c0.1,0,0.2-0.1,0.4-0.1c0.3-0.1,0.5-0.2,0.8-0.3
			c0.1-0.1,0.3-0.1,0.4-0.2c0.3-0.1,0.5-0.2,0.8-0.3c0.1-0.1,0.2-0.1,0.4-0.2c0.3-0.1,0.6-0.3,0.9-0.4c0.1,0,0.2-0.1,0.3-0.1
			c0.4-0.2,0.8-0.4,1.1-0.6c0.1,0,0.1-0.1,0.2-0.1c0.3-0.2,0.6-0.3,1-0.5c0.1-0.1,0.2-0.1,0.3-0.2c0.3-0.1,0.5-0.3,0.8-0.4
			c0.1-0.1,0.3-0.2,0.4-0.2c0.2-0.1,0.5-0.3,0.7-0.4c0,0,0.1,0,0.1-0.1c0.1,0,0.1-0.1,0.1-0.1s0,0,0,0c0.1,0,0.1-0.1,0.2-0.1
			c0.3-0.2,0.5-0.3,0.8-0.5c0.1-0.1,0.2-0.1,0.3-0.2c0.7-0.5,1.4-1,2.1-1.5c0.1-0.1,0.2-0.2,0.3-0.2c0.2-0.2,0.5-0.4,0.7-0.6
			c0.1-0.1,0.2-0.2,0.4-0.3c0.2-0.2,0.4-0.4,0.7-0.5c0.1-0.1,0.2-0.2,0.4-0.3c0.2-0.2,0.5-0.4,0.7-0.6c0.1-0.1,0.2-0.2,0.3-0.3
			c0.3-0.2,0.5-0.5,0.8-0.7c0.1-0.1,0.1-0.1,0.2-0.1c0.3-0.3,0.7-0.6,1-0.9c0.1-0.1,0.2-0.2,0.3-0.3c0.2-0.2,0.5-0.5,0.7-0.7
			c0.1-0.1,0.2-0.2,0.3-0.3c0.2-0.2,0.4-0.4,0.6-0.6c0.1-0.1,0.2-0.2,0.4-0.4c0.2-0.2,0.4-0.4,0.6-0.7c0.1-0.1,0.2-0.2,0.3-0.4
			c0.2-0.2,0.4-0.5,0.7-0.8c0.1-0.1,0.2-0.2,0.2-0.3c0.3-0.3,0.6-0.7,0.9-1c0.1-0.1,0.1-0.1,0.2-0.2c0.2-0.3,0.5-0.6,0.7-0.9
			c0.1-0.1,0.2-0.3,0.3-0.4c0.2-0.2,0.4-0.5,0.6-0.7c0.1-0.1,0.2-0.3,0.3-0.4c0.2-0.2,0.4-0.5,0.5-0.7c0.1-0.1,0.2-0.3,0.3-0.4
			c0.2-0.3,0.4-0.5,0.6-0.8c0.1-0.1,0.2-0.3,0.3-0.4c0.3-0.4,0.5-0.8,0.8-1.1c0,0,0,0,0,0h0c6.2-9.1,10.7-19.9,13-30.6
			c7.2-34.5-5.5-52.4-27.6-49.8c-8.7,1-16.7,5.3-23.6,11.5c-10.8-2.4-34.3-1.4-45.4,13.5c-4.4,5.9-6.1,14.2-2.4,20.2
			C-558.7-161.4-552.8-160.1-547.3-162.1"/>
		<path id="Fill-9_2_" class="st14" d="M-460.4-129.8l18.8-3c0.2,0,0.4-0.4,0.2-0.5c-1.3-0.4-3.2-2.4-2.3-6.9
			c0.4-2.4,2.7-14.3,5-25.9l0,0c0,0,0.1-0.4,0.4-1.7c1-4.5,2.9-7.9,4.1-9.8c5.5-8.3,7.8-7,8.1-4.3c0.1,0.9-0.1,2.7-0.4,4.6
			l-4.2,21.7c-0.2,1.1-1.6,8.7-1.8,9.7c-0.9,4.9-0.5,8.5,1.4,10.4c4.2,4.2,13.7,0.6,16-9.6c0.1-0.2-0.4-0.3-0.6,0
			c-1.6,2.8-4.7,4-4.6,0.3c0.1-2.6,1.2-8.2,1.5-9.5c0,0,0,0,0,0l4.3-22.3c0.1-0.6,0.2-1.2,0.4-1.9c2.8-14.5-7.4-13.5-13-10.1
			c-5,3-7.6,6.8-8.9,9.1c0.8-4.3,1.5-7.8,1.8-9.5c0-0.3-0.3-0.4-0.4-0.2c-3.7,4-10.1,7.2-14.8,7.2c-0.3,0-0.6,0.5-0.3,0.7
			c1.5,0.8,1.5,1.8,0.8,5.4c-2.8,14-6.5,34.2-7.2,37.8c-1.1,5.5-2.9,7-4.4,8C-460.9-130.1-460.7-129.7-460.4-129.8"/>
		<path id="Fill-11_2_" class="st14" d="M-390.6-175.8c2.5-6,5.1-10.6,7.7-13.8c2.4-2.8,4-3.6,6-4.3c2.7-0.9,3.5,1.7,2.2,6.9
			c-1.6,6-4.3,11.4-8.2,16.4c-3.5,4.4-7.3,7-9.7,1.9C-391.8-172.1-390.9-174.9-390.6-175.8 M-385.5-126.9c2.3-0.2,4.5-0.6,6.5-1.2
			c0,0-0.5-1.8-1.1-3.5c-0.7-2.1-0.8-3.5-0.8-3.5c-8.7-1.3-14.6-12-12.7-28.4c4.7,3.4,10.2,2.8,16.4-1.7c5-3.9,8.5-8.8,10.4-14.9
			c2.3-7.5,0.8-12.9-4.6-16.3c-2.8-1.8-6.3-1.8-10.6-0.2c-1.1,0.4-2.2,0.9-3.3,1.5c0,0,0,0,0,0c-3.2,1.7-6.3,4.2-9.3,7.5
			c-1.2,1.2-2.3,2.6-3.4,4.1c0,0,0,0,0,0c-0.5,0.7-1,1.4-1.4,2.1c-0.1,0.1-0.1,0.2-0.2,0.3c-0.4,0.7-0.9,1.3-1.2,2
			c0,0.1-0.1,0.1-0.1,0.2c0,0.1-0.1,0.1-0.1,0.2c-0.2,0.3-0.3,0.6-0.5,0.9c-0.1,0.2-0.2,0.3-0.3,0.5c-1.5,2.8-2.5,5.3-3.2,7.3
			c0,0,0,0.1,0,0.1c0,0.1,0,0.1-0.1,0.2c-0.1,0.2-0.1,0.3-0.1,0.4c-0.1,0.2-0.1,0.4-0.2,0.6c-0.7,2.3-1,3.8-1.1,4.3
			c-0.1,0.7-0.2,1.4-0.3,2c-0.4,2.2-0.7,4.4-0.8,6.2c0,0.5,0,1,0,1.4C-408.3-136.6-399.4-125.7-385.5-126.9"/>
		<path id="Fill-13_2_" class="st14" d="M-363.9-157.2c1.4,1,1.3,3.7,0.5,6c-2.6,8.8-8.1,13.2-11.9,15c-0.6,0.3-1.3,0.5-2,0.6
			c-0.4-1.4-0.6-2.9-0.7-4.4c-0.1-2.8,0.5-5.8,1.8-8.6c0.6-1.4,1.4-2.7,2.3-4c0.9-1.2,2-2.5,3.1-3.3
			C-368.5-157.7-365.3-158.3-363.9-157.2 M-372.2-157.6c-2.6,2.4-4.7,5.1-6.2,8.2c-1.5,3.1-2.3,6.4-2.4,9.6c0,3.2,0.6,6.4,1.8,9.1
			c0.2,0.5,0.5,1,0.7,1.5l0,0c0,0,0,0,0,0c1.1,2.1,2.5,4,4.1,5.6c2,1.9,4.1,3.5,6.3,4.6c1.1,0.6,2.2,1,3.2,1.4
			c3.3,1.1,6.2,1.6,8.5,1.7c2.5,0.1,5.2,0,7.9-0.8c4.4-1.3,7.8-3.9,10.3-7.8c3.2-5.1,2.5-9.9-0.3-13.3c-1.3-1.6-3.1-2.9-5.5-3.4
			c-4.1-0.8-8.8,0.4-11.1,4.7c-1.9,3.6-0.4,6.9,1.6,8.3c0.3,0.2,0.7,0,0.7-0.3c0.2-2,2.1-3.7,4.2-4c2.5-0.4,4.7,1.3,4.9,3.7
			c0,0.5,0,0.9-0.1,1.4c-0.2,1-0.5,2-1.1,3c-0.7,1.2-3,4.3-8.1,4.9c-3.2,0.4-7-0.1-10.5-1.2c-0.9-0.4-1.9-0.8-2.8-1.3
			c-1.9-1-3.8-2.3-5.6-4c-1.3-1.3-2.5-2.8-3.5-4.5c4.4-2.2,8.1-5.6,10.8-9.9c0.5-0.8,1.1-1.7,1.6-2.6c1.2-2.2,2.4-4.7,3.1-7.6
			c0.3-1.5,0.6-3,0.4-4.7c-0.2-1.6-0.9-3.6-2.6-4.7c-1.7-1.1-3.9-1-5.7-0.4C-369.3-159.8-370.9-158.8-372.2-157.6"/>
		<g id="Group-17_2_" transform="translate(0.000000, 286.000000)">
			<g id="Clip-16_2_">
			</g>
			<defs>
				<filter id="Adobe_OpacityMaskFilter" filterUnits="userSpaceOnUse" x="-612.7" y="-211.8" width="80" height="104.8">
					<feColorMatrix  type="matrix" values="1 0 0 0 0  0 1 0 0 0  0 0 1 0 0  0 0 0 1 0"/>
				</filter>
			</defs>
			<mask maskUnits="userSpaceOnUse" x="-612.7" y="-211.8" width="80" height="104.8" id="mask-2_2_">
				<g class="st15">
					<polygon id="path-1_2_" class="st16" points="-612.7,-107 -612.7,-211.8 -532.8,-211.8 -532.8,-107 					"/>
				</g>
			</mask>
			<path id="Fill-15_2_" class="st17" d="M-550-157.1c-0.1,1.7-0.4,3.2-0.7,4.4c-0.2,0.6-0.3,1.2-0.5,1.6c0,0.1-0.1,0.2-0.1,0.3
				c0.6-2.9,0.3-6.5-0.2-8.7c-1.7-7-7.7-11.1-14.7-12c-7.5-1.1-16.1,0.9-21.6,7.2c-4.8,5.5-7,14.3-3.3,20.2c3,4.8,8.9,6.2,14.5,4.2
				c4.2-1.5,7.7-5,8.3-9.5c0.4-3.2-0.8-5.5-2.2-6.3c-0.3-0.2-0.4-0.1-0.2,0.3c0.2,0.5,0,1.5-0.7,2.4c-0.9,1.1-2.4,1.9-3.8,2.1
				c-3.5,0.6-4.9-2.3-4.5-5.2c0.9-6.4,7.3-10.2,13.3-10.3c5.8-0.1,11.7,3.2,12.4,9.2c0.4,4.2-0.9,8.9-2.4,13
				c-7.2,18.3-18,33.3-28.5,33.7c-12.5,0.5-17.1-17-9.2-48.9c5.7-23.2,19.5-48.1,33.1-49.4c12.2-1.1,17.2,15.5,10.3,45.7
				C-550.1-160.8-549.9-158.8-550-157.1 M-562.5-211.5c-24,2.8-43,30.2-48.2,54.8c-7.1,33.9,4.9,51.5,27,49.6
				c23.7-2.1,43.3-28.6,48.8-54.9C-527.6-196.2-540.3-214.1-562.5-211.5"/>
		</g>
		<path id="Fill-18_2_" class="st14" d="M-443.6,107.2c2.5-6,5.1-10.6,7.7-13.8c2.4-2.8,4-3.6,6-4.3c2.7-0.9,3.5,1.7,2.2,7
			c-1.6,6-4.3,11.4-8.2,16.4c-3.6,4.5-7.5,7.2-9.9,1.6c0,0,0,0,0,0C-445,110.8-444,108.3-443.6,107.2 M-446.7,119.5
			c4.8,3.5,10.3,2.9,16.6-1.6c5-3.9,8.5-8.9,10.4-14.9c2.3-7.5,0.8-12.9-4.6-16.3c-2.8-1.8-6.3-1.8-10.6-0.2
			c-1.1,0.4-2.2,0.9-3.3,1.5c0,0,0,0,0,0c-3.2,1.7-6.3,4.2-9.3,7.5c-2.3,2.4-4.4,5.3-6.4,8.7c-1,1.6-2.4,4.6-4.2,9
			c-0.9,2.5-2.4,9.6-2.5,13.7c-0.2,4.1,0.4,7.6,1.7,10.3c2.2,4.6,6.2,7,11.8,7c5.7,0.1,10.4-1.7,14.2-5.4c5.5-4.8,8-11,7.4-18.6
			c0-0.2-0.2-0.3-0.4-0.2c-0.3,0-0.5,0.2-0.5,0.4c-0.3,2.4-1.5,5.2-3.6,8.3c-2.1,3.1-4.5,5.2-7.1,6.1c-4.5,1.7-7.4,0.7-8.9-2.8
			c-1.6-3.7-1.5-8.4-0.8-12.8C-446.9,119.3-446.8,119.4-446.7,119.5"/>
		<path id="Fill-20_2_" class="st14" d="M-395.7,124.5c-1.7,1.8-3.9,3.3-6.9,3.8c-1.9,0.3-3.2-0.1-3.9-1.3c-0.6-1.2-0.8-2.8-0.1-4.7
			c1.6-4.4,4.3-7.5,7.1-10.1c0.6-0.5,1.2-1.1,1.8-1.6c1.8-1.5,3.6-3,5.4-4.2c0.1-0.1,0.2-0.1,0.3-0.2
			C-392.2,106.2-395.7,124-395.7,124.5 M-376.8,87.4c-0.6-4.4-3.1-7.2-7.5-8c-5-0.7-9.9,0.1-14.8,2.6c-4.9,2.5-8.5,6.4-10.8,11.8
			c-1.7,3.9-1.5,6.9,0.7,9c2.2,2,5.2,2.1,9.2,0.1c2.4-1.1,4.2-2.4,5.6-4c0.2-0.2,0.2-0.4,0.1-0.5c-0.1-0.1-0.2-0.1-0.4,0
			c-1.8,0.6-3.2,0.4-4.1-0.6c-0.9-1-1.4-2.7-1.1-4.7c0.7-4.5,2.5-7.9,6-9.5c2.6-1.2,4.4-0.8,5.1,1.3c0.3,1.1,0.1,3.6-0.5,6.9
			l-2.1,10.5c-0.3,0.2-0.6,0.5-1,0.7c-0.5,0.3-1,0.6-1.5,0.9c-1.1,0.6-2.2,1.3-3.3,2c-4.3,2.4-15.2,9.1-18.9,15.3
			c-5.1,8.6-2.5,15.4,5.2,15.9c4.5,0.3,10.2-3.1,15-8.5c0.2,1.9,0.8,3.4,1.8,4.4c4.3,4.2,14,0.6,16.3-9.5c0.1-0.2-0.4-0.3-0.6,0
			c-1.6,2.8-4.8,3.9-4.7,0.3c0.1-2.6,1.2-8.2,1.5-9.4c0,0,4.4-22.3,4.4-22.3l0,0C-376.8,90.2-376.7,88.7-376.8,87.4"/>
		<path id="Fill-22_2_" class="st14" d="M-472.5,133.9L-472.5,133.9c3-15.8,11.6-60.4,12.8-66.4c0-0.3-0.2-0.4-0.4-0.2
			c-3.7,4-10,7.2-14.6,7.1c-0.3,0-0.6,0.5-0.3,0.7c1.4,0.8,1.5,1.8,0.8,5.3c-1.9,9.4-6.2,32.1-9.1,47c-0.3,1.6-0.9,4.5-1.9,9.7
			c-0.9,4.8-0.4,8.5,1.5,10.4c4.2,4.2,13.5,0.6,15.8-9.5c0.1-0.2-0.4-0.3-0.6,0c-1.6,2.8-4.6,3.9-4.5,0.3
			C-473,137.2-472.8,135.5-472.5,133.9"/>
		<path id="Fill-24_2_" class="st14" d="M-334.5,110.3c0.3-1.6,0.6-3,0.7-3.6c0,0,0,0,0,0l4.3-22.3c0.1-0.6,0.2-1.2,0.4-1.9
			c2.8-14.5-7.4-13.5-13-10.1c-5,3-7.6,6.8-8.9,9.1c0.8-4.3,1.5-7.8,1.8-9.5c0-0.3-0.3-0.4-0.4-0.2c-3.7,4-10.1,7.2-14.8,7.2
			c-0.3,0-0.6,0.5-0.3,0.7c1.5,0.8,1.5,1.8,0.8,5.4c-2.8,14-6.5,34.2-7.2,37.8c-1.1,5.5-2.9,7-4.4,8c-0.2,0.2-0.1,0.5,0.2,0.5
			l18.8-3c0.2,0,0.4-0.4,0.2-0.5c-1.3-0.4-3.2-2.4-2.3-6.9c0.4-2.4,2.7-14.3,5-25.9l0,0c0,0,0.1-0.4,0.4-1.7c1-4.5,2.9-7.9,4.1-9.8
			c5.5-8.3,7.8-7,8.1-4.3c0.1,0.9-0.1,2.7-0.4,4.6l-4.2,21.7c-0.2,1.1-1.6,8.7-1.8,9.7c-0.9,4.9-0.5,8.5,1.4,10.4
			c0.6,0.6,1.4,1.1,2.2,1.3C-343.1,120.6-339.6,114.3-334.5,110.3"/>
		<path id="Fill-26_2_" class="st14" d="M-514.1,152.8c-1.3-0.4-3.2-2.4-2.3-6.9c0.5-2.8,3.6-18.5,6.2-31.5c0.3-1.3,0.5-2.7,1-3.7
			c0.8-1.8,1.8-3.5,3.2-4.8c3.5-3.3,9.2-5,13-2.3c3.1,2.1,4.1,7,0.7,9.9c-2.3,1.9-5.5,1.5-6.6-1.1c-0.4-0.9-0.4-2.4,0.3-3.5
			c0.3-0.5,0.1-0.7-1.1-0.3c-2.2,0.8-4.1,2.1-5.3,4c-2.5,3.8-2,9.5,1.8,11.8c3.9,2.3,9.6,0.3,13.1-2.6c4.3-3.7,6.3-9.7,5.1-14.9
			c0.9,3.7-0.9-3.7,0,0c-2.4-10-14.8-9.9-22.3-3.7c-0.3,0.2-0.6,0.5-0.8,0.7c0.6-2.8,1-5.1,1.2-6.3c0-0.3-0.3-0.4-0.4-0.2
			c-3.8,4-10.2,7.2-15,7.1c-0.3,0-0.6,0.5-0.3,0.7c1.5,0.8,1.5,1.8,0.8,5.3c-2.8,13.9-6.6,33.9-7.3,37.4c-1.1,5.5-2.9,7-4.4,7.9
			c-0.2,0.2-0.1,0.5,0.2,0.5l19.1-3C-514.1,153.2-513.9,152.9-514.1,152.8"/>
		<path id="Fill-28_2_" class="st14" d="M-298.8,90c-4.4-4.3-17.1-10.9-10-19c2.5-2.8,7.5-3.6,9.6-0.4c1.1,1.6,1.6,4.1,0.4,6.1
			c-1.5,2.5-3.9,2.8-5,2.4c-0.3-0.1-0.4,0.1-0.4,0.3c-0.4,1.6,0.7,3.6,3.3,4c2.2,0.3,5.7-0.5,7.7-2.9c5.2-6.3,1.2-14.2-5.8-15.1
			c-13.6-1.7-28.4,13.5-19.3,25.6c4.2,5.6,10.6,9.1,13.9,15.6c3.5,6.9,4.7,14.7,0.9,22.3c-2.8,5.7-7.3,10.1-13.5,11.9
			c-6.1,1.7-13,0.6-15.8-5.2c-2.7-5.5-1.4-13.5,5.2-16.3c3-1.3,6.4-0.5,7.1,2.9c0.3,1.7-0.2,3.3-1.5,4.6c-0.6,0.5-1.2,1-2,1.3
			c-1.1,0.5-1.8,0.4-2.3,0.3c-0.2,0-0.4,0.2-0.3,0.3c0.6,1,2.1,1.7,3,1.9c2.1,0.5,4,0.3,5.9-0.3c4.3-1.3,7.9-4.8,9.2-9.1
			c2.9-9.3-5.5-16.1-14.2-14.9c-14.2,1.9-23.6,20.7-16.9,32.3c4.4,7.6,13.6,8.9,22.2,7.3c9.7-1.8,19-7.6,24.2-16.4
			C-285.1,115.5-288.7,99.8-298.8,90"/>
		<path id="Fill-30_2_" class="st14" d="M-464.3-44.1c-1.1,5.5-2.9,7-4.4,7.9c-0.2,0.2-0.1,0.5,0.2,0.5l18.9-3
			c0.2,0,0.4-0.4,0.2-0.5c-1.3-0.4-3.2-2.4-2.3-6.9c0.5-2.4,2.7-14.2,5-25.7l0,0c0,0,0.1-0.4,0.4-1.7c1-4.4,2.9-7.8,4.1-9.7
			c5.5-8.2,7.9-6.9,8.1-4.3c0.1,0.7,0,1.8-0.2,3.1c-2.8,13.8-6.4,33.1-7.1,36.6c-1.1,5.5-2.9,7-4.4,7.9c-0.2,0.2-0.1,0.5,0.2,0.5
			l18.9-3c0.2,0,0.4-0.4,0.2-0.5c-1.3-0.4-3.2-2.4-2.3-6.9c0.5-2.5,3-15.6,5.4-27.7c1-4.2,2.8-7.5,4-9.3c5.5-8.2,7.9-6.9,8.1-4.3
			c0.1,0.9-0.1,2.7-0.4,4.6l-4.2,21.6c-0.2,1-1.6,8.5-1.8,9.5c-0.9,4.8-0.5,8.4,1.4,10.3c4.3,4.2,13.8,0.6,16.1-9.5
			c0.1-0.2-0.4-0.3-0.6,0c-1.6,2.8-4.7,3.9-4.6,0.3c0.1-2.6,1.2-8.2,1.5-9.4c0,0,0,0,0,0l4.3-22c0.1-0.6,0.3-1.3,0.4-2
			c2.9-14.4-7.4-13.3-13-10c-5.5,3.3-8.1,7.6-9.4,9.7c0,0,0,0,0,0c0.3-10.2-8.4-9.2-13.5-6.2c-5,3-7.6,6.7-9,9
			c0.8-4.3,1.5-7.7,1.8-9.4c0-0.3-0.3-0.4-0.4-0.2c-3.7,4-10.1,7.2-14.8,7.1c-0.3,0-0.6,0.5-0.3,0.7c1.5,0.8,1.5,1.8,0.8,5.3
			C-459.8-67.7-463.5-47.7-464.3-44.1"/>
		<path id="Fill-32_2_" class="st14" d="M-491.2-40.1c-1.1,5.5-3,7-4.5,7.9c-0.2,0.2-0.1,0.5,0.2,0.5l19.2-3c0.3,0,0.4-0.4,0.2-0.5
			c-1.3-0.4-3.2-2.4-2.3-6.9c0.9-4.4,8.2-41.3,9.6-48.4c0-0.3-0.3-0.4-0.4-0.2c-3.8,4-10.3,7.2-15.1,7.1c-0.3,0-0.6,0.5-0.3,0.7
			c1.5,0.8,1.5,1.8,0.8,5.3C-486.6-63.7-490.4-43.7-491.2-40.1"/>
		<path id="Fill-34_2_" class="st14" d="M-375.6-85.8c2.5-6,5.1-10.6,7.7-13.8c2.4-2.8,4-3.6,6-4.3c2.7-0.9,3.5,1.7,2.2,7
			c-1.6,6-4.3,11.4-8.2,16.4c-3.6,4.5-7.5,7.2-9.9,1.6c0,0,0,0,0,0C-377-82.2-376-84.7-375.6-85.8 M-357.6-72.8
			c0-0.2-0.2-0.3-0.4-0.2c-0.3,0-0.5,0.2-0.5,0.4c-0.3,2.4-1.5,5.2-3.6,8.3c-2.1,3.1-4.5,5.2-7.1,6.1c-4.5,1.7-7.4,0.7-8.9-2.8
			c-1.6-3.7-1.5-8.4-0.8-12.8c0.1,0.1,0.2,0.1,0.3,0.2c4.8,3.5,10.3,2.9,16.6-1.6c5-3.9,8.5-8.9,10.4-14.9
			c2.3-7.5,0.8-12.9-4.6-16.3c-2.8-1.8-6.3-1.8-10.6-0.2c-1.1,0.4-2.2,0.9-3.3,1.5c0,0,0,0,0,0c-3.2,1.7-6.3,4.2-9.3,7.5
			c-2.3,2.4-4.4,5.3-6.4,8.7c-1,1.6-2.4,4.6-4.2,9c-0.9,2.5-2.4,9.6-2.5,13.7c-0.2,4.1,0.4,7.6,1.7,10.3c2.2,4.6,6.2,7,11.8,7
			c5.7,0.1,10.4-1.7,14.2-5.4C-359.5-59-357-65.2-357.6-72.8"/>
		<path id="Fill-36_2_" class="st14" d="M-577-11.2c0.1,0.1,0.2,0.3,0.3,0.4c2.4,2.9,5.4,4.8,8.6,6.2c3.2,1.4,6.6,2.2,10.1,2.6
			c3.6,0.5,7.2-0.1,10.8-0.6c3.6-0.7,7.2-1.7,10.7-3.2c3.5-1.5,6.9-3.6,10-6c6.3-4.9,11.3-11.6,14.7-18.6c1.8-3.5,3.2-7.1,4.3-10.9
			c1-3.6,2-6.8,2.9-10.3c0.9-3.4,1.6-6.9,2.1-10.4c0.6-3.5,0.8-7,1.2-10.4c0.7-6.5,2-13,3.6-19.5c0.9-3.2,1.8-6.4,3-9.5
			c0.6-1.6,1.3-3,2-4.4c0.6-1.1,1.2-2.1,1.9-2.8c3.5,1.2,7.5,2.7,13.1,4.5c0,0,0,0,0,0c0.1,0,0.1,0,0.2,0.1c0.2,0.1,0.3,0.1,0.5,0.2
			c0.3,0.1,0.6,0.2,0.9,0.3c-2.4,1.6-4.3,4-5.4,6.3c-2.6,5.4-1.1,8.4,3.1,8.3c4.4-0.1,9-4.1,11-8.3c0.6-1.2,1-2.3,1.1-3.3
			c5.5,1.5,11.3,2.6,17,2.7c17.4,1,27.4-5,31.7-12.4c3.8-6.5,1.3-15.5-3.6-18.8c-3.1-2.1-11-5.2-21.5,0.9c-3.8,2.2-5.9,5.8-6.6,10.3
			c-0.1,0.6,0.2,1.7,1,0.7c1-1.3,3.3-2.5,6-2.5c3.9-0.1,6,2.4,6.3,5c0.2,2.6-1.5,6.6-5.4,8.5c-3.9,1.8-13.1,4.3-26.8,0.6
			c-4.3-1.2-9.2-2.8-15.2-4.6c-0.7-0.2-1.4-0.4-2.1-0.7c-0.4-0.2-0.9-0.3-1.4-0.5c-1-0.4-2-0.7-3.1-1h0l-0.2-0.1l0,0
			c-0.2-0.1-0.4-0.1-0.7-0.2c0,0-1,0.6-1.9,1.1c-1.4,0.7-2.6,1.7-3.7,2.6c-1.5,1.4-2.8,2.9-4,4.4c-2.4,3.1-4.4,6.4-6.1,9.7
			c-3.5,6.7-6.1,13.8-8,21c-0.9,3.4-2,6.7-2.8,10.1c-0.8,3.4-1.6,6.7-2.2,10.1c-0.6,3.4-1,7-1.6,10.2c-0.6,3-1.2,6.2-2.1,9.2
			c-1.8,6.1-4.1,12.1-8.2,17.2c-2,2.6-4.5,4.7-7.1,6.8c-3.8,2.9-14.6,7.5-21.1,4.4c-6.6-3.1-10.3-12.9-6-20.6c2-3.5,6.2-5.2,9.4-2.6
			c1.4,1.2,2.4,3.3,2.1,5.3c-0.1,1-1.3,2.1-0.1,2.2c1.2,0.1,4-2.8,4.7-3.6c1.5-1.6,2.5-3.6,3-5.7c1.1-4.6-1.1-9-4.4-11.7
			c-5.7-4.7-14.1-4.9-20.8-0.4c-7.5,5.1-11.2,15.2-9.2,23.4C-580.4-16.3-578.9-13.5-577-11.2"/>
		<path id="Fill-38_2_" class="st14" d="M-350.1-49.3c-0.7,0.6-1.3,1.1-1.7,1.4c-0.4,0.3-0.6,0.4-0.7,0.5c-0.1,0.1-0.2,0.2-0.2,0.4
			c0,0.2,0.2,0.3,0.4,0.3c0.2,0,0.3,0,0.9-0.2c0.5-0.2,1.3-0.5,2.2-0.9c0.9-0.4,1.9-1,3-1.7c1.1-0.7,2.1-1.6,3.1-2.7
			c4.5-4.9,5.3-9.8,3.7-12.8c-1-1.9-2.7-2.8-5.1-2.7c-4.1,0.2-6.9,3.7-7.3,6.9c-0.7,4.4,1.6,7.3,5.3,6.4c0.2-0.1,0.4-0.1,0.6-0.2
			c-0.1,0.1-0.1,0.3-0.2,0.4C-347.1-52.4-348.7-50.5-350.1-49.3"/>
		<path id="Fill-40_2_" class="st14" d="M-431.2-8c0,0.3,0.1,0.3,0.2,0c1.3-3.6,2.8-7.1,3.9-10.7c1.3-4.3,2.7-9.7-1.5-12.8
			c-2.4-1.8-5.7-1.6-8,0.2c-1.2,1-2.2,2.4-2.2,4.1c0,1,0.2,2,0.9,2.8c0.3,0.3,0.7,0.8,1.5,1.1c0.2,0.1,0.2-0.1,0.2-0.2
			c-1-2.7,2-5.3,4.3-3.3c2.3,2,2.2,6.2,1.9,9.6C-430.4-14.2-430.8-11.1-431.2-8"/>
		<path id="Fill-42_2_" class="st14" d="M-557.5-105c2.6-0.7,4.2-2.3,5.1-3c0.8-0.7,1.6-1.4,2.4-2c3.2-2.7,6.3-4.4,7.8-5.2
			c0.6-0.3,0.6-0.5-0.2-0.4c-1,0.1-2.4,0.4-4,1.1c-1.6,0.6-3.3,1.4-5.2,2.3c-0.9,0.4-1.9,0.9-2.8,1.3c-1,0.4-2,0.7-2.8,0.7
			c-1.2,0.1-2.9-0.5-3.4-1.7c-0.2-0.5-0.5-1.5,0.5-2.4c0.4-0.4,0.8-0.5,1.2-0.6c0.4-0.1,0.8-0.1,1.1-0.1c0.3,0,0.4-0.1,0.2-0.3
			c-0.2-0.2-0.5-0.5-1-0.8c-0.5-0.3-1.3-0.5-2.2-0.4c-0.5,0-2,0.3-3.2,1.5c-1.5,1.5-2.4,5-0.7,7.6
			C-563.3-105.4-560.1-104.3-557.5-105"/>
		<path id="Fill-44_2_" class="st14" d="M-562.7,110.2c-3-1.5-7.3-3.1-7.6-6.3c-0.3-3,3.8-3.7,4.8-1.5c0.1,0.1,0.3,0.2,0.3,0
			c0.6-1.8-0.5-3.7-2.1-4.6c-2-1.1-4.6-0.5-6.3,0.9c-2,1.8-2.7,4.6-2,7.2c1.3,4.9,6.7,5.6,10.8,6.6c3.9,1,7.6,2.1,10.8,4.7
			c0.1,0.1,0.2,0,0.1-0.1C-556.1,114-559.3,112-562.7,110.2"/>
		<g id="Group-48_2_" transform="translate(95.000000, 353.000000)">
			<path id="Fill-46_2_" class="st14" d="M-454.1-208.8c-3.8-3.2-10.8-4.2-15.8-1.3c-4.9,2.8-8.2,10.6-3.5,15.3
				c1.1,1.1,2.6,1.8,4.1,2.1c0.7,0.2,2.4,0.4,3.1,0.1c0.7-0.3,0.1-0.5-0.3-1c-2.3-2.8,0.7-6.9,3.8-7c5-0.2,4.9,5.7,3.2,8.9
				c-1.9,3.4-5.2,6.4-8.8,7.9c-8.6,3.6-18.4,3.5-27.4,2.5c-9.9-1.1-17.8-2.6-29.3-5c-9.8-2.1-19.5-4.6-29.2-7
				c-9.3-2.2-19-4.5-28.6-4c-7.3,0.4-15,2.6-20.8,7.3c-5.7,4.6-9.1,12.3-9,19.6c0.1,8,4.7,15.7,12,19c5.6,2.5,13,2.2,18-1.7
				c3.1-2.4,4.8-6.1,4.9-10c0-1.7-0.2-3.5-0.7-5.1c-0.2-0.6-0.8-3.2-1.7-3c-0.4,0.1-0.6,1.7-0.9,2.3c-0.7,1.3-1.9,2.2-3.3,2.8
				c-3.7,1.6-7.7,0-9.3-3.7c-2.9-6.7,1.3-13.4,7-16.9c4.1-2.5,9.2-3.6,13.9-4c12.3-1.1,30.5,4.1,40.7,6.2c9.7,1.9,20.1,4.1,29.8,5.6
				c9.6,1.4,19.2,2.7,28.9,1.2c8.4-1.4,16-5.2,21.1-12.4C-448.4-195.7-449.3-204.7-454.1-208.8"/>
		</g>
		<path id="Fill-49_2_" class="st14" d="M-402.9,10.9c2.4-5.9,5-10.5,7.5-13.6c2.4-2.7,3.9-3.5,5.9-4.2c2.7-0.9,3.4,1.7,2.1,6.8
			c-1.6,5.9-4.2,11.3-8,16.1c-3.5,4.5-7.3,7-9.6,1.6C-404.1,14.4-403.2,11.9-402.9,10.9 M-401.7,56.5c14.3-1.7,17.5-12.7,17.8-16.3
			c0.4-5.3-2.3-9.9-7.1-10.8c-3.3-0.6-6.7,1.1-8.5,3.5c-1.3,1.7-1.8,3.6-1.5,5.8c0.2,2.2,1.4,3.9,3.4,5.2c0.2,0.2,0.4,0.2,0.6,0
			c0.1-0.1,0.2-0.3,0.1-0.4c-0.9-2.6,0.8-4.5,2.1-5.3c4.4-2.6,7.7,0.7,7.6,3.6c-0.1,4.5-4.1,9.8-9.2,10.2c-5.4,0.4-7.7-3.9-8.5-5.5
			c-3.1-5.9-2.4-15.1-1.2-23.7c0.1,0.1,0.2,0.1,0.3,0.2c4.6,3.4,10,2.9,16.1-1.6c4.9-3.8,8.2-8.7,10.1-14.7
			c2.2-7.4,0.7-12.7-4.4-16.1c-1.3-0.8-2.8-1.3-4.5-1.3c1-1.2,2-2.5,2.8-3.9c3.3-6.1,3.3-11.3,0.2-15.7c-3.2-4.3-8.3-6-13.8-5.3
			c-5.4,0.6-12.6,3-18.6,9.2c-1.5,1.6-8.7,7.1-13.3,26.7c-0.3,0.9-0.5,1.9-0.7,2.8l-6.1,31.4l-13.7-55c-0.5-2.5,0.2-4.8,1.8-6.9
			c0.4-0.7,0.2-1-0.5-0.9c-1.3,0.3-33.4,5.3-33.4,5.3c-11.1,1.7-25.5,3.9-32.3,16.3c-5.4,9.9-0.2,22.6,10.3,23.4
			c3.8,0.3,9.6-1.1,12.4-3.8c2.8-2.7,4.4-5,4.8-8.7c0.3-3-0.5-5.4-2.5-7.4c-2-2-4.8-2.7-8.6-2.1c-1.1,0.2-1.3,0.7-0.6,0.9
			c1.2,0.3,2.2,1.3,2.1,3.2c-0.1,2.3-1.3,4.1-3.1,5.1c-1.8,1-5.1,1.4-7-0.8c-1.9-2-2.3-5.2-1.1-8.6c3.1-8.8,12.1-11.6,23.7-13.4
			l16.9-2.6l2.4,8.2L-469-1l-9.8,51.2l-0.7,3.4l-0.9,3.3c-0.6,2-1.3,4.2-2.3,6.4c-1.8,4.4-8.8,16.6-19.3,18.2
			c-6.1,0.9-11.2-0.5-14.2-4.1c-0.1-0.1-0.1-0.2-0.2-0.2c-0.2-0.3-0.4-0.5-0.6-0.8c-0.1-0.1-0.1-0.2-0.1-0.2
			c-0.8-1.2-1.3-2.7-1.6-4.3c0-0.3-0.1-0.6-0.1-0.9c-0.7-9.8,6.1-14.9,11.4-15.8c2.6-0.4,5.9,1.2,4.9,5.1c-0.6,2.3-2.3,3.9-4.3,4.6
			c-1.4,0.5-2.1,0.3-2.8,0.1c-0.5-0.2-1,0.4-0.6,0.7c0.6,0.6,1.2,1.2,3,1.9c1.7,0.6,4.3,0.9,7.2,0.2c3-0.7,6.5-2.3,9.4-5.9
			c1.4-1.8,2.7-4,3.4-6.9c0.6-2.8,0.5-6.4-1.1-9.2c-0.4-0.7-0.7-1.3-1.4-2.1c-0.3-0.4-0.6-0.7-1-1.1l-0.4-0.4
			c-1.1-1-2.5-1.9-3.9-2.6c-2.9-1.4-6.3-1.9-9.4-1.5c-6.2,0.7-11.2,3.9-14.9,7.5c-3.7,3.5-6.1,7.9-7.9,12.4
			c-1.1,2.8-1.5,5.8-1.6,8.8c0,0,0,0,0,0c0,0.5,0,0.9,0,1.4c0,0.2,0,0.4,0,0.7c0,0.5,0.1,0.9,0.1,1.4c0,0.2,0.1,0.4,0.1,0.7
			c0.1,0.3,0.1,0.7,0.1,1c0.1,0.3,0.2,0.6,0.3,0.9c0.1,0.4,0.2,0.9,0.4,1.3c0.1,0.4,0.3,0.9,0.4,1.3c4.5,12.4,16.9,12.6,22.3,11.8
			c16.5-2.6,22.6-14.5,26-21.8c1.1-2.4,1.9-4.8,2.6-7.1l1-3.6l0.8-3.5l10.6-55.6l19.4,66c0.9,1.3,2,1.8,3.1,1.5
			c1.2-0.3,2-1.1,2.4-2.3l3.2-16.2l0-0.1l6.9-35.2l0.7-3.2c2-8.5,3.8-12.4,8.3-18.5c4.5-6,11.2-8.9,16.5-8.9c5.6,0,8.1,4.5,7.4,7.8
			c-0.6,2.8-2.2,5.8-4.4,7.2c0,0,0,0,0,0.1c-2.2,1.5-4.3,3.4-6.5,5.7c-2.2,2.3-4.3,5.2-6.3,8.5c-0.4,0.6-0.8,1.4-1.3,2.4
			c-1.6,2.9-3.1,6.2-4,10c-4.2,17.9-0.4,28.3,3.8,32.4C-411,56.2-406.3,57-401.7,56.5"/>
		<path id="Fill-51_2_" class="st14" d="M-334-41.2c-4.8,7-2.8,16.8,6.1,16.8c0.3,0,0.4-0.3,0.3-0.5c-1.2-1.9-0.5-5.1,1.2-6.8
			c2.7-2.8,6-3.1,8.5-1.9c1.2,0.6,4.3,2.4,4.2,8.4c-0.1,4.8-2.7,11.6-10.4,26.4c0,0.1-0.1,0.1-0.1,0.2c-2.7,5.1-5.3,10.1-8.5,16.4
			c-0.7-9.5-1.8-24-1.8-24.1c0.1-4.2,0.8-7.2,2.3-8.9c0.3-0.4,0.2-0.6,0-0.7l-18,2.8c-0.3,0.1-0.4,0.3-0.5,0.6
			c-0.1,0.2,0,0.4,0.3,0.6c1.8,1,2.9,3.5,3.3,7.6c0,0.1,0.3,2.6,0.7,6.2l-10.2,19.6l-1.7-24c0.1-4.2,0.9-7.2,2.4-8.9
			c0.2-0.2,0.2-0.4,0.2-0.5c-0.1-0.1-0.2-0.2-0.4-0.1l-17.9,2.8c-0.4,0.1-0.6,0.3-0.7,0.6c-0.1,0.2,0,0.4,0.3,0.6
			c1.7,0.9,2.9,3.4,3.3,7.6c0.2,1.4,5,45,5,45c0.1,0.5,0.5,0.7,1.1,0.7c0.6-0.1,1-0.4,1.3-1l6.6-13.1l11.3-21.7
			c1.1,9.4,2.4,21.4,3.1,27.5l-2.5,4.9c-4.3,8.4-5.1,15.2-2.2,20.3c3.2,5.7,10.1,7.4,13.3,7.4c1.3,0,2.5-0.1,3.7-0.2
			c7.1-1.1,14.4-6.1,17.5-13c2.5-5.5,1.8-10.8-0.3-13.8c-1.1-1.6-3.7-3.3-6.3-3.7c-2.9-0.4-6.8,0.4-9.9,3.5
			c-2.8,2.8-3.4,6.4-2.8,8.8c0.9,3.5,4,3.8,5.1,3.7c0.3,0,0.2-0.2,0.1-0.4c-0.4-0.6-0.5-1.9,0.3-3.2c1.3-2.1,4.6-3.1,6.3-2.4
			c2.1,0.9,3.3,3.5,2.3,6.6c-1.4,4.5-5.6,9.4-14.8,9.7c-3.5,0.1-8.4-1-10.9-5.4c-2.2-3.8-1.4-9.3,2.2-16.3l9-17.3
			c3.7-7.1,6.6-12.6,9.3-17.8c3-5.5,6.2-11.4,6.2-11.5c5.9-11.2,9.1-19.3,10-23.9c0.9-4,1.3-7,1.2-9c-0.4-5.3-2.5-8.9-6.4-10.9
			c-3.9-1.9-8-2.2-12.3-0.9C-328.8-46.7-331.9-44.3-334-41.2"/>
	</g>
</g>
<g id="Layer_2" class="st2">
	<path id="divider" class="st18" d="M-237.5,225.8c0,0,0,0.1,0,0.1c0,0.1,0,0.2,0,0.4c0,0.2,0,0.3,0,0.5c0.1,0.1,0.1,0.2,0.1,0.4
		c0,0,0,0,0,0.1c0,0.2,0.1,0.4,0.1,0.6c0,0,0,0.1,0,0.1c0.1,0.1,0.1,0.2,0.1,0.3c0,0,0,0.1,0.1,0.1c0,0,0.1,0.1,0.1,0.1
		c0,0.2,0.1,0.4,0.2,0.6c0.1,0.1,0.1,0.2,0.2,0.3c0.1,0.1,0.1,0.2,0.2,0.3c0.1,0.1,0.2,0.2,0.2,0.3c0.1,0.1,0.1,0.2,0.2,0.4
		c0,0.1-0.1,0.2-0.1,0.3c0,0-0.1,0.1-0.1,0.1c-0.1,0.1-0.1,0.3-0.2,0.4c0,0.1-0.1,0.2-0.1,0.3c-0.1,0.3-0.2,0.5-0.4,0.8
		c0,0.1-0.1,0.1-0.1,0.2c-0.2,0.3-0.3,0.6-0.4,0.9c0,0.1-0.1,0.2-0.2,0.3c0,0-0.1,0.1-0.1,0.1c-0.1,0.3-0.2,0.5-0.3,0.8
		c0,0,0,0.1-0.1,0.1c-0.1,0.1-0.1,0.2-0.1,0.3c0,0.1,0,0.1-0.1,0.1c-0.1,0-0.1,0-0.2,0c0,0,0-0.1,0-0.1c0,0,0-0.1,0-0.1
		c-0.2-0.3-0.4-0.7-0.6-1.1c-0.1-0.2-0.2-0.3-0.3-0.5c-0.1-0.2-0.2-0.4-0.3-0.6c-0.1-0.2-0.2-0.4-0.3-0.6c-0.2-0.3-0.3-0.7-0.5-1
		c-0.1-0.1-0.2-0.3-0.2-0.5c0-0.1,0-0.1,0-0.2c0.1-0.1,0.2-0.2,0.3-0.3c0,0,0.1-0.1,0.1-0.1c0,0,0.1-0.1,0.1-0.1
		c0.1-0.2,0.2-0.4,0.4-0.7c0.1-0.2,0.2-0.3,0.2-0.5c0.1-0.2,0.1-0.4,0.2-0.5c0.1-0.2,0.1-0.3,0.2-0.5c0-0.1,0.1-0.2,0.1-0.3
		c0,0,0-0.1,0-0.1c0.1-0.3,0.1-0.6,0.2-0.8c0-0.1,0-0.2,0.1-0.2c0-0.1,0-0.1-0.1-0.1c-0.1,0-0.1,0-0.2,0c-0.1,0-0.1,0-0.2,0
		c0,0,0,0,0,0.1c0,0.2-0.1,0.4-0.1,0.7c-0.1,0.2-0.1,0.5-0.2,0.7c0,0.1,0,0.1-0.1,0.2c-0.1,0.1-0.1,0.3-0.1,0.4c0,0.1,0,0.2-0.1,0.3
		c-0.1,0.2-0.2,0.4-0.3,0.6c-0.1,0.2-0.3,0.4-0.4,0.6c-0.2,0.2-0.3,0.4-0.6,0.6c-0.2,0.1-0.4,0.3-0.6,0.4c-0.2,0.1-0.3,0.1-0.5,0.2
		c-0.1,0-0.2,0-0.2,0c-0.2,0.1-0.5,0.1-0.7,0.1c-0.2,0-0.3-0.1-0.5-0.1c-0.1,0-0.1,0-0.2-0.1c0,0-0.1,0-0.1,0
		c-0.2-0.1-0.3-0.2-0.5-0.3c-0.1-0.1-0.1-0.1-0.2-0.2c-0.2-0.3-0.2-0.5-0.2-0.8c0-0.1,0-0.3,0-0.4c0-0.2,0-0.4,0.1-0.6
		c0-0.2,0.1-0.3,0.2-0.5c0.1-0.3,0.3-0.5,0.5-0.7c0.1-0.1,0.2-0.1,0.3-0.2c0,0,0.1,0,0.1,0c0.1,0,0.1,0,0.1,0.1
		c0,0.2,0.1,0.3,0.1,0.5c0,0.2,0.1,0.3,0.2,0.5c0.1,0.2,0.3,0.3,0.5,0.4c0.2,0.1,0.3,0.1,0.5,0.1c0,0,0.1,0,0.1,0
		c0.1-0.1,0.2-0.1,0.3-0.2c0.1-0.1,0.2-0.2,0.3-0.3c0.3-0.2,0.4-0.5,0.6-0.8c0.1-0.2,0.2-0.4,0.3-0.6c0-0.1,0-0.1,0-0.2
		c0,0-0.1,0-0.1,0c-0.2,0.1-0.3,0-0.5,0c0,0,0,0,0,0c-0.1-0.1-0.1-0.1-0.1-0.2c0-0.1,0-0.1-0.1-0.2c-0.1-0.1-0.1-0.2-0.1-0.3
		c0,0,0-0.1,0-0.1c0-0.1,0-0.2,0-0.2c0-0.1,0-0.2,0-0.2c0,0,0-0.1,0-0.1c0-0.1,0.1-0.2,0.1-0.3c0-0.1,0.1-0.2,0.2-0.2
		c0.1,0,0.1,0,0.1,0c0.1-0.1,0.3-0.1,0.4-0.2c0.1-0.1,0.3-0.1,0.4-0.1c0.1,0,0.1,0,0.2,0c0-0.1,0-0.2,0-0.2c0,0,0-0.1,0-0.1
		c0-0.5-0.1-0.9-0.2-1.3c0-0.2-0.1-0.4-0.2-0.5c0-0.1-0.1-0.2-0.1-0.3c0-0.1-0.1-0.1-0.1-0.1c-0.1-0.3-0.3-0.5-0.5-0.7
		c0,0-0.1-0.1-0.1-0.1c-0.1-0.1-0.2-0.2-0.3-0.2c-0.1,0-0.2-0.1-0.2-0.2c-0.1,0-0.1-0.1-0.2-0.1c-0.1,0-0.2-0.1-0.3-0.2
		c-0.1-0.1-0.3-0.1-0.4-0.2c-0.3-0.1-0.6-0.1-0.9-0.1c-0.1,0-0.2,0-0.3,0c0,0-0.1,0-0.1,0c-0.3,0-0.5,0.1-0.8,0.1
		c-0.1,0-0.2,0.1-0.3,0.1c-0.1,0.1-0.2,0.1-0.3,0.2c-0.1,0-0.2,0.1-0.3,0.2c-0.2,0.2-0.4,0.3-0.5,0.5c-0.2,0.2-0.3,0.5-0.4,0.8
		c0,0.1-0.1,0.2-0.1,0.3c0,0,0,0.1,0,0.1c0,0.1,0,0.2,0,0.3c0,0.2,0,0.5,0,0.7c0,0.1,0,0.1,0,0.2c0.1,0.3,0.3,0.6,0.6,0.9
		c0.2,0.1,0.2,0.3,0.4,0.4c0,0,0.1,0.1,0.1,0.1c0,0.1-0.1,0.1-0.2,0.1c-0.1,0-0.1,0-0.2,0c-0.3,0-0.6,0-1,0c-0.2,0-0.4,0-0.6-0.1
		c-0.1,0-0.1,0-0.2,0c-0.2,0-0.4-0.1-0.6-0.2c-0.2-0.1-0.3-0.1-0.5-0.2c-0.2-0.1-0.4-0.2-0.6-0.4c-0.4-0.3-0.7-0.8-1-1.2
		c-0.2-0.3-0.4-0.7-0.5-1.1c-0.1-0.2-0.1-0.4-0.1-0.6c0-0.2,0-0.4,0-0.6c0-0.1,0-0.3,0-0.4c0,0,0-0.1,0-0.1c0-0.2,0.1-0.5,0.1-0.7
		c0-0.1,0-0.2,0.1-0.3c0,0,0,0,0,0c0.1-0.4,0.3-0.7,0.5-1.1c0.1-0.1,0.1-0.2,0.2-0.3c0,0,0-0.1,0-0.1c0-0.1,0-0.1,0.1-0.1
		c0.1-0.1,0.3-0.2,0.4-0.3c0.2-0.2,0.4-0.3,0.6-0.5c0.2-0.2,0.5-0.3,0.7-0.4c0.2-0.1,0.4-0.2,0.6-0.2c0,0,0,0,0.1,0
		c0.2-0.1,0.4-0.1,0.5-0.2c0.1,0,0.2-0.1,0.3-0.1c0.1,0,0.2,0,0.3,0c0,0,0,0,0.1,0c0.2,0,0.5,0,0.7,0c0.1,0,0.3,0,0.4,0.1
		c0.1,0,0.2,0,0.4,0.1c0.2,0,0.3,0.1,0.5,0.1c0.2,0,0.4,0.1,0.7,0.2c0,0,0.1,0,0.1,0c0.2,0,0.4,0.2,0.6,0.2c0.2,0.2,0.5,0.2,0.6,0.4
		c0,0,0.1,0.1,0.1,0.1c0.1,0.1,0.2,0.1,0.3,0.2c0.1,0.1,0.2,0.1,0.2,0.2c0,0,0,0,0,0c0.2,0.2,0.4,0.2,0.5,0.4
		c0.1,0.1,0.2,0.2,0.3,0.3c0.1,0,0.1,0.1,0.2,0.2c0.1,0.1,0.2,0.2,0.3,0.3c0,0,0,0,0.1,0.1c0.1,0.2,0.2,0.3,0.4,0.5
		c0.1,0.1,0.1,0.2,0.1,0.2c0.2,0.3,0.4,0.7,0.5,1c0,0,0,0.1,0,0.1c0.1,0.2,0.2,0.3,0.2,0.5c0,0.1,0.1,0.2,0.1,0.3c0,0.1,0,0.1,0,0.2
		c0,0.1,0,0.1,0,0.2c0.1,0.3,0.1,0.5,0.2,0.8c0.1,0.2,0.1,0.5,0.1,0.8c0,0.2,0,0.3,0,0.5c0,0.2,0,0.3,0,0.5c0,0,0,0.1,0,0.1
		c0.1,0,0.2,0,0.4,0c0.1,0,0.1,0,0.1-0.1c0,0,0,0,0,0c-0.1-0.2,0-0.5,0-0.7c0-0.1,0-0.2,0-0.2c0,0,0-0.1,0-0.1
		c0-0.3-0.1-0.6-0.2-0.9c0-0.2-0.1-0.5-0.2-0.7c0-0.1-0.1-0.3-0.1-0.4c0-0.3-0.1-0.5-0.3-0.8c0-0.1-0.1-0.2-0.1-0.3
		c-0.1-0.1-0.1-0.3-0.1-0.4c0-0.1,0-0.1,0-0.2c-0.1-0.2-0.2-0.4-0.4-0.6c-0.1-0.1-0.1-0.2-0.2-0.3c0,0,0-0.1-0.1-0.1
		c-0.1-0.1-0.2-0.2-0.3-0.4c-0.1-0.2-0.2-0.4-0.4-0.6c-0.1-0.1-0.2-0.3-0.3-0.4c-0.1-0.2-0.2-0.4-0.3-0.6c0,0,0-0.1-0.1-0.1
		c0-0.1-0.1-0.1-0.1-0.2c0-0.1-0.1-0.2-0.1-0.2c0,0,0,0,0-0.1c-0.1-0.3-0.2-0.6-0.4-0.9c-0.1-0.1-0.1-0.3-0.1-0.5
		c-0.1-0.3-0.1-0.5-0.2-0.8c0,0,0-0.1,0-0.1c0-0.5-0.1-1,0-1.5c0-0.3,0.1-0.6,0.2-0.9c0-0.1,0.1-0.1,0.1-0.2
		c0.1-0.3,0.2-0.5,0.3-0.8c0.1-0.1,0.1-0.2,0.2-0.3c0.1-0.2,0.3-0.5,0.4-0.7c0.1-0.1,0.1-0.2,0.2-0.2c0.2-0.2,0.3-0.3,0.4-0.5
		c0.1-0.1,0.1-0.2,0.2-0.3c0,0,0-0.1,0.1-0.1c0.1-0.2,0.3-0.4,0.4-0.6c0.1-0.2,0.3-0.4,0.4-0.6c0.1-0.2,0.2-0.4,0.3-0.5
		c0-0.1,0.1-0.2,0-0.2c0.1-0.3,0.3-0.6,0.4-0.8c0.1-0.1,0.1-0.3,0.2-0.4c0-0.1,0.1-0.2,0.1-0.3c0,0,0,0,0,0c0.1-0.2,0.2-0.4,0.3-0.6
		c0.1-0.1,0.1-0.3,0.2-0.4c0.1-0.1,0.1-0.2,0.2-0.4c0-0.1,0.1-0.1,0.1,0c0,0,0,0,0,0.1c0.1,0.2,0.1,0.3,0.2,0.5
		c0.1,0.2,0.2,0.4,0.2,0.6c0.1,0.2,0.2,0.4,0.2,0.5c0,0.1,0.1,0.2,0.1,0.3c0,0.1,0.1,0.1,0.1,0.2c0.1,0.1,0.2,0.2,0.2,0.4
		c0.1,0.2,0.2,0.4,0.3,0.7c0.1,0.1,0.2,0.3,0.2,0.4c0.1,0.2,0.2,0.4,0.3,0.6c0.1,0.2,0.2,0.4,0.3,0.6c0.1,0.2,0.3,0.5,0.4,0.7
		c0,0,0,0,0,0.1c0.1,0.1,0.2,0.2,0.2,0.3c0,0,0,0,0,0c0.1,0.2,0.3,0.4,0.5,0.6c0.1,0.2,0.2,0.4,0.3,0.6c0.1,0.2,0.2,0.4,0.2,0.6
		c0.1,0.1,0.1,0.3,0.1,0.4c0,0,0,0.1,0,0.1c0.1,0.3,0.1,0.6,0.2,1c0,0.2,0,0.4,0,0.6c0,0.1,0,0.3,0,0.4c0,0.2,0,0.4,0,0.5
		c0,0.1,0,0.3,0,0.4c0,0.1,0,0.2-0.1,0.3c0,0,0,0.1-0.1,0.2c-0.1,0.2-0.2,0.4-0.3,0.6c-0.1,0.3-0.3,0.6-0.4,0.9
		c-0.1,0.1-0.1,0.3-0.2,0.4c-0.1,0.2-0.2,0.4-0.3,0.6c-0.1,0.1-0.2,0.3-0.2,0.4c0,0.1-0.1,0.1-0.1,0.2c-0.1,0.2-0.3,0.4-0.5,0.7
		c-0.1,0.1-0.1,0.2-0.2,0.3c-0.2,0.2-0.3,0.5-0.4,0.7c-0.1,0.2-0.2,0.5-0.3,0.7c-0.1,0.3-0.2,0.5-0.3,0.8c0,0.1,0,0.2-0.1,0.3
		c0,0.1-0.1,0.2-0.1,0.4c0,0.2-0.1,0.4-0.1,0.7c0,0.1,0,0.2-0.1,0.3c0,0.1,0,0.3-0.1,0.4c-0.1,0.3-0.1,0.5-0.1,0.8
		c0,0.2,0,0.3,0,0.5c0.1,0,0.2,0,0.4,0c0-0.1,0.1-0.3,0.1-0.4c0-0.1,0-0.2,0-0.3c0-0.1,0-0.3,0.1-0.4c0-0.1,0-0.1,0-0.2
		c0-0.2,0.1-0.5,0.2-0.7c0.1-0.4,0.2-0.7,0.3-1.1c0-0.1,0.1-0.2,0.1-0.3c0.1-0.2,0.1-0.3,0.2-0.5c0-0.1,0.1-0.3,0.2-0.4
		c0,0,0-0.1,0.1-0.1c0.1-0.1,0.1-0.2,0.2-0.3c0.2-0.4,0.5-0.7,0.8-1c0.2-0.2,0.3-0.4,0.6-0.6c0.1-0.1,0.2-0.2,0.3-0.3
		c0.1-0.1,0.1-0.1,0.2-0.2c0.1-0.1,0.1-0.1,0.2-0.1c0.1,0,0.1-0.1,0.2-0.1c0.2-0.2,0.5-0.4,0.8-0.5c0.1-0.1,0.3-0.1,0.4-0.2
		c0.1,0,0.2-0.1,0.3-0.1c0,0,0.1,0,0.1,0c0.2-0.1,0.3-0.1,0.5-0.2c0.3-0.1,0.5-0.2,0.8-0.2c0.1,0,0.2,0,0.2,0c0.1,0,0.2,0,0.3,0
		c0.1,0,0.2,0,0.3,0c0.2,0,0.4,0,0.7,0c0.2,0,0.4,0.1,0.7,0.1c0,0,0,0,0,0c0.1,0.1,0.3,0.1,0.4,0.1c0.2,0.1,0.5,0.1,0.7,0.3
		c0.1,0,0.2,0.1,0.3,0.1c0.2,0,0.5,0.3,0.6,0.4c0,0.1,0.1,0.1,0.1,0.1c0.2,0.2,0.4,0.4,0.6,0.6c0.1,0.1,0.2,0.2,0.3,0.4
		c0.2,0.3,0.3,0.6,0.4,0.9c0,0.1,0,0.1,0.1,0.2c0,0.1,0.1,0.2,0.1,0.3c0,0.1,0,0.2,0.1,0.3c0,0,0,0.1,0,0.1c0,0.2,0,0.5,0.1,0.7
		c0,0.1,0,0.1,0,0.2c0,0.4,0,0.8-0.1,1.1c0,0.1,0,0.2-0.1,0.3c0,0.1-0.1,0.2-0.1,0.3c0,0.1-0.1,0.2-0.1,0.3c0,0,0,0.1,0,0.1
		c-0.1,0.4-0.3,0.6-0.6,0.9c-0.1,0.1-0.3,0.3-0.4,0.4c0,0-0.1,0-0.1,0.1c-0.1,0.2-0.3,0.2-0.4,0.4c-0.1,0.1-0.2,0.1-0.3,0.2
		c0,0-0.1,0-0.1,0c-0.2,0-0.3,0.1-0.5,0.1c-0.3,0.1-0.7,0.2-1,0.2c-0.2,0-0.3,0-0.5,0c-0.2,0-0.5,0-0.7,0c-0.1,0-0.2,0-0.3,0
		c0,0,0,0-0.1,0c0,0,0-0.1,0-0.1c0.1-0.1,0.2-0.2,0.3-0.3c0.1-0.1,0.2-0.2,0.3-0.4c0.1-0.1,0.2-0.3,0.3-0.5c0,0,0-0.1,0.1-0.1
		c0-0.1,0.1-0.1,0-0.2c0,0,0,0,0-0.1c0.1-0.2,0.1-0.5,0-0.7c0-0.1,0-0.2,0-0.2c0-0.1,0-0.1,0-0.2c-0.1-0.2-0.2-0.5-0.3-0.7
		c-0.1-0.1-0.2-0.3-0.3-0.4c0-0.1-0.1-0.1-0.1-0.2c0,0-0.1-0.1-0.1-0.1c-0.1-0.1-0.2-0.2-0.3-0.2c-0.1-0.1-0.3-0.2-0.4-0.3
		c0,0-0.1-0.1-0.2-0.1c-0.2-0.1-0.5-0.2-0.7-0.2c-0.1,0-0.2,0-0.2,0c-0.2,0-0.4,0-0.7,0c-0.3,0-0.6,0.1-0.9,0.2
		c-0.1,0-0.2,0.1-0.3,0.1c-0.1,0-0.2,0.1-0.3,0.1c-0.1,0-0.1,0.1-0.2,0.1c-0.1,0.1-0.2,0.1-0.3,0.2c0,0-0.1,0.1-0.1,0.1
		c-0.1,0.1-0.2,0.3-0.3,0.4c-0.1,0.1-0.1,0.1-0.2,0.2c-0.2,0.2-0.4,0.5-0.5,0.7c0,0,0,0,0,0.1c0,0.1-0.1,0.3-0.1,0.4
		c-0.1,0.3-0.1,0.5-0.2,0.8c0,0.2,0,0.4,0,0.6c0,0.1,0,0.2,0,0.3c0,0,0,0,0,0.1c0,0,0.1,0,0.1,0c0.1,0,0.3,0.1,0.4,0.2
		c0.1,0.1,0.2,0.1,0.3,0.1c0.2,0.1,0.3,0.2,0.4,0.3c0.1,0,0.1,0.1,0.1,0.2c0,0.1,0,0.2,0,0.4c0,0.1,0,0.2-0.1,0.4
		c-0.1,0.2-0.2,0.4-0.3,0.6c-0.1,0.2-0.3,0.2-0.4,0.1c-0.1,0-0.1,0-0.2-0.1c-0.1,0,0,0.1,0,0.1c0.1,0.2,0.1,0.4,0.2,0.6
		c0,0.1,0.1,0.1,0.1,0.2c0.1,0.2,0.2,0.3,0.3,0.4c0.1,0,0.1,0.1,0.1,0.2c0.1,0.2,0.2,0.3,0.4,0.4c0,0,0,0,0.1,0.1
		c0.1,0.1,0.3,0.2,0.4,0.2c0.1,0,0.5,0,0.5-0.1c0.1-0.1,0.2-0.1,0.3-0.2c0.1-0.1,0.2-0.2,0.2-0.3c0.1-0.2,0.2-0.4,0.2-0.6
		c0-0.1,0-0.1,0.1-0.2c0-0.1,0-0.1,0.1-0.1c0.1,0,0.1,0,0.2,0c0,0,0.1,0,0.1,0.1c0.1,0.1,0.1,0.2,0.2,0.2c0,0,0,0,0.1,0.1
		c0.1,0.2,0.2,0.3,0.3,0.5c0.1,0.2,0.2,0.5,0.3,0.8c0,0.1,0,0.1,0,0.2c0,0.1,0,0.3,0,0.4c0,0.2,0,0.3,0,0.5c0,0.1,0,0.1-0.1,0.2
		c0,0,0,0.1-0.1,0.1c0,0,0,0.1,0,0.2c0,0.1,0,0.1-0.1,0.2c-0.1,0-0.2,0.1-0.2,0.2c-0.1,0.1-0.3,0.2-0.4,0.3c-0.1,0-0.1,0.1-0.2,0.1
		c-0.1,0.1-0.3,0.1-0.4,0.1c-0.1,0-0.2,0-0.3,0c-0.1,0-0.1,0-0.2,0c-0.4-0.1-0.7-0.1-1.1-0.3c0,0-0.1,0-0.1,0
		c-0.1,0-0.1-0.1-0.2-0.1c0,0-0.1,0-0.1-0.1c-0.1-0.1-0.3-0.1-0.4-0.2c-0.3-0.4-0.6-0.7-0.8-1.2c-0.1-0.2-0.2-0.4-0.3-0.7
		c-0.1-0.2-0.1-0.5-0.2-0.7c-0.1-0.2-0.2-0.5-0.3-0.8c0-0.1,0-0.2-0.1-0.2c0-0.2-0.1-0.3-0.1-0.5c0-0.1-0.1-0.1-0.1-0.1
		C-237.3,225.8-237.4,225.7-237.5,225.8 M-236,208C-236,208-236,208-236,208C-236,208-236,208-236,208C-236,208-236,208-236,208
		C-235.9,208-236,208-236,208 M-238.3,203.6C-238.3,203.7-238.3,203.7-238.3,203.6c-0.1,0.3-0.2,0.4-0.3,0.6
		c-0.1,0.1-0.1,0.3-0.2,0.4c0,0.1-0.1,0.2-0.1,0.3c-0.2,0.4-0.4,0.7-0.5,1.1c0,0.1-0.1,0.1-0.1,0.2c-0.1,0.1-0.2,0.3-0.3,0.4
		c-0.1,0.1-0.1,0.2-0.1,0.3c-0.2,0.4-0.4,0.7-0.7,1.1c-0.2,0.3-0.5,0.7-0.7,1c-0.1,0.2-0.2,0.3-0.3,0.5c0,0,0,0.1,0,0.1
		c0,0.1,0,0.1-0.1,0.2c-0.1,0.2-0.2,0.4-0.3,0.6c0,0.1-0.1,0.2-0.1,0.3c0,0.1-0.1,0.2-0.1,0.2c0,0.2-0.1,0.4-0.1,0.7
		c0,0.3,0,0.7,0,1c0,0.2,0,0.4,0,0.5c0,0.3,0.1,0.5,0.2,0.8c0,0,0,0.1,0,0.1c0.1,0.3,0.2,0.5,0.3,0.8c0.1,0.1,0.1,0.3,0.2,0.4
		c0,0.1,0.1,0.2,0.1,0.2c0,0.1,0.1,0.2,0.2,0.3c0.1,0.1,0.1,0.2,0.2,0.3c0,0,0.1,0.1,0.1,0.1c0.1,0.2,0.2,0.3,0.3,0.4
		c0.1,0.2,0.2,0.3,0.3,0.5c0.1,0.1,0.1,0.2,0.2,0.3c0.1,0.1,0.2,0.2,0.2,0.3c0,0,0,0.1,0.1,0.1c0,0.1,0,0.1,0.1,0.1
		c0.1,0,0.1,0.1,0.1,0.2c0,0,0,0.1,0,0.1c0.1,0.1,0.1,0.2,0.2,0.3c0.1,0.2,0.2,0.3,0.2,0.5c0.1,0.2,0.2,0.3,0.2,0.5
		c0,0.1,0.1,0.2,0.1,0.3c0,0.1,0.1,0.2,0.1,0.3c0,0,0,0.1,0,0.1c0.1,0.2,0.1,0.4,0.2,0.6c0,0.2,0.1,0.4,0.1,0.6c0,0,0,0,0,0
		c0.1,0.1,0.1,0.3,0.1,0.4c0,0.2,0,0.3,0.1,0.5c0,0.1,0,0.2,0,0.3c0,0.1,0,0.3,0.1,0.4c0,0.1,0,0.2,0,0.2c0,0.2,0,0.4,0,0.6
		c0,0,0,0.1,0,0.1c0,0.1,0,0.1,0,0.2c0,0,0,0.1,0,0.1c0,0,0,0.1-0.1,0.1c0,0,0,0-0.1,0c-0.2,0-0.3,0-0.5,0c0,0-0.1,0-0.1,0
		c-0.1,0-0.2,0-0.3,0c-0.1,0-0.1,0-0.2,0c0,0-0.1,0-0.1-0.1c0-0.1,0-0.1,0-0.2c-0.1-0.1,0-0.2,0-0.3c0,0,0-0.1,0-0.1
		c0-0.2,0-0.4,0-0.7c0-0.1,0-0.2,0-0.3c0-0.2-0.1-0.4-0.1-0.6c-0.1-0.3-0.1-0.5-0.2-0.8c0-0.2-0.1-0.3-0.2-0.4
		c-0.1-0.2-0.3-0.4-0.3-0.6c-0.1-0.2-0.1-0.3-0.2-0.5c-0.1-0.2-0.2-0.3-0.3-0.5c-0.2-0.4-0.5-0.7-0.7-1c-0.1-0.2-0.3-0.3-0.5-0.5
		c-0.1-0.1-0.1-0.1-0.2-0.2c-0.1-0.1-0.1-0.1-0.2-0.1c-0.2-0.2-0.4-0.3-0.6-0.5c-0.1-0.1-0.2-0.1-0.4-0.2c-0.2-0.1-0.4-0.2-0.6-0.3
		c-0.1,0-0.1,0-0.2-0.1c-0.1,0-0.1,0-0.2-0.1c-0.2-0.1-0.3-0.1-0.5-0.2c-0.2-0.1-0.4-0.1-0.6-0.1c-0.1,0-0.2,0-0.3,0
		c-0.2,0-0.3-0.1-0.5-0.1c-0.3,0-0.6,0-0.9,0.1c-0.3,0-0.5,0.1-0.8,0.1c0,0-0.1,0-0.1,0c-0.2,0.1-0.3,0.1-0.5,0.2
		c-0.1,0-0.3,0.1-0.4,0.2c0,0-0.1,0.1-0.1,0.1c-0.3,0.2-0.5,0.3-0.7,0.6c-0.1,0.1-0.3,0.3-0.4,0.5c-0.1,0.1-0.2,0.2-0.2,0.3
		c-0.1,0.2-0.2,0.4-0.3,0.6c-0.1,0.2-0.1,0.4-0.2,0.6c0,0.1-0.1,0.3-0.1,0.4c0,0.2,0,0.5-0.1,0.7c0,0.1,0,0.1,0,0.2
		c0,0.1,0,0.2,0,0.2c0,0.3,0.1,0.5,0.2,0.8c0.1,0.4,0.3,0.8,0.5,1.2c0.1,0.1,0.1,0.2,0.2,0.3c0.1,0.1,0.2,0.2,0.4,0.3
		c0.2,0.2,0.4,0.3,0.6,0.4c0,0,0.1,0.1,0.1,0.1c0.1,0.1,0.2,0.1,0.3,0.2c0.1,0.1,0.2,0.1,0.3,0.2c0.1,0,0.2,0.1,0.4,0.1
		c0.1,0,0.2,0.1,0.3,0.1c0.2,0,0.4,0,0.6,0.1c0.1,0,0.2,0,0.3,0c0,0,0.1,0,0.1-0.1c-0.1-0.1-0.2-0.1-0.3-0.2
		c-0.2-0.1-0.3-0.2-0.5-0.3c-0.2-0.1-0.4-0.2-0.6-0.4c-0.1,0-0.1-0.1-0.1-0.2c0,0,0-0.1,0-0.1c-0.1-0.1-0.2-0.2-0.2-0.3
		c0,0-0.1-0.1-0.1-0.1c-0.2-0.2-0.3-0.4-0.4-0.7c0-0.1,0-0.1,0-0.2c0-0.1-0.1-0.2-0.1-0.3c0,0,0-0.1,0-0.1c0-0.1,0-0.3,0-0.4
		c0-0.3,0-0.5,0-0.8c0-0.1,0-0.2,0.1-0.3c0-0.1,0-0.1,0-0.2c0-0.1,0.1-0.2,0.1-0.4c0-0.1,0.1-0.1,0.1-0.2c0-0.1,0.1-0.2,0.2-0.2
		c0.1-0.2,0.3-0.4,0.5-0.5c0,0,0.1,0,0.1-0.1c0.2-0.1,0.3-0.2,0.5-0.3c0.2-0.1,0.3-0.2,0.5-0.2c0.2-0.1,0.4-0.2,0.6-0.2
		c0.1,0,0.2,0,0.3-0.1c0.1,0,0.2-0.1,0.3-0.1c0.1,0,0.1,0,0.2,0c0.1-0.1,0.3-0.1,0.5,0c0.3,0,0.6,0.1,1,0.2c0.2,0.1,0.4,0.1,0.6,0.2
		c0.2,0.1,0.3,0.1,0.5,0.2c0.2,0.1,0.4,0.2,0.7,0.3c0.2,0.1,0.4,0.2,0.6,0.3c0.1,0,0.1,0.1,0.2,0.1c0.3,0.2,0.5,0.5,0.7,0.8
		c0.2,0.3,0.4,0.5,0.5,0.8c0.1,0.1,0.1,0.3,0.2,0.4c0,0,0,0.1,0,0.1c0.2,0.3,0.3,0.7,0.3,1c0,0.1,0,0.2,0,0.2
		c0.1,0.2,0.1,0.4,0.2,0.6c0,0.1,0,0.1,0,0.2c0.1,0.2,0.1,0.4,0.1,0.6c0,0.2,0,0.4-0.1,0.7c0,0,0,0.1-0.1,0.1c-0.1,0-0.1,0-0.2,0.1
		c0,0,0,0-0.1,0c-0.2,0.1-0.3,0.1-0.5,0.2c-0.2,0.1-0.4,0.2-0.6,0.3c0,0-0.1,0.1-0.1,0.1c0,0.1,0,0.2,0,0.3c0,0.1,0,0.2,0.1,0.3
		c0.1,0,0.1-0.1,0.1-0.2c0.2-0.1,0.4-0.1,0.6-0.1c0,0,0.1,0,0.1,0c0.1,0,0.2-0.1,0.2-0.1c0.1,0,0.1,0,0.2,0c0.2,0,0.5-0.1,0.7-0.1
		c0.1,0,0.2,0,0.2,0c0.3-0.1,0.5-0.1,0.8-0.1c0.2,0,0.3,0,0.5,0c0.1,0,0.2,0,0.3,0c0.2,0,0.4,0,0.6,0.1c0.2,0,0.5,0.1,0.7,0.1
		c0.1,0,0.3,0.1,0.4,0.1c0,0,0.1,0,0.2,0.1c0.1,0,0.2,0.1,0.3,0.1c0.1,0,0.2,0.1,0.2,0.1c0.1,0,0.1,0.1,0.2,0.1c0,0,0.1,0,0.1,0
		c0.1-0.1,0.1-0.1,0.1-0.2c0-0.1,0-0.2,0-0.3c0,0,0-0.1,0-0.1c-0.1,0-0.2-0.1-0.2-0.2c0,0,0,0-0.1,0c-0.1,0-0.1-0.1-0.2-0.1
		c-0.1-0.1-0.2-0.1-0.4-0.2c0,0-0.1,0-0.1,0c-0.1-0.1-0.2-0.1-0.4-0.1c-0.1,0-0.1,0-0.2,0c0,0-0.1,0-0.1,0c0-0.1,0-0.2,0-0.2
		c0-0.1,0-0.1,0-0.2c0-0.1,0-0.1,0-0.2c0-0.4,0.1-0.8,0.2-1.3c0-0.1,0-0.2,0.1-0.3c0.1-0.4,0.2-0.7,0.4-1.1c0.1-0.3,0.2-0.5,0.4-0.8
		c0.1-0.2,0.3-0.4,0.4-0.6c0.1-0.1,0.2-0.3,0.3-0.4c0.1-0.1,0.1-0.2,0.2-0.2c0.1-0.1,0.2-0.2,0.3-0.3c0.1-0.1,0.3-0.3,0.5-0.4
		c0.2-0.1,0.5-0.2,0.7-0.3c0.2-0.1,0.4-0.1,0.6-0.2c0.2-0.1,0.5-0.1,0.7-0.2c0,0,0.1,0,0.1,0c0.3-0.1,0.6-0.1,0.8-0.1
		c0.3,0,0.6,0,0.9,0c0.2,0,0.4,0,0.6,0.1c0.2,0.1,0.4,0.1,0.5,0.2c0,0,0,0,0,0c0.2,0.1,0.3,0.2,0.5,0.3c0.2,0.1,0.3,0.3,0.5,0.5
		c0,0,0,0,0,0c0.1,0.1,0.1,0.2,0.2,0.3c0,0.1,0.1,0.1,0.1,0.2c0,0,0.1,0.1,0.1,0.1c0,0.1,0,0.1,0.1,0.1c0.1,0,0.1,0.1,0.2,0.2
		c0.1,0.2,0.1,0.4,0.1,0.6c0,0.1,0,0.1,0,0.2c0,0.1,0,0.2,0.1,0.2c0,0,0,0.1,0,0.1c0,0.1,0,0.2,0,0.4c0.1,0.2,0,0.3,0,0.5
		c0,0.1-0.1,0.2-0.1,0.3c0,0.1,0,0.1-0.1,0.2c-0.1,0.2-0.2,0.5-0.4,0.7c-0.1,0.1-0.2,0.2-0.3,0.4c-0.2,0.2-0.4,0.5-0.7,0.6
		c-0.1,0.1-0.2,0.1-0.3,0.2c-0.2,0.1-0.3,0.2-0.5,0.3c0,0,0,0,0,0.1c0.2,0,0.3,0,0.5,0c0.2,0,0.4,0,0.6-0.1c0.2-0.1,0.4-0.1,0.6-0.2
		c0.1,0,0.2-0.1,0.3-0.1c0,0,0.1,0,0.1-0.1c0.4-0.2,0.7-0.4,1-0.7c0.1-0.1,0.2-0.2,0.2-0.3c0.3-0.4,0.5-0.8,0.7-1.3
		c0.1-0.3,0.1-0.7,0.1-1.1c0-0.3,0-0.6,0-0.9c0-0.3-0.1-0.7-0.2-1c0,0,0-0.1,0-0.1c-0.1-0.2-0.1-0.4-0.2-0.6c0-0.1,0-0.1-0.1-0.2
		c-0.1-0.1-0.2-0.2-0.2-0.4c-0.1-0.1-0.2-0.2-0.3-0.3c-0.1-0.1-0.1-0.1-0.2-0.2c-0.2-0.1-0.3-0.3-0.5-0.3c0,0-0.1,0-0.1,0
		c-0.1-0.1-0.1-0.1-0.2-0.1c0,0,0,0-0.1,0c-0.1-0.1-0.2-0.2-0.4-0.2c-0.1-0.1-0.3-0.1-0.4-0.2c-0.3-0.1-0.6-0.2-0.8-0.2
		c-0.3,0-0.6-0.1-1,0c-0.4,0-0.7,0-1.1,0.1c0,0-0.1,0-0.1,0c-0.2,0.1-0.4,0.1-0.7,0.2c-0.1,0-0.2,0.1-0.2,0.1
		c-0.3,0.1-0.5,0.2-0.8,0.4c-0.2,0.1-0.4,0.3-0.6,0.4c-0.2,0.1-0.3,0.2-0.5,0.4c-0.1,0.1-0.1,0.2-0.2,0.2c-0.1,0-0.1,0.1-0.2,0.1
		c-0.1,0.1-0.2,0.3-0.4,0.4c-0.1,0.1-0.2,0.2-0.3,0.3c-0.1,0.1-0.2,0.3-0.3,0.4c0,0,0,0.1-0.1,0.1c-0.2,0.3-0.3,0.5-0.5,0.8
		c-0.2,0.3-0.3,0.6-0.4,0.9c-0.1,0.2-0.2,0.5-0.2,0.7c0,0.1,0,0.2-0.1,0.3c0,0.1-0.1,0.2-0.1,0.3c0,0.3-0.1,0.5-0.1,0.8
		c-0.1,0.3-0.1,0.7-0.1,1c0,0.1,0,0.1,0.1,0.2c0.1,0,0.1,0.1,0,0.1c0,0.1-0.1,0.1-0.1,0.1c0,0-0.1,0.1-0.1,0.1c-0.1,0-0.2,0-0.2,0
		c-0.1,0-0.2,0-0.4-0.1c-0.1,0-0.2,0-0.3,0c-0.1,0-0.3,0-0.4-0.1c0,0,0-0.1,0-0.1c0-0.1,0-0.1,0-0.1c0-0.2,0-0.4,0-0.7
		c0-0.3,0-0.5,0-0.8c0-0.1,0-0.2,0-0.3c0-0.1,0-0.2,0-0.3c0-0.3,0-0.7,0-1c0-0.2,0-0.3,0-0.5c0-0.3,0-0.5,0-0.8c0-0.2,0-0.4,0-0.6
		c0-0.4,0-0.8,0-1.2c0-0.1,0-0.3,0-0.4c0-0.1,0-0.3,0-0.4c0-0.1,0-0.3,0-0.4c0-0.2,0-0.4,0-0.6c0-0.1,0-0.2,0-0.3
		c0-0.1,0-0.2-0.1-0.2c0,0,0,0,0,0c0-0.1,0-0.2,0-0.3c0,0,0-0.1,0-0.1c0-0.1,0-0.2,0-0.3c0-0.1,0-0.2,0-0.2c0-0.1,0-0.2,0-0.3
		c0-0.1,0-0.2,0-0.3c0-0.2,0-0.4,0-0.6c0-0.1,0-0.2,0-0.3c0-0.3,0-0.6,0-0.9c0-0.2,0-0.4,0-0.6c0-0.1,0-0.3,0-0.4c0-0.1,0-0.3,0-0.4
		c0-0.2,0-0.3,0-0.5c0-0.1,0-0.1,0-0.2c0-0.4,0-0.7,0.1-1.1c0-0.1,0-0.3,0.1-0.4c0,0,0,0,0-0.1c0-0.2,0-0.3,0-0.5c0-0.2,0-0.4,0-0.5
		c0-0.2,0-0.4,0-0.6c0-0.2,0-0.4,0-0.6c0-0.1,0-0.2,0-0.3c0-0.1,0-0.2,0-0.3c0-0.2,0-0.3,0-0.5c0-0.1,0-0.2,0-0.3
		C-238.2,204.2-238.2,204-238.3,203.6C-238.2,203.7-238.2,203.7-238.3,203.6 M-238.4,225.4c0,0,0,0.1,0,0.1c0,0.2,0,0.4-0.1,0.5
		c0,0.2-0.1,0.5-0.2,0.7c0,0,0,0.1,0,0.1c0,0.2-0.1,0.5-0.2,0.7c-0.1,0.2-0.1,0.4-0.2,0.6c-0.1,0.2-0.1,0.4-0.3,0.6c0,0,0,0,0,0
		c-0.1,0.3-0.3,0.6-0.4,0.9c0,0,0,0.1-0.1,0.1c-0.1,0.2-0.2,0.3-0.3,0.5c-0.1,0.1-0.1,0.1,0,0.2c0.1,0.1,0.2,0.3,0.2,0.4
		c0.2,0.3,0.3,0.6,0.5,0.9c0.2,0.4,0.4,0.9,0.7,1.3c0.1,0.3,0.3,0.6,0.5,0.8c0,0,0,0.1,0.1,0c0-0.2,0-0.4,0-0.5c0-0.3,0-0.5,0-0.8
		c0-0.4,0-0.8,0-1.2c0,0,0-0.1,0-0.1c0-0.2,0-0.3,0-0.5c0-0.1,0-0.1,0-0.2c0-0.2,0.1-0.5,0-0.7c0,0,0-0.1,0-0.1c0-0.3,0-0.5,0-0.8
		c0,0,0,0,0,0c0-0.1,0-0.1,0-0.2c0-0.1,0-0.3,0.1-0.4c0-0.1,0.1-0.3,0-0.4c0-0.2,0-0.3-0.1-0.5c0-0.3,0-0.5,0-0.8c0-0.2,0-0.3,0-0.5
		c0-0.2,0-0.5,0-0.7c0,0,0-0.1,0-0.1c0-0.1,0-0.1-0.1-0.1C-238.4,225.4-238.4,225.4-238.4,225.4 M-236.7,225.6c0,0.1,0,0.2,0,0.3
		c0,0,0,0.1,0,0.1c0,0.3,0.1,0.6,0.2,0.8c0,0,0,0.1,0,0.1c0,0.1,0,0.1,0.1,0.2c0.1,0.2,0.1,0.4,0.2,0.5c0,0,0,0,0,0
		c0,0.2,0.1,0.3,0.2,0.5c0.1,0.2,0.2,0.3,0.2,0.5c0,0.1,0.1,0.1,0.1,0.2c0.1,0.2,0.2,0.4,0.4,0.6c0,0,0.1,0.1,0.1,0.1
		c0.2,0.1,0.3,0.2,0.5,0.3c0,0,0.1,0.1,0.1,0.1c0.4,0.2,0.8,0.4,1.2,0.5c0.1,0,0.2,0,0.2,0c0,0,0.1,0,0.1,0c0.2,0,0.4-0.1,0.5-0.2
		c0.3-0.1,0.5-0.3,0.6-0.7c0-0.1,0.1-0.2,0.1-0.3c0-0.1,0-0.2,0-0.2c0-0.1,0.1-0.2,0-0.3c0-0.3-0.1-0.6-0.2-0.8
		c-0.1-0.1-0.1-0.2-0.2-0.4c0,0,0,0-0.1,0c0,0.1,0,0.1,0,0.2c0,0.1,0,0.3,0,0.4c0,0.1,0,0.1,0,0.2c0,0.1,0,0.2-0.1,0.3
		c0,0.1-0.1,0.1-0.1,0.2c-0.1,0.1-0.1,0.2-0.2,0.3c-0.1,0.1-0.2,0.2-0.4,0.3c-0.1,0-0.1,0.1-0.2,0.1c-0.1,0-0.2,0-0.3,0
		c-0.2,0-0.4,0-0.5,0c-0.2,0-0.4-0.1-0.6-0.3c0,0,0,0,0,0c-0.1-0.1-0.2-0.2-0.3-0.3c-0.1-0.1-0.2-0.2-0.3-0.3
		c-0.1-0.1-0.2-0.2-0.2-0.3c0,0,0,0,0-0.1c-0.2-0.3-0.4-0.5-0.5-0.9c-0.1-0.2-0.1-0.4-0.1-0.5c0-0.1,0-0.2-0.1-0.3
		c-0.1-0.1-0.1-0.2-0.2-0.4c0-0.1-0.1-0.2-0.1-0.4c0-0.1,0-0.2,0-0.2c0-0.1-0.1-0.1-0.1-0.1c-0.1,0-0.2,0-0.4,0
		C-236.8,225.5-236.7,225.5-236.7,225.6 M-240.3,225.4c0,0.1,0,0.2,0,0.2c0,0.1,0,0.1,0,0.2c0,0.2,0,0.3-0.1,0.4
		c-0.1,0.1-0.1,0.1-0.1,0.2c-0.1,0.2-0.2,0.4-0.3,0.6c0,0,0,0.1,0,0.1c0,0.1-0.1,0.2-0.2,0.2c-0.1,0.1-0.2,0.2-0.3,0.3
		c-0.1,0.1-0.3,0.2-0.4,0.3c-0.1,0.1-0.2,0.1-0.3,0.2c-0.1,0.1-0.3,0.1-0.4,0.2c-0.1,0-0.1,0-0.2,0c-0.2,0-0.4-0.1-0.6-0.1
		c0,0,0,0,0,0c-0.1-0.1-0.2-0.1-0.3-0.2c-0.1-0.1-0.3-0.2-0.3-0.3c0-0.1-0.1-0.1-0.1-0.2c0-0.1-0.1-0.2-0.1-0.3c0,0,0-0.1-0.1-0.1
		c0,0,0,0,0,0c0,0,0,0,0,0c0,0.3-0.1,0.5-0.1,0.8c0,0.1,0,0.1,0,0.2c0,0,0.1,0.1,0.1,0.1c0,0.2,0.1,0.3,0.2,0.5
		c0.1,0.1,0.1,0.3,0.3,0.3c0.1,0.1,0.2,0.1,0.3,0.2c0.1,0,0.1,0,0.2,0c0.3,0,0.5,0,0.8-0.1c0.1,0,0.2,0,0.2,0c0.2,0,0.3-0.1,0.4-0.2
		c0,0,0,0,0,0c0.3-0.4,0.6-0.7,0.9-1.1c0.1-0.1,0.1-0.1,0.1-0.2c0-0.1,0.1-0.2,0.1-0.3c0.1-0.3,0.2-0.5,0.3-0.8c0,0,0-0.1,0-0.1
		c0.1-0.2,0.1-0.3,0.2-0.5c0-0.1,0-0.2,0.1-0.3c0-0.1,0-0.2,0.1-0.3c0,0,0-0.1,0-0.1c0,0,0-0.1-0.1-0.1
		C-240.2,225.4-240.2,225.4-240.3,225.4 M-236.1,207.7c0,0.1,0,0.1,0.1,0.1C-236.1,207.8-236.1,207.7-236.1,207.7 M-236.3,207.3
		c0,0.1,0,0.1,0,0.1C-236.3,207.4-236.3,207.3-236.3,207.3"/>
</g>
</svg>
