<?xml version="1.0" encoding="utf-8"?>
<!-- Generator: Adobe Illustrator 21.1.0, SVG Export Plug-In . SVG Version: 6.00 Build 0)  -->
<svg version="1.1" id="Layer_1" xmlns="http://www.w3.org/2000/svg" xmlns:xlink="http://www.w3.org/1999/xlink" x="0px" y="0px"
	 viewBox="0 0 35 35" style="enable-background:new 0 0 35 35;" xml:space="preserve">
<style type="text/css">
	.st0{fill:#FFE449;}
</style>
<path id="divider" class="st0" d="M18.3,24.5c0,0,0,0.1,0,0.1c0,0.1,0,0.2,0,0.4c0,0.2,0,0.3,0,0.5c0.1,0.1,0.1,0.2,0.1,0.4
	c0,0,0,0,0,0.1c0,0.2,0.1,0.4,0.1,0.6c0,0,0,0.1,0,0.1c0.1,0.1,0.1,0.2,0.1,0.3c0,0,0,0.1,0.1,0.1c0,0,0.1,0.1,0.1,0.1
	c0,0.2,0.1,0.4,0.2,0.6c0.1,0.1,0.1,0.2,0.2,0.3c0.1,0.1,0.1,0.2,0.2,0.3c0.1,0.1,0.2,0.2,0.2,0.3c0.1,0.1,0.1,0.2,0.2,0.4
	c0,0.1-0.1,0.2-0.1,0.3c0,0-0.1,0.1-0.1,0.1c-0.1,0.1-0.1,0.3-0.2,0.4c0,0.1-0.1,0.2-0.1,0.3c-0.1,0.3-0.2,0.5-0.4,0.8
	c0,0.1-0.1,0.1-0.1,0.2c-0.2,0.3-0.3,0.6-0.4,0.9c0,0.1-0.1,0.2-0.2,0.3c0,0-0.1,0.1-0.1,0.1c-0.1,0.3-0.2,0.5-0.3,0.8
	c0,0,0,0.1-0.1,0.1c-0.1,0.1-0.1,0.2-0.1,0.3c0,0.1,0,0.1-0.1,0.1c-0.1,0-0.1,0-0.2,0c0,0,0-0.1,0-0.1c0,0,0-0.1,0-0.1
	c-0.2-0.3-0.4-0.7-0.6-1.1c-0.1-0.2-0.2-0.3-0.3-0.5c-0.1-0.2-0.2-0.4-0.3-0.6c-0.1-0.2-0.2-0.4-0.3-0.6c-0.2-0.3-0.3-0.7-0.5-1
	c-0.1-0.1-0.2-0.3-0.2-0.5c0-0.1,0-0.1,0-0.2c0.1-0.1,0.2-0.2,0.3-0.3c0,0,0.1-0.1,0.1-0.1c0,0,0.1-0.1,0.1-0.1
	c0.1-0.2,0.2-0.4,0.4-0.7c0.1-0.2,0.2-0.3,0.2-0.5c0.1-0.2,0.1-0.4,0.2-0.5c0.1-0.2,0.1-0.3,0.2-0.5c0-0.1,0.1-0.2,0.1-0.3
	c0,0,0-0.1,0-0.1c0.1-0.3,0.1-0.6,0.2-0.8c0-0.1,0-0.2,0.1-0.2c0-0.1,0-0.1-0.1-0.1c-0.1,0-0.1,0-0.2,0c-0.1,0-0.1,0-0.2,0
	c0,0,0,0,0,0.1c0,0.2-0.1,0.4-0.1,0.7c-0.1,0.2-0.1,0.5-0.2,0.7c0,0.1,0,0.1-0.1,0.2c-0.1,0.1-0.1,0.3-0.1,0.4c0,0.1,0,0.2-0.1,0.3
	c-0.1,0.2-0.2,0.4-0.3,0.6c-0.1,0.2-0.3,0.4-0.4,0.6c-0.2,0.2-0.3,0.4-0.6,0.6c-0.2,0.1-0.4,0.3-0.6,0.4c-0.2,0.1-0.3,0.1-0.5,0.2
	c-0.1,0-0.2,0-0.2,0c-0.2,0.1-0.5,0.1-0.7,0.1c-0.2,0-0.3-0.1-0.5-0.1c-0.1,0-0.1,0-0.2-0.1c0,0-0.1,0-0.1,0
	c-0.2-0.1-0.3-0.2-0.5-0.3c-0.1-0.1-0.1-0.1-0.2-0.2c-0.2-0.3-0.2-0.5-0.2-0.8c0-0.1,0-0.3,0-0.4c0-0.2,0-0.4,0.1-0.6
	c0-0.2,0.1-0.3,0.2-0.5c0.1-0.3,0.3-0.5,0.5-0.7c0.1-0.1,0.2-0.1,0.3-0.2c0,0,0.1,0,0.1,0c0.1,0,0.1,0,0.1,0.1
	c0,0.2,0.1,0.3,0.1,0.5c0,0.2,0.1,0.3,0.2,0.5c0.1,0.2,0.3,0.3,0.5,0.4c0.2,0.1,0.3,0.1,0.5,0.1c0,0,0.1,0,0.1,0
	c0.1-0.1,0.2-0.1,0.3-0.2c0.1-0.1,0.2-0.2,0.3-0.3c0.3-0.2,0.4-0.5,0.6-0.8c0.1-0.2,0.2-0.4,0.3-0.6c0-0.1,0-0.1,0-0.2
	c0,0-0.1,0-0.1,0c-0.2,0.1-0.3,0-0.5,0c0,0,0,0,0,0c-0.1-0.1-0.1-0.1-0.1-0.2c0-0.1,0-0.1-0.1-0.2c-0.1-0.1-0.1-0.2-0.1-0.3
	c0,0,0-0.1,0-0.1c0-0.1,0-0.2,0-0.2c0-0.1,0-0.2,0-0.2c0,0,0-0.1,0-0.1c0-0.1,0.1-0.2,0.1-0.3c0-0.1,0.1-0.2,0.2-0.2
	c0.1,0,0.1,0,0.1,0c0.1-0.1,0.3-0.1,0.4-0.2c0.1-0.1,0.3-0.1,0.4-0.1c0.1,0,0.1,0,0.2,0c0-0.1,0-0.2,0-0.2c0,0,0-0.1,0-0.1
	c0-0.5-0.1-0.9-0.2-1.3c0-0.2-0.1-0.4-0.2-0.5c0-0.1-0.1-0.2-0.1-0.3c0-0.1-0.1-0.1-0.1-0.1c-0.1-0.3-0.3-0.5-0.5-0.7
	c0,0-0.1-0.1-0.1-0.1c-0.1-0.1-0.2-0.2-0.3-0.2c-0.1,0-0.2-0.1-0.2-0.2c-0.1,0-0.1-0.1-0.2-0.1c-0.1,0-0.2-0.1-0.3-0.2
	c-0.1-0.1-0.3-0.1-0.4-0.2c-0.3-0.1-0.6-0.1-0.9-0.1c-0.1,0-0.2,0-0.3,0c0,0-0.1,0-0.1,0c-0.3,0-0.5,0.1-0.8,0.1
	c-0.1,0-0.2,0.1-0.3,0.1c-0.1,0.1-0.2,0.1-0.3,0.2c-0.1,0-0.2,0.1-0.3,0.2c-0.2,0.2-0.4,0.3-0.5,0.5c-0.2,0.2-0.3,0.5-0.4,0.8
	c0,0.1-0.1,0.2-0.1,0.3c0,0,0,0.1,0,0.1c0,0.1,0,0.2,0,0.3c0,0.2,0,0.5,0,0.7c0,0.1,0,0.1,0,0.2c0.1,0.3,0.3,0.6,0.6,0.9
	c0.2,0.1,0.2,0.3,0.4,0.4c0,0,0.1,0.1,0.1,0.1c0,0.1-0.1,0.1-0.2,0.1c-0.1,0-0.1,0-0.2,0c-0.3,0-0.6,0-1,0c-0.2,0-0.4,0-0.6-0.1
	c-0.1,0-0.1,0-0.2,0c-0.2,0-0.4-0.1-0.6-0.2c-0.2-0.1-0.3-0.1-0.5-0.2c-0.2-0.1-0.4-0.2-0.6-0.4c-0.4-0.3-0.7-0.8-1-1.2
	c-0.2-0.3-0.4-0.7-0.5-1.1c-0.1-0.2-0.1-0.4-0.1-0.6c0-0.2,0-0.4,0-0.6c0-0.1,0-0.3,0-0.4c0,0,0-0.1,0-0.1c0-0.2,0.1-0.5,0.1-0.7
	c0-0.1,0-0.2,0.1-0.3c0,0,0,0,0,0c0.1-0.4,0.3-0.7,0.5-1.1c0.1-0.1,0.1-0.2,0.2-0.3c0,0,0-0.1,0-0.1c0-0.1,0-0.1,0.1-0.1
	c0.1-0.1,0.3-0.2,0.4-0.3C5.6,15.2,5.8,15,6,14.9c0.2-0.2,0.5-0.3,0.7-0.4c0.2-0.1,0.4-0.2,0.6-0.2c0,0,0,0,0.1,0
	C7.6,14.1,7.8,14.1,8,14C8.1,14,8.2,14,8.3,14c0.1,0,0.2,0,0.3,0c0,0,0,0,0.1,0c0.2,0,0.5,0,0.7,0c0.1,0,0.3,0,0.4,0.1
	c0.1,0,0.2,0,0.4,0.1c0.2,0,0.3,0.1,0.5,0.1c0.2,0,0.4,0.1,0.7,0.2c0,0,0.1,0,0.1,0c0.2,0,0.4,0.2,0.6,0.2c0.2,0.2,0.5,0.2,0.6,0.4
	c0,0,0.1,0.1,0.1,0.1c0.1,0.1,0.2,0.1,0.3,0.2c0.1,0.1,0.2,0.1,0.2,0.2c0,0,0,0,0,0c0.2,0.2,0.4,0.2,0.5,0.4
	c0.1,0.1,0.2,0.2,0.3,0.3c0.1,0,0.1,0.1,0.2,0.2c0.1,0.1,0.2,0.2,0.3,0.3c0,0,0,0,0.1,0.1c0.1,0.2,0.2,0.3,0.4,0.5
	c0.1,0.1,0.1,0.2,0.1,0.2c0.2,0.3,0.4,0.7,0.5,1c0,0,0,0.1,0,0.1c0.1,0.2,0.2,0.3,0.2,0.5c0,0.1,0.1,0.2,0.1,0.3c0,0.1,0,0.1,0,0.2
	c0,0.1,0,0.1,0,0.2c0.1,0.3,0.1,0.5,0.2,0.8c0.1,0.2,0.1,0.5,0.1,0.8c0,0.2,0,0.3,0,0.5c0,0.2,0,0.3,0,0.5c0,0,0,0.1,0,0.1
	c0.1,0,0.2,0,0.4,0c0.1,0,0.1,0,0.1-0.1c0,0,0,0,0,0c-0.1-0.2,0-0.5,0-0.7c0-0.1,0-0.2,0-0.2c0,0,0-0.1,0-0.1c0-0.3-0.1-0.6-0.2-0.9
	c0-0.2-0.1-0.5-0.2-0.7c0-0.1-0.1-0.3-0.1-0.4c0-0.3-0.1-0.5-0.3-0.8c0-0.1-0.1-0.2-0.1-0.3c-0.1-0.1-0.1-0.3-0.1-0.4
	c0-0.1,0-0.1,0-0.2c-0.1-0.2-0.2-0.4-0.4-0.6c-0.1-0.1-0.1-0.2-0.2-0.3c0,0,0-0.1-0.1-0.1c-0.1-0.1-0.2-0.2-0.3-0.4
	c-0.1-0.2-0.2-0.4-0.4-0.6c-0.1-0.1-0.2-0.3-0.3-0.4c-0.1-0.2-0.2-0.4-0.3-0.6c0,0,0-0.1-0.1-0.1c0-0.1-0.1-0.1-0.1-0.2
	c0-0.1-0.1-0.2-0.1-0.2c0,0,0,0,0-0.1c-0.1-0.3-0.2-0.6-0.4-0.9c-0.1-0.1-0.1-0.3-0.1-0.5c-0.1-0.3-0.1-0.5-0.2-0.8c0,0,0-0.1,0-0.1
	c0-0.5-0.1-1,0-1.5c0-0.3,0.1-0.6,0.2-0.9c0-0.1,0.1-0.1,0.1-0.2c0.1-0.3,0.2-0.5,0.3-0.8c0.1-0.1,0.1-0.2,0.2-0.3
	c0.1-0.2,0.3-0.5,0.4-0.7c0.1-0.1,0.1-0.2,0.2-0.2c0.2-0.2,0.3-0.3,0.4-0.5c0.1-0.1,0.1-0.2,0.2-0.3c0,0,0-0.1,0.1-0.1
	c0.1-0.2,0.3-0.4,0.4-0.6c0.1-0.2,0.3-0.4,0.4-0.6c0.1-0.2,0.2-0.4,0.3-0.5c0-0.1,0.1-0.2,0-0.2c0.1-0.3,0.3-0.6,0.4-0.8
	c0.1-0.1,0.1-0.3,0.2-0.4c0-0.1,0.1-0.2,0.1-0.3c0,0,0,0,0,0c0.1-0.2,0.2-0.4,0.3-0.6c0.1-0.1,0.1-0.3,0.2-0.4
	c0.1-0.1,0.1-0.2,0.2-0.4c0-0.1,0.1-0.1,0.1,0c0,0,0,0,0,0.1c0.1,0.2,0.1,0.3,0.2,0.5c0.1,0.2,0.2,0.4,0.2,0.6
	c0.1,0.2,0.2,0.4,0.2,0.5c0,0.1,0.1,0.2,0.1,0.3c0,0.1,0.1,0.1,0.1,0.2c0.1,0.1,0.2,0.2,0.2,0.4c0.1,0.2,0.2,0.4,0.3,0.7
	c0.1,0.1,0.2,0.3,0.2,0.4c0.1,0.2,0.2,0.4,0.3,0.6C19.8,5.8,19.9,6,20,6.2c0.1,0.2,0.3,0.5,0.4,0.7c0,0,0,0,0,0.1
	c0.1,0.1,0.2,0.2,0.2,0.3c0,0,0,0,0,0c0.1,0.2,0.3,0.4,0.5,0.6c0.1,0.2,0.2,0.4,0.3,0.6c0.1,0.2,0.2,0.4,0.2,0.6
	c0.1,0.1,0.1,0.3,0.1,0.4c0,0,0,0.1,0,0.1c0.1,0.3,0.1,0.6,0.2,1c0,0.2,0,0.4,0,0.6c0,0.1,0,0.3,0,0.4c0,0.2,0,0.4,0,0.5
	c0,0.1,0,0.3,0,0.4c0,0.1,0,0.2-0.1,0.3c0,0,0,0.1-0.1,0.2c-0.1,0.2-0.2,0.4-0.3,0.6c-0.1,0.3-0.3,0.6-0.4,0.9
	c-0.1,0.1-0.1,0.3-0.2,0.4c-0.1,0.2-0.2,0.4-0.3,0.6c-0.1,0.1-0.2,0.3-0.2,0.4c0,0.1-0.1,0.1-0.1,0.2c-0.1,0.2-0.3,0.4-0.5,0.7
	c-0.1,0.1-0.1,0.2-0.2,0.3c-0.2,0.2-0.3,0.5-0.4,0.7c-0.1,0.2-0.2,0.5-0.3,0.7c-0.1,0.3-0.2,0.5-0.3,0.8c0,0.1,0,0.2-0.1,0.3
	c0,0.1-0.1,0.2-0.1,0.4c0,0.2-0.1,0.4-0.1,0.7c0,0.1,0,0.2-0.1,0.3c0,0.1,0,0.3-0.1,0.4c-0.1,0.3-0.1,0.5-0.1,0.8c0,0.2,0,0.3,0,0.5
	c0.1,0,0.2,0,0.4,0c0-0.1,0.1-0.3,0.1-0.4c0-0.1,0-0.2,0-0.3c0-0.1,0-0.3,0.1-0.4c0-0.1,0-0.1,0-0.2c0-0.2,0.1-0.5,0.2-0.7
	c0.1-0.4,0.2-0.7,0.3-1.1c0-0.1,0.1-0.2,0.1-0.3c0.1-0.2,0.1-0.3,0.2-0.5c0-0.1,0.1-0.3,0.2-0.4c0,0,0-0.1,0.1-0.1
	c0.1-0.1,0.1-0.2,0.2-0.3c0.2-0.4,0.5-0.7,0.8-1c0.2-0.2,0.3-0.4,0.6-0.6c0.1-0.1,0.2-0.2,0.3-0.3c0.1-0.1,0.1-0.1,0.2-0.2
	c0.1-0.1,0.1-0.1,0.2-0.1c0.1,0,0.1-0.1,0.2-0.1c0.2-0.2,0.5-0.4,0.8-0.5c0.1-0.1,0.3-0.1,0.4-0.2c0.1,0,0.2-0.1,0.3-0.1
	c0,0,0.1,0,0.1,0c0.2-0.1,0.3-0.1,0.5-0.2c0.3-0.1,0.5-0.2,0.8-0.2c0.1,0,0.2,0,0.2,0c0.1,0,0.2,0,0.3,0c0.1,0,0.2,0,0.3,0
	c0.2,0,0.4,0,0.7,0c0.2,0,0.4,0.1,0.7,0.1c0,0,0,0,0,0c0.1,0.1,0.3,0.1,0.4,0.1c0.2,0.1,0.5,0.1,0.7,0.3c0.1,0,0.2,0.1,0.3,0.1
	c0.2,0,0.5,0.3,0.6,0.4c0,0.1,0.1,0.1,0.1,0.1c0.2,0.2,0.4,0.4,0.6,0.6c0.1,0.1,0.2,0.2,0.3,0.4c0.2,0.3,0.3,0.6,0.4,0.9
	c0,0.1,0,0.1,0.1,0.2c0,0.1,0.1,0.2,0.1,0.3c0,0.1,0,0.2,0.1,0.3c0,0,0,0.1,0,0.1c0,0.2,0,0.5,0.1,0.7c0,0.1,0,0.1,0,0.2
	c0,0.4,0,0.8-0.1,1.1c0,0.1,0,0.2-0.1,0.3c0,0.1-0.1,0.2-0.1,0.3c0,0.1-0.1,0.2-0.1,0.3c0,0,0,0.1,0,0.1c-0.1,0.4-0.3,0.6-0.6,0.9
	c-0.1,0.1-0.3,0.3-0.4,0.4c0,0-0.1,0-0.1,0.1c-0.1,0.2-0.3,0.2-0.4,0.4c-0.1,0.1-0.2,0.1-0.3,0.2c0,0-0.1,0-0.1,0
	c-0.2,0-0.3,0.1-0.5,0.1c-0.3,0.1-0.7,0.2-1,0.2c-0.2,0-0.3,0-0.5,0c-0.2,0-0.5,0-0.7,0c-0.1,0-0.2,0-0.3,0c0,0,0,0-0.1,0
	c0,0,0-0.1,0-0.1c0.1-0.1,0.2-0.2,0.3-0.3c0.1-0.1,0.2-0.2,0.3-0.4c0.1-0.1,0.2-0.3,0.3-0.5c0,0,0-0.1,0.1-0.1c0-0.1,0.1-0.1,0-0.2
	c0,0,0,0,0-0.1c0.1-0.2,0.1-0.5,0-0.7c0-0.1,0-0.2,0-0.2c0-0.1,0-0.1,0-0.2c-0.1-0.2-0.2-0.5-0.3-0.7c-0.1-0.1-0.2-0.3-0.3-0.4
	c0-0.1-0.1-0.1-0.1-0.2c0,0-0.1-0.1-0.1-0.1c-0.1-0.1-0.2-0.2-0.3-0.2c-0.1-0.1-0.3-0.2-0.4-0.3c0,0-0.1-0.1-0.2-0.1
	c-0.2-0.1-0.5-0.2-0.7-0.2c-0.1,0-0.2,0-0.2,0c-0.2,0-0.4,0-0.7,0c-0.3,0-0.6,0.1-0.9,0.2c-0.1,0-0.2,0.1-0.3,0.1
	c-0.1,0-0.2,0.1-0.3,0.1c-0.1,0-0.1,0.1-0.2,0.1c-0.1,0.1-0.2,0.1-0.3,0.2c0,0-0.1,0.1-0.1,0.1c-0.1,0.1-0.2,0.3-0.3,0.4
	c-0.1,0.1-0.1,0.1-0.2,0.2c-0.2,0.2-0.4,0.5-0.5,0.7c0,0,0,0,0,0.1c0,0.1-0.1,0.3-0.1,0.4c-0.1,0.3-0.1,0.5-0.2,0.8
	c0,0.2,0,0.4,0,0.6c0,0.1,0,0.2,0,0.3c0,0,0,0,0,0.1c0,0,0.1,0,0.1,0c0.1,0,0.3,0.1,0.4,0.2c0.1,0.1,0.2,0.1,0.3,0.1
	c0.2,0.1,0.3,0.2,0.4,0.3c0.1,0,0.1,0.1,0.1,0.2c0,0.1,0,0.2,0,0.4c0,0.1,0,0.2-0.1,0.4c-0.1,0.2-0.2,0.4-0.3,0.6
	c-0.1,0.2-0.3,0.2-0.4,0.1c-0.1,0-0.1,0-0.2-0.1c-0.1,0,0,0.1,0,0.1c0.1,0.2,0.1,0.4,0.2,0.6c0,0.1,0.1,0.1,0.1,0.2
	c0.1,0.2,0.2,0.3,0.3,0.4c0.1,0,0.1,0.1,0.1,0.2c0.1,0.2,0.2,0.3,0.4,0.4c0,0,0,0,0.1,0.1c0.1,0.1,0.3,0.2,0.4,0.2
	c0.1,0,0.5,0,0.5-0.1c0.1-0.1,0.2-0.1,0.3-0.2c0.1-0.1,0.2-0.2,0.2-0.3c0.1-0.2,0.2-0.4,0.2-0.6c0-0.1,0-0.1,0.1-0.2
	c0-0.1,0-0.1,0.1-0.1c0.1,0,0.1,0,0.2,0c0,0,0.1,0,0.1,0.1c0.1,0.1,0.1,0.2,0.2,0.2c0,0,0,0,0.1,0.1c0.1,0.2,0.2,0.3,0.3,0.5
	c0.1,0.2,0.2,0.5,0.3,0.8c0,0.1,0,0.1,0,0.2c0,0.1,0,0.3,0,0.4c0,0.2,0,0.3,0,0.5c0,0.1,0,0.1-0.1,0.2c0,0,0,0.1-0.1,0.1
	c0,0,0,0.1,0,0.2c0,0.1,0,0.1-0.1,0.2c-0.1,0-0.2,0.1-0.2,0.2c-0.1,0.1-0.3,0.2-0.4,0.3c-0.1,0-0.1,0.1-0.2,0.1
	c-0.1,0.1-0.3,0.1-0.4,0.1c-0.1,0-0.2,0-0.3,0c-0.1,0-0.1,0-0.2,0c-0.4-0.1-0.7-0.1-1.1-0.3c0,0-0.1,0-0.1,0c-0.1,0-0.1-0.1-0.2-0.1
	c0,0-0.1,0-0.1-0.1c-0.1-0.1-0.3-0.1-0.4-0.2c-0.3-0.4-0.6-0.7-0.8-1.2c-0.1-0.2-0.2-0.4-0.3-0.7c-0.1-0.2-0.1-0.5-0.2-0.7
	c-0.1-0.2-0.2-0.5-0.3-0.8c0-0.1,0-0.2-0.1-0.2c0-0.2-0.1-0.3-0.1-0.5c0-0.1-0.1-0.1-0.1-0.1C18.5,24.6,18.4,24.5,18.3,24.5
	 M19.7,6.8C19.7,6.7,19.7,6.7,19.7,6.8C19.7,6.7,19.7,6.7,19.7,6.8C19.8,6.8,19.8,6.8,19.7,6.8C19.8,6.8,19.8,6.8,19.7,6.8
	 M17.5,2.4C17.4,2.4,17.4,2.5,17.5,2.4c-0.1,0.3-0.2,0.4-0.3,0.6c-0.1,0.1-0.1,0.3-0.2,0.4c0,0.1-0.1,0.2-0.1,0.3
	c-0.2,0.4-0.4,0.7-0.5,1.1c0,0.1-0.1,0.1-0.1,0.2c-0.1,0.1-0.2,0.3-0.3,0.4c-0.1,0.1-0.1,0.2-0.1,0.3c-0.2,0.4-0.4,0.7-0.7,1.1
	c-0.2,0.3-0.5,0.7-0.7,1c-0.1,0.2-0.2,0.3-0.3,0.5c0,0,0,0.1,0,0.1c0,0.1,0,0.1-0.1,0.2c-0.1,0.2-0.2,0.4-0.3,0.6
	c0,0.1-0.1,0.2-0.1,0.3c0,0.1-0.1,0.2-0.1,0.2c0,0.2-0.1,0.4-0.1,0.7c0,0.3,0,0.7,0,1c0,0.2,0,0.4,0,0.5c0,0.3,0.1,0.5,0.2,0.8
	c0,0,0,0.1,0,0.1c0.1,0.3,0.2,0.5,0.3,0.8c0.1,0.1,0.1,0.3,0.2,0.4c0,0.1,0.1,0.2,0.1,0.2c0,0.1,0.1,0.2,0.2,0.3
	c0.1,0.1,0.1,0.2,0.2,0.3c0,0,0.1,0.1,0.1,0.1c0.1,0.2,0.2,0.3,0.3,0.4c0.1,0.2,0.2,0.3,0.3,0.5c0.1,0.1,0.1,0.2,0.2,0.3
	c0.1,0.1,0.2,0.2,0.2,0.3c0,0,0,0.1,0.1,0.1c0,0.1,0,0.1,0.1,0.1c0.1,0,0.1,0.1,0.1,0.2c0,0,0,0.1,0,0.1c0.1,0.1,0.1,0.2,0.2,0.3
	c0.1,0.2,0.2,0.3,0.2,0.5c0.1,0.2,0.2,0.3,0.2,0.5c0,0.1,0.1,0.2,0.1,0.3c0,0.1,0.1,0.2,0.1,0.3c0,0,0,0.1,0,0.1
	c0.1,0.2,0.1,0.4,0.2,0.6c0,0.2,0.1,0.4,0.1,0.6c0,0,0,0,0,0c0.1,0.1,0.1,0.3,0.1,0.4c0,0.2,0,0.3,0.1,0.5c0,0.1,0,0.2,0,0.3
	c0,0.1,0,0.3,0.1,0.4c0,0.1,0,0.2,0,0.2c0,0.2,0,0.4,0,0.6c0,0,0,0.1,0,0.1c0,0.1,0,0.1,0,0.2c0,0,0,0.1,0,0.1c0,0,0,0.1-0.1,0.1
	c0,0,0,0-0.1,0c-0.2,0-0.3,0-0.5,0c0,0-0.1,0-0.1,0c-0.1,0-0.2,0-0.3,0c-0.1,0-0.1,0-0.2,0c0,0-0.1,0-0.1-0.1c0-0.1,0-0.1,0-0.2
	c-0.1-0.1,0-0.2,0-0.3c0,0,0-0.1,0-0.1c0-0.2,0-0.4,0-0.7c0-0.1,0-0.2,0-0.3c0-0.2-0.1-0.4-0.1-0.6c-0.1-0.3-0.1-0.5-0.2-0.8
	c0-0.2-0.1-0.3-0.2-0.4c-0.1-0.2-0.3-0.4-0.3-0.6c-0.1-0.2-0.1-0.3-0.2-0.5c-0.1-0.2-0.2-0.3-0.3-0.5c-0.2-0.4-0.5-0.7-0.7-1
	c-0.1-0.2-0.3-0.3-0.5-0.5c-0.1-0.1-0.1-0.1-0.2-0.2c-0.1-0.1-0.1-0.1-0.2-0.1c-0.2-0.2-0.4-0.3-0.6-0.5c-0.1-0.1-0.2-0.1-0.4-0.2
	c-0.2-0.1-0.4-0.2-0.6-0.3c-0.1,0-0.1,0-0.2-0.1c-0.1,0-0.1,0-0.2-0.1c-0.2-0.1-0.3-0.1-0.5-0.2c-0.2-0.1-0.4-0.1-0.6-0.1
	c-0.1,0-0.2,0-0.3,0c-0.2,0-0.3-0.1-0.5-0.1c-0.3,0-0.6,0-0.9,0.1c-0.3,0-0.5,0.1-0.8,0.1c0,0-0.1,0-0.1,0c-0.2,0.1-0.3,0.1-0.5,0.2
	c-0.1,0-0.3,0.1-0.4,0.2c0,0-0.1,0.1-0.1,0.1c-0.3,0.2-0.5,0.3-0.7,0.6c-0.1,0.1-0.3,0.3-0.4,0.5c-0.1,0.1-0.2,0.2-0.2,0.3
	c-0.1,0.2-0.2,0.4-0.3,0.6c-0.1,0.2-0.1,0.4-0.2,0.6c0,0.1-0.1,0.3-0.1,0.4c0,0.2,0,0.5-0.1,0.7c0,0.1,0,0.1,0,0.2
	c0,0.1,0,0.2,0,0.2c0,0.3,0.1,0.5,0.2,0.8c0.1,0.4,0.3,0.8,0.5,1.2c0.1,0.1,0.1,0.2,0.2,0.3c0.1,0.1,0.2,0.2,0.4,0.3
	C5.8,21.9,6,22,6.2,22.2c0,0,0.1,0.1,0.1,0.1c0.1,0.1,0.2,0.1,0.3,0.2c0.1,0.1,0.2,0.1,0.3,0.2c0.1,0,0.2,0.1,0.4,0.1
	c0.1,0,0.2,0.1,0.3,0.1c0.2,0,0.4,0,0.6,0.1c0.1,0,0.2,0,0.3,0c0,0,0.1,0,0.1-0.1c-0.1-0.1-0.2-0.1-0.3-0.2
	c-0.2-0.1-0.3-0.2-0.5-0.3c-0.2-0.1-0.4-0.2-0.6-0.4c-0.1,0-0.1-0.1-0.1-0.2c0,0,0-0.1,0-0.1c-0.1-0.1-0.2-0.2-0.2-0.3
	c0,0-0.1-0.1-0.1-0.1c-0.2-0.2-0.3-0.4-0.4-0.7c0-0.1,0-0.1,0-0.2c0-0.1-0.1-0.2-0.1-0.3c0,0,0-0.1,0-0.1c0-0.1,0-0.3,0-0.4
	c0-0.3,0-0.5,0-0.8c0-0.1,0-0.2,0.1-0.3c0-0.1,0-0.1,0-0.2c0-0.1,0.1-0.2,0.1-0.4c0-0.1,0.1-0.1,0.1-0.2c0-0.1,0.1-0.2,0.2-0.2
	c0.1-0.2,0.3-0.4,0.5-0.5c0,0,0.1,0,0.1-0.1c0.2-0.1,0.3-0.2,0.5-0.3c0.2-0.1,0.3-0.2,0.5-0.2c0.2-0.1,0.4-0.2,0.6-0.2
	c0.1,0,0.2,0,0.3-0.1c0.1,0,0.2-0.1,0.3-0.1c0.1,0,0.1,0,0.2,0c0.1-0.1,0.3-0.1,0.5,0c0.3,0,0.6,0.1,1,0.2c0.2,0.1,0.4,0.1,0.6,0.2
	c0.2,0.1,0.3,0.1,0.5,0.2c0.2,0.1,0.4,0.2,0.7,0.3c0.2,0.1,0.4,0.2,0.6,0.3c0.1,0,0.1,0.1,0.2,0.1c0.3,0.2,0.5,0.5,0.7,0.8
	c0.2,0.3,0.4,0.5,0.5,0.8c0.1,0.1,0.1,0.3,0.2,0.4c0,0,0,0.1,0,0.1c0.2,0.3,0.3,0.7,0.3,1c0,0.1,0,0.2,0,0.2
	c0.1,0.2,0.1,0.4,0.2,0.6c0,0.1,0,0.1,0,0.2c0.1,0.2,0.1,0.4,0.1,0.6c0,0.2,0,0.4-0.1,0.7c0,0,0,0.1-0.1,0.1c-0.1,0-0.1,0-0.2,0.1
	c0,0,0,0-0.1,0c-0.2,0.1-0.3,0.1-0.5,0.2c-0.2,0.1-0.4,0.2-0.6,0.3c0,0-0.1,0.1-0.1,0.1c0,0.1,0,0.2,0,0.3c0,0.1,0,0.2,0.1,0.3
	c0.1,0,0.1-0.1,0.1-0.2c0.2-0.1,0.4-0.1,0.6-0.1c0,0,0.1,0,0.1,0c0.1,0,0.2-0.1,0.2-0.1c0.1,0,0.1,0,0.2,0c0.2,0,0.5-0.1,0.7-0.1
	c0.1,0,0.2,0,0.2,0c0.3-0.1,0.5-0.1,0.8-0.1c0.2,0,0.3,0,0.5,0c0.1,0,0.2,0,0.3,0c0.2,0,0.4,0,0.6,0.1c0.2,0,0.5,0.1,0.7,0.1
	c0.1,0,0.3,0.1,0.4,0.1c0,0,0.1,0,0.2,0.1c0.1,0,0.2,0.1,0.3,0.1c0.1,0,0.2,0.1,0.2,0.1c0.1,0,0.1,0.1,0.2,0.1c0,0,0.1,0,0.1,0
	c0.1-0.1,0.1-0.1,0.1-0.2c0-0.1,0-0.2,0-0.3c0,0,0-0.1,0-0.1c-0.1,0-0.2-0.1-0.2-0.2c0,0,0,0-0.1,0c-0.1,0-0.1-0.1-0.2-0.1
	c-0.1-0.1-0.2-0.1-0.4-0.2c0,0-0.1,0-0.1,0c-0.1-0.1-0.2-0.1-0.4-0.1c-0.1,0-0.1,0-0.2,0c0,0-0.1,0-0.1,0c0-0.1,0-0.2,0-0.2
	c0-0.1,0-0.1,0-0.2c0-0.1,0-0.1,0-0.2c0-0.4,0.1-0.8,0.2-1.3c0-0.1,0-0.2,0.1-0.3c0.1-0.4,0.2-0.7,0.4-1.1c0.1-0.3,0.2-0.5,0.4-0.8
	c0.1-0.2,0.3-0.4,0.4-0.6c0.1-0.1,0.2-0.3,0.3-0.4c0.1-0.1,0.1-0.2,0.2-0.2c0.1-0.1,0.2-0.2,0.3-0.3c0.1-0.1,0.3-0.3,0.5-0.4
	c0.2-0.1,0.5-0.2,0.7-0.3c0.2-0.1,0.4-0.1,0.6-0.2c0.2-0.1,0.5-0.1,0.7-0.2c0,0,0.1,0,0.1,0c0.3-0.1,0.6-0.1,0.8-0.1
	c0.3,0,0.6,0,0.9,0c0.2,0,0.4,0,0.6,0.1c0.2,0.1,0.4,0.1,0.5,0.2c0,0,0,0,0,0c0.2,0.1,0.3,0.2,0.5,0.3c0.2,0.1,0.3,0.3,0.5,0.5
	c0,0,0,0,0,0c0.1,0.1,0.1,0.2,0.2,0.3c0,0.1,0.1,0.1,0.1,0.2c0,0,0.1,0.1,0.1,0.1c0,0.1,0,0.1,0.1,0.1c0.1,0,0.1,0.1,0.2,0.2
	c0.1,0.2,0.1,0.4,0.1,0.6c0,0.1,0,0.1,0,0.2c0,0.1,0,0.2,0.1,0.2c0,0,0,0.1,0,0.1c0,0.1,0,0.2,0,0.4c0.1,0.2,0,0.3,0,0.5
	c0,0.1-0.1,0.2-0.1,0.3c0,0.1,0,0.1-0.1,0.2c-0.1,0.2-0.2,0.5-0.4,0.7c-0.1,0.1-0.2,0.2-0.3,0.4c-0.2,0.2-0.4,0.5-0.7,0.6
	c-0.1,0.1-0.2,0.1-0.3,0.2c-0.2,0.1-0.3,0.2-0.5,0.3c0,0,0,0,0,0.1c0.2,0,0.3,0,0.5,0c0.2,0,0.4,0,0.6-0.1c0.2-0.1,0.4-0.1,0.6-0.2
	c0.1,0,0.2-0.1,0.3-0.1c0,0,0.1,0,0.1-0.1c0.4-0.2,0.7-0.4,1-0.7c0.1-0.1,0.2-0.2,0.2-0.3c0.3-0.4,0.5-0.8,0.7-1.3
	c0.1-0.3,0.1-0.7,0.1-1.1c0-0.3,0-0.6,0-0.9c0-0.3-0.1-0.7-0.2-1c0,0,0-0.1,0-0.1c-0.1-0.2-0.1-0.4-0.2-0.6c0-0.1,0-0.1-0.1-0.2
	c-0.1-0.1-0.2-0.2-0.2-0.4c-0.1-0.1-0.2-0.2-0.3-0.3c-0.1-0.1-0.1-0.1-0.2-0.2c-0.2-0.1-0.3-0.3-0.5-0.3c0,0-0.1,0-0.1,0
	c-0.1-0.1-0.1-0.1-0.2-0.1c0,0,0,0-0.1,0c-0.1-0.1-0.2-0.2-0.4-0.2c-0.1-0.1-0.3-0.1-0.4-0.2c-0.3-0.1-0.6-0.2-0.8-0.2
	c-0.3,0-0.6-0.1-1,0c-0.4,0-0.7,0-1.1,0.1c0,0-0.1,0-0.1,0c-0.2,0.1-0.4,0.1-0.7,0.2c-0.1,0-0.2,0.1-0.2,0.1
	c-0.3,0.1-0.5,0.2-0.8,0.4c-0.2,0.1-0.4,0.3-0.6,0.4c-0.2,0.1-0.3,0.2-0.5,0.4c-0.1,0.1-0.1,0.2-0.2,0.2c-0.1,0-0.1,0.1-0.2,0.1
	c-0.1,0.1-0.2,0.3-0.4,0.4c-0.1,0.1-0.2,0.2-0.3,0.3c-0.1,0.1-0.2,0.3-0.3,0.4c0,0,0,0.1-0.1,0.1c-0.2,0.3-0.3,0.5-0.5,0.8
	c-0.2,0.3-0.3,0.6-0.4,0.9c-0.1,0.2-0.2,0.5-0.2,0.7c0,0.1,0,0.2-0.1,0.3c0,0.1-0.1,0.2-0.1,0.3c0,0.3-0.1,0.5-0.1,0.8
	C19,21.7,19,22,19,22.3c0,0.1,0,0.1,0.1,0.2c0.1,0,0.1,0.1,0,0.1c0,0.1-0.1,0.1-0.1,0.1c0,0-0.1,0.1-0.1,0.1c-0.1,0-0.2,0-0.2,0
	c-0.1,0-0.2,0-0.4-0.1c-0.1,0-0.2,0-0.3,0c-0.1,0-0.3,0-0.4-0.1c0,0,0-0.1,0-0.1c0-0.1,0-0.1,0-0.1c0-0.2,0-0.4,0-0.7
	c0-0.3,0-0.5,0-0.8c0-0.1,0-0.2,0-0.3c0-0.1,0-0.2,0-0.3c0-0.3,0-0.7,0-1c0-0.2,0-0.3,0-0.5c0-0.3,0-0.5,0-0.8c0-0.2,0-0.4,0-0.6
	c0-0.4,0-0.8,0-1.2c0-0.1,0-0.3,0-0.4c0-0.1,0-0.3,0-0.4c0-0.1,0-0.3,0-0.4c0-0.2,0-0.4,0-0.6c0-0.1,0-0.2,0-0.3
	c0-0.1,0-0.2-0.1-0.2c0,0,0,0,0,0c0-0.1,0-0.2,0-0.3c0,0,0-0.1,0-0.1c0-0.1,0-0.2,0-0.3c0-0.1,0-0.2,0-0.2c0-0.1,0-0.2,0-0.3
	c0-0.1,0-0.2,0-0.3c0-0.2,0-0.4,0-0.6c0-0.1,0-0.2,0-0.3c0-0.3,0-0.6,0-0.9c0-0.2,0-0.4,0-0.6c0-0.1,0-0.3,0-0.4c0-0.1,0-0.3,0-0.4
	c0-0.2,0-0.3,0-0.5c0-0.1,0-0.1,0-0.2c0-0.4,0-0.7,0.1-1.1c0-0.1,0-0.3,0.1-0.4c0,0,0,0,0-0.1c0-0.2,0-0.3,0-0.5c0-0.2,0-0.4,0-0.5
	c0-0.2,0-0.4,0-0.6c0-0.2,0-0.4,0-0.6c0-0.1,0-0.2,0-0.3c0-0.1,0-0.2,0-0.3c0-0.2,0-0.3,0-0.5c0-0.1,0-0.2,0-0.3
	C17.6,3,17.5,2.7,17.5,2.4C17.5,2.4,17.5,2.4,17.5,2.4 M17.3,24.2c0,0,0,0.1,0,0.1c0,0.2,0,0.4-0.1,0.5c0,0.2-0.1,0.5-0.2,0.7
	c0,0,0,0.1,0,0.1c0,0.2-0.1,0.5-0.2,0.7c-0.1,0.2-0.1,0.4-0.2,0.6c-0.1,0.2-0.1,0.4-0.3,0.6c0,0,0,0,0,0c-0.1,0.3-0.3,0.6-0.4,0.9
	c0,0,0,0.1-0.1,0.1c-0.1,0.2-0.2,0.3-0.3,0.5c-0.1,0.1-0.1,0.1,0,0.2c0.1,0.1,0.2,0.3,0.2,0.4c0.2,0.3,0.3,0.6,0.5,0.9
	c0.2,0.4,0.4,0.9,0.7,1.3c0.1,0.3,0.3,0.6,0.5,0.8c0,0,0,0.1,0.1,0c0-0.2,0-0.4,0-0.5c0-0.3,0-0.5,0-0.8c0-0.4,0-0.8,0-1.2
	c0,0,0-0.1,0-0.1c0-0.2,0-0.3,0-0.5c0-0.1,0-0.1,0-0.2c0-0.2,0.1-0.5,0-0.7c0,0,0-0.1,0-0.1c0-0.3,0-0.5,0-0.8c0,0,0,0,0,0
	c0-0.1,0-0.1,0-0.2c0-0.1,0-0.3,0.1-0.4c0-0.1,0.1-0.3,0-0.4c0-0.2,0-0.3-0.1-0.5c0-0.3,0-0.5,0-0.8c0-0.2,0-0.3,0-0.5
	c0-0.2,0-0.5,0-0.7c0,0,0-0.1,0-0.1c0-0.1,0-0.1-0.1-0.1C17.4,24.2,17.3,24.2,17.3,24.2 M19.1,24.4c0,0.1,0,0.2,0,0.3
	c0,0,0,0.1,0,0.1c0,0.3,0.1,0.6,0.2,0.8c0,0,0,0.1,0,0.1c0,0.1,0,0.1,0.1,0.2c0.1,0.2,0.1,0.4,0.2,0.5c0,0,0,0,0,0
	c0,0.2,0.1,0.3,0.2,0.5c0.1,0.2,0.2,0.3,0.2,0.5c0,0.1,0.1,0.1,0.1,0.2c0.1,0.2,0.2,0.4,0.4,0.6c0,0,0.1,0.1,0.1,0.1
	c0.2,0.1,0.3,0.2,0.5,0.3c0,0,0.1,0.1,0.1,0.1c0.4,0.2,0.8,0.4,1.2,0.5c0.1,0,0.2,0,0.2,0c0,0,0.1,0,0.1,0c0.2,0,0.4-0.1,0.5-0.2
	c0.3-0.1,0.5-0.3,0.6-0.7c0-0.1,0.1-0.2,0.1-0.3c0-0.1,0-0.2,0-0.2c0-0.1,0.1-0.2,0-0.3c0-0.3-0.1-0.6-0.2-0.8
	c-0.1-0.1-0.1-0.2-0.2-0.4c0,0,0,0-0.1,0c0,0.1,0,0.1,0,0.2c0,0.1,0,0.3,0,0.4c0,0.1,0,0.1,0,0.2c0,0.1,0,0.2-0.1,0.3
	c0,0.1-0.1,0.1-0.1,0.2c-0.1,0.1-0.1,0.2-0.2,0.3c-0.1,0.1-0.2,0.2-0.4,0.3c-0.1,0-0.1,0.1-0.2,0.1c-0.1,0-0.2,0-0.3,0
	c-0.2,0-0.4,0-0.5,0c-0.2,0-0.4-0.1-0.6-0.3c0,0,0,0,0,0c-0.1-0.1-0.2-0.2-0.3-0.3c-0.1-0.1-0.2-0.2-0.3-0.3
	c-0.1-0.1-0.2-0.2-0.2-0.3c0,0,0,0,0-0.1c-0.2-0.3-0.4-0.5-0.5-0.9c-0.1-0.2-0.1-0.4-0.1-0.5c0-0.1,0-0.2-0.1-0.3
	c-0.1-0.1-0.1-0.2-0.2-0.4c0-0.1-0.1-0.2-0.1-0.4c0-0.1,0-0.2,0-0.2c0-0.1-0.1-0.1-0.1-0.1c-0.1,0-0.2,0-0.4,0
	C19,24.2,19,24.3,19.1,24.4 M15.4,24.2c0,0.1,0,0.2,0,0.2c0,0.1,0,0.1,0,0.2c0,0.2,0,0.3-0.1,0.4c-0.1,0.1-0.1,0.1-0.1,0.2
	c-0.1,0.2-0.2,0.4-0.3,0.6c0,0,0,0.1,0,0.1c0,0.1-0.1,0.2-0.2,0.2c-0.1,0.1-0.2,0.2-0.3,0.3c-0.1,0.1-0.3,0.2-0.4,0.3
	c-0.1,0.1-0.2,0.1-0.3,0.2c-0.1,0.1-0.3,0.1-0.4,0.2c-0.1,0-0.1,0-0.2,0c-0.2,0-0.4-0.1-0.6-0.1c0,0,0,0,0,0
	c-0.1-0.1-0.2-0.1-0.3-0.2c-0.1-0.1-0.3-0.2-0.3-0.3c0-0.1-0.1-0.1-0.1-0.2c0-0.1-0.1-0.2-0.1-0.3c0,0,0-0.1-0.1-0.1c0,0,0,0,0,0
	c0,0,0,0,0,0c0,0.3-0.1,0.5-0.1,0.8c0,0.1,0,0.1,0,0.2c0,0,0.1,0.1,0.1,0.1c0,0.2,0.1,0.3,0.2,0.5c0.1,0.1,0.1,0.3,0.3,0.3
	c0.1,0.1,0.2,0.1,0.3,0.2c0.1,0,0.1,0,0.2,0c0.3,0,0.5,0,0.8-0.1c0.1,0,0.2,0,0.2,0c0.2,0,0.3-0.1,0.4-0.2c0,0,0,0,0,0
	c0.3-0.4,0.6-0.7,0.9-1.1c0.1-0.1,0.1-0.1,0.1-0.2c0-0.1,0.1-0.2,0.1-0.3c0.1-0.3,0.2-0.5,0.3-0.8c0,0,0-0.1,0-0.1
	c0.1-0.2,0.1-0.3,0.2-0.5c0-0.1,0-0.2,0.1-0.3c0-0.1,0-0.2,0.1-0.3c0,0,0-0.1,0-0.1c0,0,0-0.1-0.1-0.1
	C15.5,24.2,15.5,24.2,15.4,24.2 M19.6,6.5c0,0.1,0,0.1,0.1,0.1C19.7,6.5,19.6,6.5,19.6,6.5 M19.4,6.1c0,0.1,0,0.1,0,0.1
	C19.5,6.1,19.5,6.1,19.4,6.1"/>
</svg>
