<?xml version="1.0" encoding="utf-8"?>
<!-- Generator: Adobe Illustrator 21.1.0, SVG Export Plug-In . SVG Version: 6.00 Build 0)  -->
<svg version="1.1" id="Layer_1" xmlns="http://www.w3.org/2000/svg" xmlns:xlink="http://www.w3.org/1999/xlink" x="0px" y="0px"
	 viewBox="0 0 100 150" style="enable-background:new 0 0 100 150;" xml:space="preserve">
<style type="text/css">
	.st0{display:none;}
	.st1{display:inline;}
	.st2{fill:#181818;}
	.st3{fill:none;stroke:#181818;stroke-width:3;}
</style>
<g id="Layer_9" class="st0">
	<g class="st1">
		<path class="st2" d="M55.2,27.8c0,4.2-2.5,6.4-5.6,6.4c-3.2,0-5.5-2.5-5.5-6.2c0-3.9,2.4-6.4,5.6-6.4
			C53.1,21.7,55.2,24.2,55.2,27.8z M45.8,28c0,2.6,1.4,4.9,3.9,4.9s3.9-2.3,3.9-5c0-2.4-1.3-4.9-3.9-4.9
			C47.1,22.9,45.8,25.3,45.8,28z"/>
		<path class="st2" d="M44.9,56V43.9h1.7l3.9,6.1c0.9,1.4,1.6,2.7,2.2,3.9l0,0c-0.1-1.6-0.2-3.1-0.2-5v-5.1H54V56h-1.6l-3.9-6.2
			c-0.8-1.3-1.7-2.7-2.3-4.1h-0.1c0.1,1.5,0.1,3,0.1,5V56H44.9z"/>
		<path class="st2" d="M48.8,80.2L47.6,84H46l4.1-12.1H52L56.1,84h-1.7l-1.3-3.8H48.8z M52.8,79l-1.2-3.5c-0.3-0.8-0.5-1.5-0.6-2.2
			l0,0c-0.2,0.7-0.4,1.5-0.6,2.2L49.2,79H52.8z"/>
		<rect x="46.9" y="93.9" class="st2" width="1.6" height="12.1"/>
		<path class="st2" d="M46.9,116c0.8-0.2,1.9-0.3,3-0.3c1.7,0,2.8,0.3,3.5,1c0.6,0.5,1,1.4,1,2.3c0,1.6-1,2.7-2.3,3.1v0.1
			c0.9,0.3,1.5,1.2,1.8,2.4c0.4,1.7,0.7,2.9,0.9,3.3h-1.6c-0.2-0.3-0.5-1.4-0.8-2.9c-0.4-1.7-1-2.3-2.4-2.4h-1.5v5.3h-1.6
			C46.9,127.9,46.9,116,46.9,116z M48.4,121.6H50c1.7,0,2.7-0.9,2.7-2.3c0-1.6-1.1-2.3-2.8-2.3c-0.8,0-1.3,0.1-1.5,0.1V121.6z"/>
		<path class="st3" d="M39,13.5h22c4.4,0,8,3.6,8,8v107c0,4.4-3.6,8-8,8H39c-4.4,0-8-3.6-8-8v-107C31,17.1,34.6,13.5,39,13.5z"/>
	</g>
</g>
<g>
	<path class="st2" d="M44.2,27.6c0-3.8,2.4-6.8,6.3-6.8s6.3,3,6.3,6.8c0,3.7-2.4,6.7-6.3,6.7S44.2,31.3,44.2,27.6z M54.2,27.6
		c0-2.4-1.3-4.4-3.8-4.4c-2.5,0-3.7,2-3.7,4.4c0,2.3,1.3,4.2,3.7,4.2C52.9,31.9,54.2,29.9,54.2,27.6z"/>
	<polygon class="st2" points="44.9,43.1 47.2,43.1 52.7,51.5 52.7,43.1 55.1,43.1 55.1,56 52.7,56 47.2,47.7 47.2,56 44.9,56 	"/>
	<path class="st2" d="M53.7,80.8h-4.5L48.2,84h-2.6l4.6-12.9h2.7L57.5,84h-2.7L53.7,80.8z M53,78.4l-1.4-4.4h0L50,78.4H53z"/>
	<rect x="46.9" y="93.1" class="st2" width="2.6" height="12.9"/>
	<path class="st2" d="M54.2,128l-3.2-5.3h-1.5v5.3h-2.6v-12.9h5c3.1,0,4.6,1.5,4.6,3.7c0,2-1.3,3.2-2.7,3.7l3.4,5.5H54.2z
		 M49.5,120.5h2.3c1.4,0,2.1-0.5,2.1-1.7c0-1.1-0.8-1.6-2.1-1.6h-2.3V120.5z"/>
	<path class="st3" d="M39,13.5h22c4.4,0,8,3.6,8,8v107c0,4.4-3.6,8-8,8H39c-4.4,0-8-3.6-8-8v-107C31,17.1,34.6,13.5,39,13.5z"/>
</g>
</svg>
