<?xml version="1.0" encoding="utf-8"?>
<!-- Generator: Adobe Illustrator 21.1.0, SVG Export Plug-In . SVG Version: 6.00 Build 0)  -->
<svg version="1.1" xmlns="http://www.w3.org/2000/svg" xmlns:xlink="http://www.w3.org/1999/xlink" x="0px" y="0px"
	 viewBox="0 0 100 100" style="enable-background:new 0 0 100 100;" xml:space="preserve">
<style type="text/css">
	.st0{display:none;}
	.st1{display:inline;}
	.st2{fill:none;stroke:#001324;stroke-width:2;}
	.st3{fill:#001324;}
	.st4{fill:none;stroke:#00162A;stroke-width:2;}
	.st5{fill:#FFE449;}
	.st6{filter:url(#Adobe_OpacityMaskFilter);}
	.st7{fill:#FFFFFF;}
	.st8{mask:url(#mask-2_2_);fill:#FFE449;}
	.st9{display:inline;fill:#FFE449;}
</style>
<g id="Layer_3">
	<g id="noun_688247_cc_1_" transform="translate(0.000000, 3.000000)">
		<g id="Group_3_">
			<path id="Shape_12_" d="M50,3.9c-0.5,0-1,0.5-1,1v5H8c-0.7,0-1,0.6-1,1v6c0,0.5,0.5,1,1,1h4v50c0,1.1,0.9,2,2,2h35v4.6L36.3,88.3
				c-0.3,0.2-0.5,0.6-0.4,1c0.1,0.4,0.4,0.7,0.8,0.8c0.4,0.1,0.8-0.1,1-0.4L49,77.4v9.5c0,0.5,0.5,1,1,1c0.5,0,1-0.5,1-1v-9.5
				l11.3,12.2c0.2,0.3,0.6,0.5,1,0.4c0.4-0.1,0.7-0.4,0.8-0.8c0.1-0.4-0.1-0.8-0.4-1L51,74.6v-4.6h35c1.1,0,2-0.9,2-2v-50h4
				c0.5,0,1-0.5,1-1v-6c0-0.5-0.5-1-1-1H51v-5C51,4.4,50.5,3.9,50,3.9z M9,11.9h82v4H9V11.9z M14,17.9h72v50H14V17.9z M73.5,20.9
				c-0.3,0-0.5,0.1-0.7,0.3c-0.4,0.4-0.4,1,0,1.4l8.5,8.5c0.4,0.4,1,0.4,1.4,0c0.4-0.4,0.4-1,0-1.4l-8.5-8.5
				C74,21,73.8,20.9,73.5,20.9z M69.3,23.8c-0.3,0-0.5,0.1-0.7,0.3c-0.4,0.4-0.4,1,0,1.4l9.9,9.9c0.4,0.4,1,0.4,1.4,0
				c0.4-0.4,0.4-1,0-1.4L70,24C69.8,23.8,69.5,23.8,69.3,23.8z"/>
		</g>
	</g>
</g>
<g id="Layer_4" class="st0">
	<g id="noun_469047_cc_1_" transform="translate(13.000000, 393.000000)" class="st1">
		<path id="Shape_14_" class="st2" d="M247.7-323.2c11.7,1.8,21.8-7.2,21.8-18.5v-5.8h-9.6v-3.7h9.6v-5.6h-9.6v-3.7h9.6v-5.6h-9.6
			v-3.7h9.6c0-10.6-8.5-19-19-19c-10.5,0-19,8.5-19,18.9l9.4,0.2v3.7h-9.4v5.6h9.4v3.7h-9.4v5.6h9.4v3.7h-9.4v5.3
			C231.5-332.9,238.2-324.6,247.7-323.2z"/>
		<path id="Shape_13_" class="st3" d="M269.2-300.1h-18v-13.6c13.7-0.5,24.5-11.5,25.3-25.1c0-0.7-0.5-1.2-1.2-1.2s-1.2,0.5-1.2,1.2
			c-0.5,12.7-11.2,22.8-24,22.8c-12.8,0-23.5-10.1-24-22.8c0-0.7-0.5-1.2-1.2-1.2s-1.2,0.5-1.2,1.2c0.7,13.6,11.6,24.4,25.3,25.1
			v13.6h-18c-0.5,0-1.1,0.2-1.4,0.5c-1.4,1.4-0.4,2.5,1.4,2.5c14.8,0,25.4,0,31.9,0c1.4,0,3.6,0,6.5,0c2,0,2.8-1.3,1.4-2.5
			C270.3-299.7,269.7-300.1,269.2-300.1z"/>
	</g>
</g>
<g id="Layer_5" class="st0">
	<g id="noun_1052494_cc_1_" transform="translate(10.000000, 204.000000)" class="st1">
		<path id="Shape_15_" class="st4" d="M165.9-180.4C165.9-180.4,165.9-180.4,165.9-180.4c-11.5-11.5-30.2-11.5-41.7,0l0,0
			c-11.5,11.5-11.5,30.3,0,41.8l18.5,18.5c0.7,0.7,1.5,1,2.3,1s1.7-0.3,2.3-1l18.5-18.6C177.4-150.1,177.4-168.8,165.9-180.4z
			 M145-150.3c-6.7,0-12.1-5.4-12.1-12.1s5.4-12.1,12.1-12.1s12.1,5.4,12.1,12.1S151.7-150.3,145-150.3z"/>
	</g>
</g>
<g id="Layer_1" class="st0">
	<g id="lettering" transform="translate(223.000000, 218.000000)" class="st1">
		<path id="Fill-1_4_" class="st5" d="M-197.2,6.6c-3.2,0.1-6.5,3.2-7.9,6c-1.9,3.9-0.8,6,2.2,6c3.2-0.1,6.5-3,8-6
			C-193,8.7-194.2,6.5-197.2,6.6"/>
		<path id="Fill-3_4_" class="st5" d="M-215.7,64.6l14.3-2.3c0.2,0,0.3-0.3,0.1-0.4c-1-0.3-2.4-1.8-1.7-5.2c0.6-3.3,6-31.5,7.1-36.9
			c0-0.2-0.2-0.3-0.3-0.2c-2.8,3-7.6,5.5-11.2,5.4c-0.2,0-0.4,0.4-0.2,0.5c1.1,0.6,1.1,1.4,0.6,4.1c-2.1,10.6-4.9,25.8-5.5,28.6
			c-0.8,4.2-2.2,5.3-3.3,6C-216.1,64.4-216,64.7-215.7,64.6"/>
		<path id="Fill-5_2_" class="st5" d="M-161.4,23.7c2.1-10.7-5.5-9.9-9.7-7.5c-3.7,2.2-5.6,5-6.6,6.7c0.6-3.2,1.1-5.8,1.4-7
			c0-0.2-0.2-0.3-0.3-0.2c-2.8,3-7.5,5.3-11,5.3c-0.2,0-0.4,0.4-0.2,0.5c1.1,0.6,1.1,1.3,0.6,4c-2.1,10.3-4.8,25.2-5.4,27.9
			c-0.8,4.1-2.2,5.2-3.2,5.9c-0.2,0.1,0,0.4,0.2,0.4l14-2.2c0.2,0,0.3-0.3,0.1-0.4c-1-0.3-2.3-1.8-1.7-5.1c0.3-1.8,2-10.6,3.7-19.1
			l0,0c0,0,0.1-0.3,0.3-1.2c0.7-3.3,2.1-5.8,3.1-7.2c4.1-6.1,5.8-5.2,6-3.2c0.1,0.7-0.1,2-0.3,3.4l-3.1,16c-0.2,0.8-1.2,6.4-1.4,7.1
			c-0.7,3.6-0.4,6.3,1,7.7c3.2,3.1,10.2,0.4,11.9-7.1c0-0.2-0.3-0.2-0.4,0c-1.2,2.1-3.5,2.9-3.4,0.2c0.1-1.9,0.9-6.1,1.1-7
			c0,0,0,0,0,0l3.2-16.4C-161.6,24.6-161.5,24.2-161.4,23.7"/>
		<path id="Fill-7_2_" class="st5" d="M-118-208.1c12.2-1.1,17.2,15.8,10.1,46.6c0,2.8-0.2,5.7-0.7,8.6c-0.6,3.5-1.6,6.9-2.9,10.2
			c-0.2,0.4-0.7,1.9-1.2,3c0.1-0.4,0.3-0.8,0.4-1.2c0.7-2.2,1.5-4.9,2-8.1c0.5-3.2,3.2-20.6-7.3-34.7c-2.8-3.7-8-9-16.4-12.8
			C-129-203.2-123.5-207.6-118-208.1 M-176.6-161.7c4.1-1.5,7.4-5.1,8.2-9.5c0.5-2.9-0.3-5.3-1.6-6.3c-0.3-0.2-0.6,0-0.6,0.3
			c-0.1,0.6-0.4,1.4-0.9,2.1c-1.5,1.8-4.6,3-7,0.9c-2.6-2.3-2.2-6.1,0.1-10.1c4.3-7.3,17.8-13.7,35.3-10.5
			c8.8,1.6,17.8,7.7,22.8,13.7c5.5,6.7,7.3,15,7.8,21.6c-0.6-1.1-1.2-2.1-1.8-2.9c-1.1-1.4-2.3-2.7-3.9-3.7
			c-2.6-1.7-5.5-2.2-8.7-1.7c-4.1,0.7-6.4,3.3-6.9,6.4c-0.3,1.4-0.2,3,0.7,4.4c1.4,2.5,4.1,4.4,7.4,3.6c2.8-0.7,3.8-3,3.7-4.7
			c0-0.2-0.3-0.4-0.5-0.2c-1.1,0.8-2.9,0.7-4-0.3c-1.3-1.1-1.4-3-0.2-4.2c0.2-0.2,0.5-0.4,0.8-0.6c0.6-0.4,1.3-0.7,2.1-0.8
			c1-0.2,3.6-0.5,6.2,1.9c1.7,1.5,3,3.6,4,6c0.2,0.6,0.5,1.3,0.6,2.1c0.5,3.3,0.3,6.2-0.2,8.9c-0.3,1.3-0.6,2.5-0.9,3.6
			c-0.4,1.2-0.8,2.4-1.2,3.3c0,0,0,0,0,0c-1.2,2.7-2.5,5.3-3.8,7.8h0c-3.5,6.6-7.5,12.2-11.7,16c-6.5-1.8-13.1-3-19.9-2.7
			c-0.6,0-1.3,0.1-1.9,0.1c-3.2-8-3-22,1.8-41.3c2.8-11.5,7.6-23.5,13.3-32.8c-3.7-1.2-7.7-1.8-11.8-1.9
			c-8.9,10.5-15.4,24.2-18.1,37.1c-3.9,18.8-2,32.6,4.2,40.9c-7.8,2.4-14.8,6.9-19.5,14.1c-4.9,7.5-7.2,17.3-1.6,24.3
			c3.4,4.3,9,6.7,14.7,6.3c2.8-0.2,5.5-1.1,8-2.6c1.1-0.7,2.5-1.7,3.2-2.9c0.2-0.4,0.2-0.7-0.2-0.7c-4.2,0.2-8.3-1.4-11-4.7
			c-5.1-6.3-0.8-16.9,4.5-22c2.5-2.4,5.4-4.4,8.6-5.9c0.3-0.1,2.2-1,3.5-1.4c0.2-0.1,0.4-0.1,0.6-0.2c0.1,0,0.2-0.1,0.3-0.1
			c0,0,0.1,0,0.1,0c0.1,0,0.3-0.1,0.4-0.1c0.6-0.2,1.2-0.3,1.7-0.4c1.5-0.3,3-0.5,4.4-0.5c4,0,7.3,0.2,10.3,0.6
			c-0.1,0.1-0.3,0.2-0.4,0.3c0,0,0,0-0.1,0c-0.2,0.1-0.5,0.2-0.7,0.4c0,0,0,0-0.1,0c-0.5,0.2-0.9,0.4-1.4,0.6c0,0-0.1,0-0.1,0
			c-0.2,0.1-0.5,0.2-0.7,0.2c0,0-0.1,0-0.1,0c-0.5,0.1-0.9,0.2-1.4,0.3c0,0-0.1,0-0.1,0c-0.2,0-0.5,0.1-0.7,0.1c0,0-0.1,0-0.1,0
			c-0.2,0-0.5,0-0.7,0.1c0,0,0,0-0.1,0c-0.2,0-0.3,0-0.5,0c-0.1,0-0.3,0-0.4,0c-0.1,0-0.1,0-0.2,0c-0.6,0-1.1-0.1-1.6-0.2
			c-0.8-0.2-1.5-0.4-2.3-0.8c-0.1,0-2.7,0.4-4.5,1.1c-1.8,0.6-3.1,1.2-3.1,1.2c3.7,1.6,8,2.3,12.8,2c0,0,0,0,0.1,0
			c0.4,0,0.7,0,1.1-0.1c0.4,0,0.8-0.1,1.2-0.1c0.1,0,0.2,0,0.3,0c0.3,0,0.6-0.1,0.9-0.1c0.1,0,0.3,0,0.4-0.1c0.3,0,0.6-0.1,0.8-0.2
			c0.1,0,0.3-0.1,0.4-0.1c0.3-0.1,0.6-0.1,0.9-0.2c0.1,0,0.2-0.1,0.3-0.1c0.4-0.1,0.7-0.2,1.1-0.3c0,0,0.1,0,0.1,0
			c0.4-0.1,0.8-0.2,1.2-0.4c0.1,0,0.2-0.1,0.2-0.1c0.3-0.1,0.6-0.2,0.9-0.3c0.1,0,0.2-0.1,0.4-0.1c0.3-0.1,0.5-0.2,0.8-0.3
			c0.1-0.1,0.3-0.1,0.4-0.2c0.3-0.1,0.5-0.2,0.8-0.3c0.1-0.1,0.2-0.1,0.4-0.2c0.3-0.1,0.6-0.3,0.9-0.4c0.1,0,0.2-0.1,0.3-0.1
			c0.4-0.2,0.8-0.4,1.1-0.6c0.1,0,0.1-0.1,0.2-0.1c0.3-0.2,0.6-0.3,1-0.5c0.1-0.1,0.2-0.1,0.3-0.2c0.3-0.1,0.5-0.3,0.8-0.4
			c0.1-0.1,0.3-0.2,0.4-0.2c0.2-0.1,0.5-0.3,0.7-0.4c0,0,0.1,0,0.1-0.1c0.1,0,0.1-0.1,0.1-0.1s0,0,0,0c0.1,0,0.1-0.1,0.2-0.1
			c0.3-0.2,0.5-0.3,0.8-0.5c0.1-0.1,0.2-0.1,0.3-0.2c0.7-0.5,1.4-1,2.1-1.5c0.1-0.1,0.2-0.2,0.3-0.2c0.2-0.2,0.5-0.4,0.7-0.6
			c0.1-0.1,0.2-0.2,0.4-0.3c0.2-0.2,0.4-0.4,0.7-0.5c0.1-0.1,0.2-0.2,0.4-0.3c0.2-0.2,0.5-0.4,0.7-0.6c0.1-0.1,0.2-0.2,0.3-0.3
			c0.3-0.2,0.5-0.5,0.8-0.7c0.1-0.1,0.1-0.1,0.2-0.1c0.3-0.3,0.7-0.6,1-0.9c0.1-0.1,0.2-0.2,0.3-0.3c0.2-0.2,0.5-0.5,0.7-0.7
			c0.1-0.1,0.2-0.2,0.3-0.3c0.2-0.2,0.4-0.4,0.6-0.6c0.1-0.1,0.2-0.2,0.4-0.4c0.2-0.2,0.4-0.4,0.6-0.7c0.1-0.1,0.2-0.2,0.3-0.4
			c0.2-0.2,0.4-0.5,0.7-0.8c0.1-0.1,0.2-0.2,0.2-0.3c0.3-0.3,0.6-0.7,0.9-1c0.1-0.1,0.1-0.1,0.2-0.2c0.2-0.3,0.5-0.6,0.7-0.9
			c0.1-0.1,0.2-0.3,0.3-0.4c0.2-0.2,0.4-0.5,0.6-0.7c0.1-0.1,0.2-0.3,0.3-0.4c0.2-0.2,0.4-0.5,0.5-0.7c0.1-0.1,0.2-0.3,0.3-0.4
			c0.2-0.3,0.4-0.5,0.6-0.8c0.1-0.1,0.2-0.3,0.3-0.4c0.3-0.4,0.5-0.8,0.8-1.1c0,0,0,0,0,0h0c6.2-9.1,10.7-19.9,13-30.6
			c7.2-34.5-5.5-52.4-27.6-49.8c-8.7,1-16.7,5.3-23.6,11.5c-10.8-2.4-34.3-1.4-45.4,13.5c-4.4,5.9-6.1,14.2-2.4,20.2
			C-188-161-182.1-159.7-176.6-161.7"/>
		<path id="Fill-9_2_" class="st5" d="M-89.7-129.4l18.8-3c0.2,0,0.4-0.4,0.2-0.5c-1.3-0.4-3.2-2.4-2.3-6.9c0.4-2.4,2.7-14.3,5-25.9
			l0,0c0,0,0.1-0.4,0.4-1.7c1-4.5,2.9-7.9,4.1-9.8c5.5-8.3,7.8-7,8.1-4.3c0.1,0.9-0.1,2.7-0.4,4.6l-4.2,21.7
			c-0.2,1.1-1.6,8.7-1.8,9.7c-0.9,4.9-0.5,8.5,1.4,10.4c4.2,4.2,13.7,0.6,16-9.6c0.1-0.2-0.4-0.3-0.6,0c-1.6,2.8-4.7,4-4.6,0.3
			c0.1-2.6,1.2-8.2,1.5-9.5c0,0,0,0,0,0l4.3-22.3c0.1-0.6,0.2-1.2,0.4-1.9c2.8-14.5-7.4-13.5-13-10.1c-5,3-7.6,6.8-8.9,9.1
			c0.8-4.3,1.5-7.8,1.8-9.5c0-0.3-0.3-0.4-0.4-0.2c-3.7,4-10.1,7.2-14.8,7.2c-0.3,0-0.6,0.5-0.3,0.7c1.5,0.8,1.5,1.8,0.8,5.4
			c-2.8,14-6.5,34.2-7.2,37.8c-1.1,5.5-2.9,7-4.4,8C-90.1-129.7-89.9-129.3-89.7-129.4"/>
		<path id="Fill-11_2_" class="st5" d="M-19.8-175.4c2.5-6,5.1-10.6,7.7-13.8c2.4-2.8,4-3.6,6-4.3c2.7-0.9,3.5,1.7,2.2,6.9
			c-1.6,6-4.3,11.4-8.2,16.4c-3.5,4.4-7.3,7-9.7,1.9C-21.1-171.7-20.2-174.5-19.8-175.4 M-14.8-126.4c2.3-0.2,4.5-0.6,6.5-1.2
			c0,0-0.5-1.8-1.1-3.5c-0.7-2.1-0.8-3.5-0.8-3.5c-8.7-1.3-14.6-12-12.7-28.4c4.7,3.4,10.2,2.8,16.4-1.7c5-3.9,8.5-8.8,10.4-14.9
			c2.3-7.5,0.8-12.9-4.6-16.3c-2.8-1.8-6.3-1.8-10.6-0.2c-1.1,0.4-2.2,0.9-3.3,1.5c0,0,0,0,0,0c-3.2,1.7-6.3,4.2-9.3,7.5
			c-1.2,1.2-2.3,2.6-3.4,4.1c0,0,0,0,0,0c-0.5,0.7-1,1.4-1.4,2.1c-0.1,0.1-0.1,0.2-0.2,0.3c-0.4,0.7-0.9,1.3-1.2,2
			c0,0.1-0.1,0.1-0.1,0.2c0,0.1-0.1,0.1-0.1,0.2c-0.2,0.3-0.3,0.6-0.5,0.9c-0.1,0.2-0.2,0.3-0.3,0.5c-1.5,2.8-2.5,5.3-3.2,7.3
			c0,0,0,0.1,0,0.1c0,0.1,0,0.1-0.1,0.2c-0.1,0.2-0.1,0.3-0.1,0.4c-0.1,0.2-0.1,0.4-0.2,0.6c-0.7,2.3-1,3.8-1.1,4.3
			c-0.1,0.7-0.2,1.4-0.3,2c-0.4,2.2-0.7,4.4-0.8,6.2c0,0.5,0,1,0,1.4C-37.5-136.2-28.6-125.3-14.8-126.4"/>
		<path id="Fill-13_2_" class="st5" d="M6.8-156.8c1.4,1,1.3,3.7,0.5,6c-2.6,8.8-8.1,13.2-11.9,15c-0.6,0.3-1.3,0.5-2,0.6
			c-0.4-1.4-0.6-2.9-0.7-4.4c-0.1-2.8,0.5-5.8,1.8-8.6c0.6-1.4,1.4-2.7,2.3-4c0.9-1.2,2-2.5,3.1-3.3C2.2-157.3,5.5-157.9,6.8-156.8
			 M-1.5-157.2c-2.6,2.4-4.7,5.1-6.2,8.2c-1.5,3.1-2.3,6.4-2.4,9.6c0,3.2,0.6,6.4,1.8,9.1c0.2,0.5,0.5,1,0.7,1.5l0,0c0,0,0,0,0,0
			c1.1,2.1,2.5,4,4.1,5.6c2,1.9,4.1,3.5,6.3,4.6c1.1,0.6,2.2,1,3.2,1.4c3.3,1.1,6.2,1.6,8.5,1.7c2.5,0.1,5.2,0,7.9-0.8
			c4.4-1.3,7.8-3.9,10.3-7.8c3.2-5.1,2.5-9.9-0.3-13.3c-1.3-1.6-3.1-2.9-5.5-3.4c-4.1-0.8-8.8,0.4-11.1,4.7
			c-1.9,3.6-0.4,6.9,1.6,8.3c0.3,0.2,0.7,0,0.7-0.3c0.2-2,2.1-3.7,4.2-4c2.5-0.4,4.7,1.3,4.9,3.7c0,0.5,0,0.9-0.1,1.4
			c-0.2,1-0.5,2-1.1,3c-0.7,1.2-3,4.3-8.1,4.9c-3.2,0.4-7-0.1-10.5-1.2c-0.9-0.4-1.9-0.8-2.8-1.3c-1.9-1-3.8-2.3-5.6-4
			c-1.3-1.3-2.5-2.8-3.5-4.5c4.4-2.2,8.1-5.6,10.8-9.9c0.5-0.8,1.1-1.7,1.6-2.6c1.2-2.2,2.4-4.7,3.1-7.6c0.3-1.5,0.6-3,0.4-4.7
			c-0.2-1.6-0.9-3.6-2.6-4.7c-1.7-1.1-3.9-1-5.7-0.4C1.4-159.4-0.1-158.4-1.5-157.2"/>
		<g id="Group-17_2_" transform="translate(0.000000, 286.000000)">
			<g id="Clip-16_2_">
			</g>
			<defs>
				<filter id="Adobe_OpacityMaskFilter" filterUnits="userSpaceOnUse" x="-242" y="-211.4" width="80" height="104.8">
					<feColorMatrix  type="matrix" values="1 0 0 0 0  0 1 0 0 0  0 0 1 0 0  0 0 0 1 0"/>
				</filter>
			</defs>
			<mask maskUnits="userSpaceOnUse" x="-242" y="-211.4" width="80" height="104.8" id="mask-2_2_">
				<g class="st6">
					<polygon id="path-1_2_" class="st7" points="-242,-106.5 -242,-211.4 -162,-211.4 -162,-106.5 					"/>
				</g>
			</mask>
			<path id="Fill-15_2_" class="st8" d="M-179.3-156.7c-0.1,1.7-0.4,3.2-0.7,4.4c-0.2,0.6-0.3,1.2-0.5,1.6c0,0.1-0.1,0.2-0.1,0.3
				c0.6-2.9,0.3-6.5-0.2-8.7c-1.7-7-7.7-11.1-14.7-12c-7.5-1.1-16.1,0.9-21.6,7.2c-4.8,5.5-7,14.3-3.3,20.2c3,4.8,8.9,6.2,14.5,4.2
				c4.2-1.5,7.7-5,8.3-9.5c0.4-3.2-0.8-5.5-2.2-6.3c-0.3-0.2-0.4-0.1-0.2,0.3c0.2,0.5,0,1.5-0.7,2.4c-0.9,1.1-2.4,1.9-3.8,2.1
				c-3.5,0.6-4.9-2.3-4.5-5.2c0.9-6.4,7.3-10.2,13.3-10.3c5.8-0.1,11.7,3.2,12.4,9.2c0.4,4.2-0.9,8.9-2.4,13
				c-7.2,18.3-18,33.3-28.5,33.7c-12.5,0.5-17.1-17-9.2-48.9c5.7-23.2,19.5-48.1,33.1-49.4c12.2-1.1,17.2,15.5,10.3,45.7
				C-179.4-160.4-179.2-158.4-179.3-156.7 M-191.8-211.1c-24,2.8-43,30.2-48.2,54.8c-7.1,33.9,4.9,51.5,27,49.6
				c23.7-2.1,43.3-28.6,48.8-54.9C-156.8-195.8-169.6-213.7-191.8-211.1"/>
		</g>
		<path id="Fill-18_2_" class="st5" d="M-72.8,107.6c2.5-6,5.1-10.6,7.7-13.8c2.4-2.8,4-3.6,6-4.3c2.7-0.9,3.5,1.7,2.2,7
			c-1.6,6-4.3,11.4-8.2,16.4c-3.6,4.5-7.5,7.2-9.9,1.6c0,0,0,0,0,0C-74.2,111.3-73.2,108.7-72.8,107.6 M-76,119.9
			c4.8,3.5,10.3,2.9,16.6-1.6c5-3.9,8.5-8.9,10.4-14.9c2.3-7.5,0.8-12.9-4.6-16.3c-2.8-1.8-6.3-1.8-10.6-0.2
			c-1.1,0.4-2.2,0.9-3.3,1.5c0,0,0,0,0,0c-3.2,1.7-6.3,4.2-9.3,7.5c-2.3,2.4-4.4,5.3-6.4,8.7c-1,1.6-2.4,4.6-4.2,9
			c-0.9,2.5-2.4,9.6-2.5,13.7c-0.2,4.1,0.4,7.6,1.7,10.3c2.2,4.6,6.2,7,11.8,7c5.7,0.1,10.4-1.7,14.2-5.4c5.5-4.8,8-11,7.4-18.6
			c0-0.2-0.2-0.3-0.4-0.2c-0.3,0-0.5,0.2-0.5,0.4c-0.3,2.4-1.5,5.2-3.6,8.3c-2.1,3.1-4.5,5.2-7.1,6.1c-4.5,1.7-7.4,0.7-8.9-2.8
			c-1.6-3.7-1.5-8.4-0.8-12.8C-76.1,119.8-76,119.8-76,119.9"/>
		<path id="Fill-20_2_" class="st5" d="M-25,124.9c-1.7,1.8-3.9,3.3-6.9,3.8c-1.9,0.3-3.2-0.1-3.9-1.3c-0.6-1.2-0.8-2.8-0.1-4.7
			c1.6-4.4,4.3-7.5,7.1-10.1c0.6-0.5,1.2-1.1,1.8-1.6c1.8-1.5,3.6-3,5.4-4.2c0.1-0.1,0.2-0.1,0.3-0.2
			C-21.5,106.6-24.9,124.4-25,124.9 M-6,87.9c-0.6-4.4-3.1-7.2-7.5-8c-5-0.7-9.9,0.1-14.8,2.6c-4.9,2.5-8.5,6.4-10.8,11.8
			c-1.7,3.9-1.5,6.9,0.7,9c2.2,2,5.2,2.1,9.2,0.1c2.4-1.1,4.2-2.4,5.6-4c0.2-0.2,0.2-0.4,0.1-0.5c-0.1-0.1-0.2-0.1-0.4,0
			c-1.8,0.6-3.2,0.4-4.1-0.6c-0.9-1-1.4-2.7-1.1-4.7c0.7-4.5,2.5-7.9,6-9.5c2.6-1.2,4.4-0.8,5.1,1.3c0.3,1.1,0.1,3.6-0.5,6.9
			l-2.1,10.5c-0.3,0.2-0.6,0.5-1,0.7c-0.5,0.3-1,0.6-1.5,0.9c-1.1,0.6-2.2,1.3-3.3,2c-4.3,2.4-15.2,9.1-18.9,15.3
			c-5.1,8.6-2.5,15.4,5.2,15.9c4.5,0.3,10.2-3.1,15-8.5c0.2,1.9,0.8,3.4,1.8,4.4c4.3,4.2,14,0.6,16.3-9.5c0.1-0.2-0.4-0.3-0.6,0
			c-1.6,2.8-4.8,3.9-4.7,0.3c0.1-2.6,1.2-8.2,1.5-9.4c0,0,4.4-22.3,4.4-22.3l0,0C-6.1,90.6-6,89.1-6,87.9"/>
		<path id="Fill-22_2_" class="st5" d="M-101.8,134.3L-101.8,134.3c3-15.8,11.6-60.4,12.8-66.4c0-0.3-0.2-0.4-0.4-0.2
			c-3.7,4-10,7.2-14.6,7.1c-0.3,0-0.6,0.5-0.3,0.7c1.4,0.8,1.5,1.8,0.8,5.3c-1.9,9.4-6.2,32.1-9.1,47c-0.3,1.6-0.9,4.5-1.9,9.7
			c-0.9,4.8-0.4,8.5,1.5,10.4c4.2,4.2,13.5,0.6,15.8-9.5c0.1-0.2-0.4-0.3-0.6,0c-1.6,2.8-4.6,3.9-4.5,0.3
			C-102.3,137.6-102.1,135.9-101.8,134.3"/>
		<path id="Fill-24_2_" class="st5" d="M36.2,110.7c0.3-1.6,0.6-3,0.7-3.6c0,0,0,0,0,0l4.3-22.3c0.1-0.6,0.2-1.2,0.4-1.9
			c2.8-14.5-7.4-13.5-13-10.1c-5,3-7.6,6.8-8.9,9.1c0.8-4.3,1.5-7.8,1.8-9.5c0-0.3-0.3-0.4-0.4-0.2c-3.7,4-10.1,7.2-14.8,7.2
			c-0.3,0-0.6,0.5-0.3,0.7c1.5,0.8,1.5,1.8,0.8,5.4c-2.8,14-6.5,34.2-7.2,37.8c-1.1,5.5-2.9,7-4.4,8c-0.2,0.2-0.1,0.5,0.2,0.5
			l18.8-3c0.2,0,0.4-0.4,0.2-0.5c-1.3-0.4-3.2-2.4-2.3-6.9c0.4-2.4,2.7-14.3,5-25.9l0,0c0,0,0.1-0.4,0.4-1.7c1-4.5,2.9-7.9,4.1-9.8
			c5.5-8.3,7.8-7,8.1-4.3c0.1,0.9-0.1,2.7-0.4,4.6L25,105.9c-0.2,1.1-1.6,8.7-1.8,9.7c-0.9,4.9-0.5,8.5,1.4,10.4
			c0.6,0.6,1.4,1.1,2.2,1.3C27.6,121,31.1,114.7,36.2,110.7"/>
		<path id="Fill-26_2_" class="st5" d="M-143.4,153.2c-1.3-0.4-3.2-2.4-2.3-6.9c0.5-2.8,3.6-18.5,6.2-31.5c0.3-1.3,0.5-2.7,1-3.7
			c0.8-1.8,1.8-3.5,3.2-4.8c3.5-3.3,9.2-5,13-2.3c3.1,2.1,4.1,7,0.7,9.9c-2.3,1.9-5.5,1.5-6.6-1.1c-0.4-0.9-0.4-2.4,0.3-3.5
			c0.3-0.5,0.1-0.7-1.1-0.3c-2.2,0.8-4.1,2.1-5.3,4c-2.5,3.8-2,9.5,1.8,11.8c3.9,2.3,9.6,0.3,13.1-2.6c4.3-3.7,6.3-9.7,5.1-14.9
			c0.9,3.7-0.9-3.7,0,0c-2.4-10-14.8-9.9-22.3-3.7c-0.3,0.2-0.6,0.5-0.8,0.7c0.6-2.8,1-5.1,1.2-6.3c0-0.3-0.3-0.4-0.4-0.2
			c-3.8,4-10.2,7.2-15,7.1c-0.3,0-0.6,0.5-0.3,0.7c1.5,0.8,1.5,1.8,0.8,5.3c-2.8,13.9-6.6,33.9-7.3,37.4c-1.1,5.5-2.9,7-4.4,7.9
			c-0.2,0.2-0.1,0.5,0.2,0.5l19.1-3C-143.3,153.6-143.1,153.3-143.4,153.2"/>
		<path id="Fill-28_2_" class="st5" d="M72,90.4c-4.4-4.3-17.1-10.9-10-19c2.5-2.8,7.5-3.6,9.6-0.4c1.1,1.6,1.6,4.1,0.4,6.1
			c-1.5,2.5-3.9,2.8-5,2.4c-0.3-0.1-0.4,0.1-0.4,0.3c-0.4,1.6,0.7,3.6,3.3,4c2.2,0.3,5.7-0.5,7.7-2.9c5.2-6.3,1.2-14.2-5.8-15.1
			c-13.6-1.7-28.4,13.5-19.3,25.6c4.2,5.6,10.6,9.1,13.9,15.6c3.5,6.9,4.7,14.7,0.9,22.3c-2.8,5.7-7.3,10.1-13.5,11.9
			c-6.1,1.7-13,0.6-15.8-5.2c-2.7-5.5-1.4-13.5,5.2-16.3c3-1.3,6.4-0.5,7.1,2.9c0.3,1.7-0.2,3.3-1.5,4.6c-0.6,0.5-1.2,1-2,1.3
			c-1.1,0.5-1.8,0.4-2.3,0.3c-0.2,0-0.4,0.2-0.3,0.3c0.6,1,2.1,1.7,3,1.9c2.1,0.5,4,0.3,5.9-0.3c4.3-1.3,7.9-4.8,9.2-9.1
			c2.9-9.3-5.5-16.1-14.2-14.9c-14.2,1.9-23.6,20.7-16.9,32.3c4.4,7.6,13.6,8.9,22.2,7.3c9.7-1.8,19-7.6,24.2-16.4
			C85.7,115.9,82,100.2,72,90.4"/>
		<path id="Fill-30_2_" class="st5" d="M-93.5-43.7c-1.1,5.5-2.9,7-4.4,7.9c-0.2,0.2-0.1,0.5,0.2,0.5l18.9-3c0.2,0,0.4-0.4,0.2-0.5
			c-1.3-0.4-3.2-2.4-2.3-6.9c0.5-2.4,2.7-14.2,5-25.7l0,0c0,0,0.1-0.4,0.4-1.7c1-4.4,2.9-7.8,4.1-9.7c5.5-8.2,7.9-6.9,8.1-4.3
			c0.1,0.7,0,1.8-0.2,3.1c-2.8,13.8-6.4,33.1-7.1,36.6c-1.1,5.5-2.9,7-4.4,7.9c-0.2,0.2-0.1,0.5,0.2,0.5l18.9-3
			c0.2,0,0.4-0.4,0.2-0.5c-1.3-0.4-3.2-2.4-2.3-6.9c0.5-2.5,3-15.6,5.4-27.7c1-4.2,2.8-7.5,4-9.3c5.5-8.2,7.9-6.9,8.1-4.3
			c0.1,0.9-0.1,2.7-0.4,4.6l-4.2,21.6c-0.2,1-1.6,8.5-1.8,9.5c-0.9,4.8-0.5,8.4,1.4,10.3c4.3,4.2,13.8,0.6,16.1-9.5
			c0.1-0.2-0.4-0.3-0.6,0c-1.6,2.8-4.7,3.9-4.6,0.3c0.1-2.6,1.2-8.2,1.5-9.4c0,0,0,0,0,0l4.3-22c0.1-0.6,0.3-1.3,0.4-2
			c2.9-14.4-7.4-13.3-13-10c-5.5,3.3-8.1,7.6-9.4,9.7c0,0,0,0,0,0c0.3-10.2-8.4-9.2-13.5-6.2c-5,3-7.6,6.7-9,9
			c0.8-4.3,1.5-7.7,1.8-9.4c0-0.3-0.3-0.4-0.4-0.2c-3.7,4-10.1,7.2-14.8,7.1c-0.3,0-0.6,0.5-0.3,0.7c1.5,0.8,1.5,1.8,0.8,5.3
			C-89.1-67.3-92.8-47.3-93.5-43.7"/>
		<path id="Fill-32_2_" class="st5" d="M-120.4-39.7c-1.1,5.5-3,7-4.5,7.9c-0.2,0.2-0.1,0.5,0.2,0.5l19.2-3c0.3,0,0.4-0.4,0.2-0.5
			c-1.3-0.4-3.2-2.4-2.3-6.9c0.9-4.4,8.2-41.3,9.6-48.4c0-0.3-0.3-0.4-0.4-0.2c-3.8,4-10.3,7.2-15.1,7.1c-0.3,0-0.6,0.5-0.3,0.7
			c1.5,0.8,1.5,1.8,0.8,5.3C-115.9-63.3-119.7-43.3-120.4-39.7"/>
		<path id="Fill-34_2_" class="st5" d="M-4.8-85.4c2.5-6,5.1-10.6,7.7-13.8c2.4-2.8,4-3.6,6-4.3c2.7-0.9,3.5,1.7,2.2,7
			c-1.6,6-4.3,11.4-8.2,16.4c-3.6,4.5-7.5,7.2-9.9,1.6c0,0,0,0,0,0C-6.2-81.7-5.2-84.3-4.8-85.4 M13.2-72.4c0-0.2-0.2-0.3-0.4-0.2
			c-0.3,0-0.5,0.2-0.5,0.4c-0.3,2.4-1.5,5.2-3.6,8.3c-2.1,3.1-4.5,5.2-7.1,6.1c-4.5,1.7-7.4,0.7-8.9-2.8C-9-64.2-8.9-69-8.2-73.3
			c0.1,0.1,0.2,0.1,0.3,0.2c4.8,3.5,10.3,2.9,16.6-1.6c5-3.9,8.5-8.9,10.4-14.9c2.3-7.5,0.8-12.9-4.6-16.3
			c-2.8-1.8-6.3-1.8-10.6-0.2c-1.1,0.4-2.2,0.9-3.3,1.5c0,0,0,0,0,0c-3.2,1.7-6.3,4.2-9.3,7.5c-2.3,2.4-4.4,5.3-6.4,8.7
			c-1,1.6-2.4,4.6-4.2,9c-0.9,2.5-2.4,9.6-2.5,13.7c-0.2,4.1,0.4,7.6,1.7,10.3c2.2,4.6,6.2,7,11.8,7c5.7,0.1,10.4-1.7,14.2-5.4
			C11.2-58.6,13.7-64.8,13.2-72.4"/>
		<path id="Fill-36_2_" class="st5" d="M-206.2-10.8c0.1,0.1,0.2,0.3,0.3,0.4c2.4,2.9,5.4,4.8,8.6,6.2c3.2,1.4,6.6,2.2,10.1,2.6
			c3.6,0.5,7.2-0.1,10.8-0.6c3.6-0.7,7.2-1.7,10.7-3.2c3.5-1.5,6.9-3.6,10-6c6.3-4.9,11.3-11.6,14.7-18.6c1.8-3.5,3.2-7.1,4.3-10.9
			c1-3.6,2-6.8,2.9-10.3c0.9-3.4,1.6-6.9,2.1-10.4c0.6-3.5,0.8-7,1.2-10.4c0.7-6.5,2-13,3.6-19.5c0.9-3.2,1.8-6.4,3-9.5
			c0.6-1.6,1.3-3,2-4.4c0.6-1.1,1.2-2.1,1.9-2.8c3.5,1.2,7.5,2.7,13.1,4.5c0,0,0,0,0,0c0.1,0,0.1,0,0.2,0.1c0.2,0.1,0.3,0.1,0.5,0.2
			c0.3,0.1,0.6,0.2,0.9,0.3c-2.4,1.6-4.3,4-5.4,6.3c-2.6,5.4-1.1,8.4,3.1,8.3c4.4-0.1,9-4.1,11-8.3c0.6-1.2,1-2.3,1.1-3.3
			c5.5,1.5,11.3,2.6,17,2.7c17.4,1,27.4-5,31.7-12.4c3.8-6.5,1.3-15.5-3.6-18.8c-3.1-2.1-11-5.2-21.5,0.9c-3.8,2.2-5.9,5.8-6.6,10.3
			c-0.1,0.6,0.2,1.7,1,0.7c1-1.3,3.3-2.5,6-2.5c3.9-0.1,6,2.4,6.3,5c0.2,2.6-1.5,6.6-5.4,8.5c-3.9,1.8-13.1,4.3-26.8,0.6
			c-4.3-1.2-9.2-2.8-15.2-4.6c-0.7-0.2-1.4-0.4-2.1-0.7c-0.4-0.2-0.9-0.3-1.4-0.5c-1-0.4-2-0.7-3.1-1h0l-0.2-0.1l0,0
			c-0.2-0.1-0.4-0.1-0.7-0.2c0,0-1,0.6-1.9,1.1c-1.4,0.7-2.6,1.7-3.7,2.6c-1.5,1.4-2.8,2.9-4,4.4c-2.4,3.1-4.4,6.4-6.1,9.7
			c-3.5,6.7-6.1,13.8-8,21c-0.9,3.4-2,6.7-2.8,10.1c-0.8,3.4-1.6,6.7-2.2,10.1c-0.6,3.4-1,7-1.6,10.2c-0.6,3-1.2,6.2-2.1,9.2
			c-1.8,6.1-4.1,12.1-8.2,17.2c-2,2.6-4.5,4.7-7.1,6.8c-3.8,2.9-14.6,7.5-21.1,4.4c-6.6-3.1-10.3-12.9-6-20.6c2-3.5,6.2-5.2,9.4-2.6
			c1.4,1.2,2.4,3.3,2.1,5.3c-0.1,1-1.3,2.1-0.1,2.2c1.2,0.1,4-2.8,4.7-3.6c1.5-1.6,2.5-3.6,3-5.7c1.1-4.6-1.1-9-4.4-11.7
			c-5.7-4.7-14.1-4.9-20.8-0.4c-7.5,5.1-11.2,15.2-9.2,23.4C-209.7-15.9-208.2-13.1-206.2-10.8"/>
		<path id="Fill-38_2_" class="st5" d="M20.6-48.9c-0.7,0.6-1.3,1.1-1.7,1.4c-0.4,0.3-0.6,0.4-0.7,0.5c-0.1,0.1-0.2,0.2-0.2,0.4
			c0,0.2,0.2,0.3,0.4,0.3c0.2,0,0.3,0,0.9-0.2c0.5-0.2,1.3-0.5,2.2-0.9c0.9-0.4,1.9-1,3-1.7c1.1-0.7,2.1-1.6,3.1-2.7
			c4.5-4.9,5.3-9.8,3.7-12.8c-1-1.9-2.7-2.8-5.1-2.7c-4.1,0.2-6.9,3.7-7.3,6.9c-0.7,4.4,1.6,7.3,5.3,6.4c0.2-0.1,0.4-0.1,0.6-0.2
			c-0.1,0.1-0.1,0.3-0.2,0.4C23.6-51.9,22-50.1,20.6-48.9"/>
		<path id="Fill-40_2_" class="st5" d="M-60.5-7.6c0,0.3,0.1,0.3,0.2,0c1.3-3.6,2.8-7.1,3.9-10.7c1.3-4.3,2.7-9.7-1.5-12.8
			c-2.4-1.8-5.7-1.6-8,0.2c-1.2,1-2.2,2.4-2.2,4.1c0,1,0.2,2,0.9,2.8c0.3,0.3,0.7,0.8,1.5,1.1c0.2,0.1,0.2-0.1,0.2-0.2
			c-1-2.7,2-5.3,4.3-3.3c2.3,2,2.2,6.2,1.9,9.6C-59.6-13.8-60.1-10.7-60.5-7.6"/>
		<path id="Fill-42_2_" class="st5" d="M-186.8-104.6c2.6-0.7,4.2-2.3,5.1-3c0.8-0.7,1.6-1.4,2.4-2c3.2-2.7,6.3-4.4,7.8-5.2
			c0.6-0.3,0.6-0.5-0.2-0.4c-1,0.1-2.4,0.4-4,1.1c-1.6,0.6-3.3,1.4-5.2,2.3c-0.9,0.4-1.9,0.9-2.8,1.3c-1,0.4-2,0.7-2.8,0.7
			c-1.2,0.1-2.9-0.5-3.4-1.7c-0.2-0.5-0.5-1.5,0.5-2.4c0.4-0.4,0.8-0.5,1.2-0.6c0.4-0.1,0.8-0.1,1.1-0.1c0.3,0,0.4-0.1,0.2-0.3
			c-0.2-0.2-0.5-0.5-1-0.8c-0.5-0.3-1.3-0.5-2.2-0.4c-0.5,0-2,0.3-3.2,1.5c-1.5,1.5-2.4,5-0.7,7.6
			C-192.6-105-189.4-103.9-186.8-104.6"/>
		<path id="Fill-44_2_" class="st5" d="M-191.9,110.6c-3-1.5-7.3-3.1-7.6-6.3c-0.3-3,3.8-3.7,4.8-1.5c0.1,0.1,0.3,0.2,0.3,0
			c0.6-1.8-0.5-3.7-2.1-4.6c-2-1.1-4.6-0.5-6.3,0.9c-2,1.8-2.7,4.6-2,7.2c1.3,4.9,6.7,5.6,10.8,6.6c3.9,1,7.6,2.1,10.8,4.7
			c0.1,0.1,0.2,0,0.1-0.1C-185.4,114.4-188.5,112.4-191.9,110.6"/>
		<g id="Group-48_2_" transform="translate(95.000000, 353.000000)">
			<path id="Fill-46_2_" class="st5" d="M-83.3-208.4c-3.8-3.2-10.8-4.2-15.8-1.3c-4.9,2.8-8.2,10.6-3.5,15.3
				c1.1,1.1,2.6,1.8,4.1,2.1c0.7,0.2,2.4,0.4,3.1,0.1c0.7-0.3,0.1-0.5-0.3-1c-2.3-2.8,0.7-6.9,3.8-7c5-0.2,4.9,5.7,3.2,8.9
				c-1.9,3.4-5.2,6.4-8.8,7.9c-8.6,3.6-18.4,3.5-27.4,2.5c-9.9-1.1-17.8-2.6-29.3-5c-9.8-2.1-19.5-4.6-29.2-7
				c-9.3-2.2-19-4.5-28.6-4c-7.3,0.4-15,2.6-20.8,7.3c-5.7,4.6-9.1,12.3-9,19.6c0.1,8,4.7,15.7,12,19c5.6,2.5,13,2.2,18-1.7
				c3.1-2.4,4.8-6.1,4.9-10c0-1.7-0.2-3.5-0.7-5.1c-0.2-0.6-0.8-3.2-1.7-3c-0.4,0.1-0.6,1.7-0.9,2.3c-0.7,1.3-1.9,2.2-3.3,2.8
				c-3.7,1.6-7.7,0-9.3-3.7c-2.9-6.7,1.3-13.4,7-16.9c4.1-2.5,9.2-3.6,13.9-4c12.3-1.1,30.5,4.1,40.7,6.2c9.7,1.9,20.1,4.1,29.8,5.6
				c9.6,1.4,19.2,2.7,28.9,1.2c8.4-1.4,16-5.2,21.1-12.4C-77.7-195.2-78.5-204.3-83.3-208.4"/>
		</g>
		<path id="Fill-49_2_" class="st5" d="M-32.1,11.3c2.4-5.9,5-10.5,7.5-13.6c2.4-2.7,3.9-3.5,5.9-4.2c2.7-0.9,3.4,1.7,2.1,6.8
			c-1.6,5.9-4.2,11.3-8,16.1c-3.5,4.5-7.3,7-9.6,1.6C-33.4,14.8-32.5,12.3-32.1,11.3 M-31,56.9c14.3-1.7,17.5-12.7,17.8-16.3
			c0.4-5.3-2.3-9.9-7.1-10.8c-3.3-0.6-6.7,1.1-8.5,3.5c-1.3,1.7-1.8,3.6-1.5,5.8c0.2,2.2,1.4,3.9,3.4,5.2c0.2,0.2,0.4,0.2,0.6,0
			c0.1-0.1,0.2-0.3,0.1-0.4c-0.9-2.6,0.8-4.5,2.1-5.3c4.4-2.6,7.7,0.7,7.6,3.6c-0.1,4.5-4.1,9.8-9.2,10.2c-5.4,0.4-7.7-3.9-8.5-5.5
			c-3.1-5.9-2.4-15.1-1.2-23.7c0.1,0.1,0.2,0.1,0.3,0.2c4.6,3.4,10,2.9,16.1-1.6C-14.2,18-10.9,13.1-9,7.1
			c2.2-7.4,0.7-12.7-4.4-16.1c-1.3-0.8-2.8-1.3-4.5-1.3c1-1.2,2-2.5,2.8-3.9c3.3-6.1,3.3-11.3,0.2-15.7c-3.2-4.3-8.3-6-13.8-5.3
			c-5.4,0.6-12.6,3-18.6,9.2c-1.5,1.6-8.7,7.1-13.3,26.7c-0.3,0.9-0.5,1.9-0.7,2.8l-6.1,31.4l-13.7-55c-0.5-2.5,0.2-4.8,1.8-6.9
			c0.4-0.7,0.2-1-0.5-0.9c-1.3,0.3-33.4,5.3-33.4,5.3c-11.1,1.7-25.5,3.9-32.3,16.3c-5.4,9.9-0.2,22.6,10.3,23.4
			c3.8,0.3,9.6-1.1,12.4-3.8c2.8-2.7,4.4-5,4.8-8.7c0.3-3-0.5-5.4-2.5-7.4c-2-2-4.8-2.7-8.6-2.1c-1.1,0.2-1.3,0.7-0.6,0.9
			c1.2,0.3,2.2,1.3,2.1,3.2c-0.1,2.3-1.3,4.1-3.1,5.1c-1.8,1-5.1,1.4-7-0.8c-1.9-2-2.3-5.2-1.1-8.6c3.1-8.8,12.1-11.6,23.7-13.4
			l16.9-2.6l2.4,8.2l-2.5,12.4l-9.8,51.2l-0.7,3.4l-0.9,3.3c-0.6,2-1.3,4.2-2.3,6.4c-1.8,4.4-8.8,16.6-19.3,18.2
			c-6.1,0.9-11.2-0.5-14.2-4.1c-0.1-0.1-0.1-0.2-0.2-0.2c-0.2-0.3-0.4-0.5-0.6-0.8c-0.1-0.1-0.1-0.2-0.1-0.2
			c-0.8-1.2-1.3-2.7-1.6-4.3c0-0.3-0.1-0.6-0.1-0.9c-0.7-9.8,6.1-14.9,11.4-15.8c2.6-0.4,5.9,1.2,4.9,5.1c-0.6,2.3-2.3,3.9-4.3,4.6
			c-1.4,0.5-2.1,0.3-2.8,0.1c-0.5-0.2-1,0.4-0.6,0.7c0.6,0.6,1.2,1.2,3,1.9c1.7,0.6,4.3,0.9,7.2,0.2c3-0.7,6.5-2.3,9.4-5.9
			c1.4-1.8,2.7-4,3.4-6.9c0.6-2.8,0.5-6.4-1.1-9.2c-0.4-0.7-0.7-1.3-1.4-2.1c-0.3-0.4-0.6-0.7-1-1.1l-0.4-0.4
			c-1.1-1-2.5-1.9-3.9-2.6c-2.9-1.4-6.3-1.9-9.4-1.5c-6.2,0.7-11.2,3.9-14.9,7.5c-3.7,3.5-6.1,7.9-7.9,12.4
			c-1.1,2.8-1.5,5.8-1.6,8.8c0,0,0,0,0,0c0,0.5,0,0.9,0,1.4c0,0.2,0,0.4,0,0.7c0,0.5,0.1,0.9,0.1,1.4c0,0.2,0.1,0.4,0.1,0.7
			c0.1,0.3,0.1,0.7,0.1,1c0.1,0.3,0.2,0.6,0.3,0.9c0.1,0.4,0.2,0.9,0.4,1.3c0.1,0.4,0.3,0.9,0.4,1.3c4.5,12.4,16.9,12.6,22.3,11.8
			c16.5-2.6,22.6-14.5,26-21.8c1.1-2.4,1.9-4.8,2.6-7.1l1-3.6l0.8-3.5l10.6-55.6l19.4,66c0.9,1.3,2,1.8,3.1,1.5
			c1.2-0.3,2-1.1,2.4-2.3l3.2-16.2l0-0.1L-58,9.5l0.7-3.2c2-8.5,3.8-12.4,8.3-18.5c4.5-6,11.2-8.9,16.5-8.9c5.6,0,8.1,4.5,7.4,7.8
			c-0.6,2.8-2.2,5.8-4.4,7.2c0,0,0,0,0,0.1c-2.2,1.5-4.3,3.4-6.5,5.7c-2.2,2.3-4.3,5.2-6.3,8.5c-0.4,0.6-0.8,1.4-1.3,2.4
			c-1.6,2.9-3.1,6.2-4,10c-4.2,17.9-0.4,28.3,3.8,32.4C-40.3,56.6-35.5,57.4-31,56.9"/>
		<path id="Fill-51_2_" class="st5" d="M36.7-40.7c-4.8,7-2.8,16.8,6.1,16.8c0.3,0,0.4-0.3,0.3-0.5c-1.2-1.9-0.5-5.1,1.2-6.8
			c2.7-2.8,6-3.1,8.5-1.9c1.2,0.6,4.3,2.4,4.2,8.4c-0.1,4.8-2.7,11.6-10.4,26.4c0,0.1-0.1,0.1-0.1,0.2c-2.7,5.1-5.3,10.1-8.5,16.4
			c-0.7-9.5-1.8-24-1.8-24.1c0.1-4.2,0.8-7.2,2.3-8.9c0.3-0.4,0.2-0.6,0-0.7l-18,2.8c-0.3,0.1-0.4,0.3-0.5,0.6
			c-0.1,0.2,0,0.4,0.3,0.6c1.8,1,2.9,3.5,3.3,7.6c0,0.1,0.3,2.6,0.7,6.2L14,21.7l-1.7-24c0.1-4.2,0.9-7.2,2.4-8.9
			c0.2-0.2,0.2-0.4,0.2-0.5c-0.1-0.1-0.2-0.2-0.4-0.1L-3.3-9C-3.7-8.9-3.9-8.7-4-8.4c-0.1,0.2,0,0.4,0.3,0.6
			c1.7,0.9,2.9,3.4,3.3,7.6c0.2,1.4,5,45,5,45c0.1,0.5,0.5,0.7,1.1,0.7c0.6-0.1,1-0.4,1.3-1l6.6-13.1L25,9.5
			c1.1,9.4,2.4,21.4,3.1,27.5l-2.5,4.9c-4.3,8.4-5.1,15.2-2.2,20.3c3.2,5.7,10.1,7.4,13.3,7.4c1.3,0,2.5-0.1,3.7-0.2
			c7.1-1.1,14.4-6.1,17.5-13c2.5-5.5,1.8-10.8-0.3-13.8c-1.1-1.6-3.7-3.3-6.3-3.7c-2.9-0.4-6.8,0.4-9.9,3.5
			c-2.8,2.8-3.4,6.4-2.8,8.8c0.9,3.5,4,3.8,5.1,3.7c0.3,0,0.2-0.2,0.1-0.4c-0.4-0.6-0.5-1.9,0.3-3.2c1.3-2.1,4.6-3.1,6.3-2.4
			c2.1,0.9,3.3,3.5,2.3,6.6c-1.4,4.5-5.6,9.4-14.8,9.7c-3.5,0.1-8.4-1-10.9-5.4c-2.2-3.8-1.4-9.3,2.2-16.3l9-17.3
			c3.7-7.1,6.6-12.6,9.3-17.8C50.5,3,53.7-2.9,53.8-3c5.9-11.2,9.1-19.3,10-23.9c0.9-4,1.3-7,1.2-9c-0.4-5.3-2.5-8.9-6.4-10.9
			c-3.9-1.9-8-2.2-12.3-0.9C41.9-46.3,38.9-43.9,36.7-40.7"/>
	</g>
</g>
<g id="Layer_2" class="st0">
	<path id="divider" class="st9" d="M133.3,226.2c0,0,0,0.1,0,0.1c0,0.1,0,0.2,0,0.4c0,0.2,0,0.3,0,0.5c0.1,0.1,0.1,0.2,0.1,0.4
		c0,0,0,0,0,0.1c0,0.2,0.1,0.4,0.1,0.6c0,0,0,0.1,0,0.1c0.1,0.1,0.1,0.2,0.1,0.3c0,0,0,0.1,0.1,0.1c0,0,0.1,0.1,0.1,0.1
		c0,0.2,0.1,0.4,0.2,0.6c0.1,0.1,0.1,0.2,0.2,0.3c0.1,0.1,0.1,0.2,0.2,0.3c0.1,0.1,0.2,0.2,0.2,0.3c0.1,0.1,0.1,0.2,0.2,0.4
		c0,0.1-0.1,0.2-0.1,0.3c0,0-0.1,0.1-0.1,0.1c-0.1,0.1-0.1,0.3-0.2,0.4c0,0.1-0.1,0.2-0.1,0.3c-0.1,0.3-0.2,0.5-0.4,0.8
		c0,0.1-0.1,0.1-0.1,0.2c-0.2,0.3-0.3,0.6-0.4,0.9c0,0.1-0.1,0.2-0.2,0.3c0,0-0.1,0.1-0.1,0.1c-0.1,0.3-0.2,0.5-0.3,0.8
		c0,0,0,0.1-0.1,0.1c-0.1,0.1-0.1,0.2-0.1,0.3c0,0.1,0,0.1-0.1,0.1c-0.1,0-0.1,0-0.2,0c0,0,0-0.1,0-0.1c0,0,0-0.1,0-0.1
		c-0.2-0.3-0.4-0.7-0.6-1.1c-0.1-0.2-0.2-0.3-0.3-0.5c-0.1-0.2-0.2-0.4-0.3-0.6c-0.1-0.2-0.2-0.4-0.3-0.6c-0.2-0.3-0.3-0.7-0.5-1
		c-0.1-0.1-0.2-0.3-0.2-0.5c0-0.1,0-0.1,0-0.2c0.1-0.1,0.2-0.2,0.3-0.3c0,0,0.1-0.1,0.1-0.1c0,0,0.1-0.1,0.1-0.1
		c0.1-0.2,0.2-0.4,0.4-0.7c0.1-0.2,0.2-0.3,0.2-0.5c0.1-0.2,0.1-0.4,0.2-0.5c0.1-0.2,0.1-0.3,0.2-0.5c0-0.1,0.1-0.2,0.1-0.3
		c0,0,0-0.1,0-0.1c0.1-0.3,0.1-0.6,0.2-0.8c0-0.1,0-0.2,0.1-0.2c0-0.1,0-0.1-0.1-0.1c-0.1,0-0.1,0-0.2,0c-0.1,0-0.1,0-0.2,0
		c0,0,0,0,0,0.1c0,0.2-0.1,0.4-0.1,0.7c-0.1,0.2-0.1,0.5-0.2,0.7c0,0.1,0,0.1-0.1,0.2c-0.1,0.1-0.1,0.3-0.1,0.4c0,0.1,0,0.2-0.1,0.3
		c-0.1,0.2-0.2,0.4-0.3,0.6c-0.1,0.2-0.3,0.4-0.4,0.6c-0.2,0.2-0.3,0.4-0.6,0.6c-0.2,0.1-0.4,0.3-0.6,0.4c-0.2,0.1-0.3,0.1-0.5,0.2
		c-0.1,0-0.2,0-0.2,0c-0.2,0.1-0.5,0.1-0.7,0.1c-0.2,0-0.3-0.1-0.5-0.1c-0.1,0-0.1,0-0.2-0.1c0,0-0.1,0-0.1,0
		c-0.2-0.1-0.3-0.2-0.5-0.3c-0.1-0.1-0.1-0.1-0.2-0.2c-0.2-0.3-0.2-0.5-0.2-0.8c0-0.1,0-0.3,0-0.4c0-0.2,0-0.4,0.1-0.6
		c0-0.2,0.1-0.3,0.2-0.5c0.1-0.3,0.3-0.5,0.5-0.7c0.1-0.1,0.2-0.1,0.3-0.2c0,0,0.1,0,0.1,0c0.1,0,0.1,0,0.1,0.1
		c0,0.2,0.1,0.3,0.1,0.5c0,0.2,0.1,0.3,0.2,0.5c0.1,0.2,0.3,0.3,0.5,0.4c0.2,0.1,0.3,0.1,0.5,0.1c0,0,0.1,0,0.1,0
		c0.1-0.1,0.2-0.1,0.3-0.2c0.1-0.1,0.2-0.2,0.3-0.3c0.3-0.2,0.4-0.5,0.6-0.8c0.1-0.2,0.2-0.4,0.3-0.6c0-0.1,0-0.1,0-0.2
		c0,0-0.1,0-0.1,0c-0.2,0.1-0.3,0-0.5,0c0,0,0,0,0,0c-0.1-0.1-0.1-0.1-0.1-0.2c0-0.1,0-0.1-0.1-0.2c-0.1-0.1-0.1-0.2-0.1-0.3
		c0,0,0-0.1,0-0.1c0-0.1,0-0.2,0-0.2c0-0.1,0-0.2,0-0.2c0,0,0-0.1,0-0.1c0-0.1,0.1-0.2,0.1-0.3c0-0.1,0.1-0.2,0.2-0.2
		c0.1,0,0.1,0,0.1,0c0.1-0.1,0.3-0.1,0.4-0.2c0.1-0.1,0.3-0.1,0.4-0.1c0.1,0,0.1,0,0.2,0c0-0.1,0-0.2,0-0.2c0,0,0-0.1,0-0.1
		c0-0.5-0.1-0.9-0.2-1.3c0-0.2-0.1-0.4-0.2-0.5c0-0.1-0.1-0.2-0.1-0.3c0-0.1-0.1-0.1-0.1-0.1c-0.1-0.3-0.3-0.5-0.5-0.7
		c0,0-0.1-0.1-0.1-0.1c-0.1-0.1-0.2-0.2-0.3-0.2c-0.1,0-0.2-0.1-0.2-0.2c-0.1,0-0.1-0.1-0.2-0.1c-0.1,0-0.2-0.1-0.3-0.2
		c-0.1-0.1-0.3-0.1-0.4-0.2c-0.3-0.1-0.6-0.1-0.9-0.1c-0.1,0-0.2,0-0.3,0c0,0-0.1,0-0.1,0c-0.3,0-0.5,0.1-0.8,0.1
		c-0.1,0-0.2,0.1-0.3,0.1c-0.1,0.1-0.2,0.1-0.3,0.2c-0.1,0-0.2,0.1-0.3,0.2c-0.2,0.2-0.4,0.3-0.5,0.5c-0.2,0.2-0.3,0.5-0.4,0.8
		c0,0.1-0.1,0.2-0.1,0.3c0,0,0,0.1,0,0.1c0,0.1,0,0.2,0,0.3c0,0.2,0,0.5,0,0.7c0,0.1,0,0.1,0,0.2c0.1,0.3,0.3,0.6,0.6,0.9
		c0.2,0.1,0.2,0.3,0.4,0.4c0,0,0.1,0.1,0.1,0.1c0,0.1-0.1,0.1-0.2,0.1c-0.1,0-0.1,0-0.2,0c-0.3,0-0.6,0-1,0c-0.2,0-0.4,0-0.6-0.1
		c-0.1,0-0.1,0-0.2,0c-0.2,0-0.4-0.1-0.6-0.2c-0.2-0.1-0.3-0.1-0.5-0.2c-0.2-0.1-0.4-0.2-0.6-0.4c-0.4-0.3-0.7-0.8-1-1.2
		c-0.2-0.3-0.4-0.7-0.5-1.1c-0.1-0.2-0.1-0.4-0.1-0.6c0-0.2,0-0.4,0-0.6c0-0.1,0-0.3,0-0.4c0,0,0-0.1,0-0.1c0-0.2,0.1-0.5,0.1-0.7
		c0-0.1,0-0.2,0.1-0.3c0,0,0,0,0,0c0.1-0.4,0.3-0.7,0.5-1.1c0.1-0.1,0.1-0.2,0.2-0.3c0,0,0-0.1,0-0.1c0-0.1,0-0.1,0.1-0.1
		c0.1-0.1,0.3-0.2,0.4-0.3c0.2-0.2,0.4-0.3,0.6-0.5c0.2-0.2,0.5-0.3,0.7-0.4c0.2-0.1,0.4-0.2,0.6-0.2c0,0,0,0,0.1,0
		c0.2-0.1,0.4-0.1,0.5-0.2c0.1,0,0.2-0.1,0.3-0.1c0.1,0,0.2,0,0.3,0c0,0,0,0,0.1,0c0.2,0,0.5,0,0.7,0c0.1,0,0.3,0,0.4,0.1
		c0.1,0,0.2,0,0.4,0.1c0.2,0,0.3,0.1,0.5,0.1c0.2,0,0.4,0.1,0.7,0.2c0,0,0.1,0,0.1,0c0.2,0,0.4,0.2,0.6,0.2c0.2,0.2,0.5,0.2,0.6,0.4
		c0,0,0.1,0.1,0.1,0.1c0.1,0.1,0.2,0.1,0.3,0.2c0.1,0.1,0.2,0.1,0.2,0.2c0,0,0,0,0,0c0.2,0.2,0.4,0.2,0.5,0.4
		c0.1,0.1,0.2,0.2,0.3,0.3c0.1,0,0.1,0.1,0.2,0.2c0.1,0.1,0.2,0.2,0.3,0.3c0,0,0,0,0.1,0.1c0.1,0.2,0.2,0.3,0.4,0.5
		c0.1,0.1,0.1,0.2,0.1,0.2c0.2,0.3,0.4,0.7,0.5,1c0,0,0,0.1,0,0.1c0.1,0.2,0.2,0.3,0.2,0.5c0,0.1,0.1,0.2,0.1,0.3c0,0.1,0,0.1,0,0.2
		c0,0.1,0,0.1,0,0.2c0.1,0.3,0.1,0.5,0.2,0.8c0.1,0.2,0.1,0.5,0.1,0.8c0,0.2,0,0.3,0,0.5c0,0.2,0,0.3,0,0.5c0,0,0,0.1,0,0.1
		c0.1,0,0.2,0,0.4,0c0.1,0,0.1,0,0.1-0.1c0,0,0,0,0,0c-0.1-0.2,0-0.5,0-0.7c0-0.1,0-0.2,0-0.2c0,0,0-0.1,0-0.1
		c0-0.3-0.1-0.6-0.2-0.9c0-0.2-0.1-0.5-0.2-0.7c0-0.1-0.1-0.3-0.1-0.4c0-0.3-0.1-0.5-0.3-0.8c0-0.1-0.1-0.2-0.1-0.3
		c-0.1-0.1-0.1-0.3-0.1-0.4c0-0.1,0-0.1,0-0.2c-0.1-0.2-0.2-0.4-0.4-0.6c-0.1-0.1-0.1-0.2-0.2-0.3c0,0,0-0.1-0.1-0.1
		c-0.1-0.1-0.2-0.2-0.3-0.4c-0.1-0.2-0.2-0.4-0.4-0.6c-0.1-0.1-0.2-0.3-0.3-0.4c-0.1-0.2-0.2-0.4-0.3-0.6c0,0,0-0.1-0.1-0.1
		c0-0.1-0.1-0.1-0.1-0.2c0-0.1-0.1-0.2-0.1-0.2c0,0,0,0,0-0.1c-0.1-0.3-0.2-0.6-0.4-0.9c-0.1-0.1-0.1-0.3-0.1-0.5
		c-0.1-0.3-0.1-0.5-0.2-0.8c0,0,0-0.1,0-0.1c0-0.5-0.1-1,0-1.5c0-0.3,0.1-0.6,0.2-0.9c0-0.1,0.1-0.1,0.1-0.2
		c0.1-0.3,0.2-0.5,0.3-0.8c0.1-0.1,0.1-0.2,0.2-0.3c0.1-0.2,0.3-0.5,0.4-0.7c0.1-0.1,0.1-0.2,0.2-0.2c0.2-0.2,0.3-0.3,0.4-0.5
		c0.1-0.1,0.1-0.2,0.2-0.3c0,0,0-0.1,0.1-0.1c0.1-0.2,0.3-0.4,0.4-0.6c0.1-0.2,0.3-0.4,0.4-0.6c0.1-0.2,0.2-0.4,0.3-0.5
		c0-0.1,0.1-0.2,0-0.2c0.1-0.3,0.3-0.6,0.4-0.8c0.1-0.1,0.1-0.3,0.2-0.4c0-0.1,0.1-0.2,0.1-0.3c0,0,0,0,0,0c0.1-0.2,0.2-0.4,0.3-0.6
		c0.1-0.1,0.1-0.3,0.2-0.4c0.1-0.1,0.1-0.2,0.2-0.4c0-0.1,0.1-0.1,0.1,0c0,0,0,0,0,0.1c0.1,0.2,0.1,0.3,0.2,0.5
		c0.1,0.2,0.2,0.4,0.2,0.6c0.1,0.2,0.2,0.4,0.2,0.5c0,0.1,0.1,0.2,0.1,0.3c0,0.1,0.1,0.1,0.1,0.2c0.1,0.1,0.2,0.2,0.2,0.4
		c0.1,0.2,0.2,0.4,0.3,0.7c0.1,0.1,0.2,0.3,0.2,0.4c0.1,0.2,0.2,0.4,0.3,0.6c0.1,0.2,0.2,0.4,0.3,0.6c0.1,0.2,0.3,0.5,0.4,0.7
		c0,0,0,0,0,0.1c0.1,0.1,0.2,0.2,0.2,0.3c0,0,0,0,0,0c0.1,0.2,0.3,0.4,0.5,0.6c0.1,0.2,0.2,0.4,0.3,0.6c0.1,0.2,0.2,0.4,0.2,0.6
		c0.1,0.1,0.1,0.3,0.1,0.4c0,0,0,0.1,0,0.1c0.1,0.3,0.1,0.6,0.2,1c0,0.2,0,0.4,0,0.6c0,0.1,0,0.3,0,0.4c0,0.2,0,0.4,0,0.5
		c0,0.1,0,0.3,0,0.4c0,0.1,0,0.2-0.1,0.3c0,0,0,0.1-0.1,0.2c-0.1,0.2-0.2,0.4-0.3,0.6c-0.1,0.3-0.3,0.6-0.4,0.9
		c-0.1,0.1-0.1,0.3-0.2,0.4c-0.1,0.2-0.2,0.4-0.3,0.6c-0.1,0.1-0.2,0.3-0.2,0.4c0,0.1-0.1,0.1-0.1,0.2c-0.1,0.2-0.3,0.4-0.5,0.7
		c-0.1,0.1-0.1,0.2-0.2,0.3c-0.2,0.2-0.3,0.5-0.4,0.7c-0.1,0.2-0.2,0.5-0.3,0.7c-0.1,0.3-0.2,0.5-0.3,0.8c0,0.1,0,0.2-0.1,0.3
		c0,0.1-0.1,0.2-0.1,0.4c0,0.2-0.1,0.4-0.1,0.7c0,0.1,0,0.2-0.1,0.3c0,0.1,0,0.3-0.1,0.4c-0.1,0.3-0.1,0.5-0.1,0.8
		c0,0.2,0,0.3,0,0.5c0.1,0,0.2,0,0.4,0c0-0.1,0.1-0.3,0.1-0.4c0-0.1,0-0.2,0-0.3c0-0.1,0-0.3,0.1-0.4c0-0.1,0-0.1,0-0.2
		c0-0.2,0.1-0.5,0.2-0.7c0.1-0.4,0.2-0.7,0.3-1.1c0-0.1,0.1-0.2,0.1-0.3c0.1-0.2,0.1-0.3,0.2-0.5c0-0.1,0.1-0.3,0.2-0.4
		c0,0,0-0.1,0.1-0.1c0.1-0.1,0.1-0.2,0.2-0.3c0.2-0.4,0.5-0.7,0.8-1c0.2-0.2,0.3-0.4,0.6-0.6c0.1-0.1,0.2-0.2,0.3-0.3
		c0.1-0.1,0.1-0.1,0.2-0.2c0.1-0.1,0.1-0.1,0.2-0.1c0.1,0,0.1-0.1,0.2-0.1c0.2-0.2,0.5-0.4,0.8-0.5c0.1-0.1,0.3-0.1,0.4-0.2
		c0.1,0,0.2-0.1,0.3-0.1c0,0,0.1,0,0.1,0c0.2-0.1,0.3-0.1,0.5-0.2c0.3-0.1,0.5-0.2,0.8-0.2c0.1,0,0.2,0,0.2,0c0.1,0,0.2,0,0.3,0
		c0.1,0,0.2,0,0.3,0c0.2,0,0.4,0,0.7,0c0.2,0,0.4,0.1,0.7,0.1c0,0,0,0,0,0c0.1,0.1,0.3,0.1,0.4,0.1c0.2,0.1,0.5,0.1,0.7,0.3
		c0.1,0,0.2,0.1,0.3,0.1c0.2,0,0.5,0.3,0.6,0.4c0,0.1,0.1,0.1,0.1,0.1c0.2,0.2,0.4,0.4,0.6,0.6c0.1,0.1,0.2,0.2,0.3,0.4
		c0.2,0.3,0.3,0.6,0.4,0.9c0,0.1,0,0.1,0.1,0.2c0,0.1,0.1,0.2,0.1,0.3c0,0.1,0,0.2,0.1,0.3c0,0,0,0.1,0,0.1c0,0.2,0,0.5,0.1,0.7
		c0,0.1,0,0.1,0,0.2c0,0.4,0,0.8-0.1,1.1c0,0.1,0,0.2-0.1,0.3c0,0.1-0.1,0.2-0.1,0.3c0,0.1-0.1,0.2-0.1,0.3c0,0,0,0.1,0,0.1
		c-0.1,0.4-0.3,0.6-0.6,0.9c-0.1,0.1-0.3,0.3-0.4,0.4c0,0-0.1,0-0.1,0.1c-0.1,0.2-0.3,0.2-0.4,0.4c-0.1,0.1-0.2,0.1-0.3,0.2
		c0,0-0.1,0-0.1,0c-0.2,0-0.3,0.1-0.5,0.1c-0.3,0.1-0.7,0.2-1,0.2c-0.2,0-0.3,0-0.5,0c-0.2,0-0.5,0-0.7,0c-0.1,0-0.2,0-0.3,0
		c0,0,0,0-0.1,0c0,0,0-0.1,0-0.1c0.1-0.1,0.2-0.2,0.3-0.3c0.1-0.1,0.2-0.2,0.3-0.4c0.1-0.1,0.2-0.3,0.3-0.5c0,0,0-0.1,0.1-0.1
		c0-0.1,0.1-0.1,0-0.2c0,0,0,0,0-0.1c0.1-0.2,0.1-0.5,0-0.7c0-0.1,0-0.2,0-0.2c0-0.1,0-0.1,0-0.2c-0.1-0.2-0.2-0.5-0.3-0.7
		c-0.1-0.1-0.2-0.3-0.3-0.4c0-0.1-0.1-0.1-0.1-0.2c0,0-0.1-0.1-0.1-0.1c-0.1-0.1-0.2-0.2-0.3-0.2c-0.1-0.1-0.3-0.2-0.4-0.3
		c0,0-0.1-0.1-0.2-0.1c-0.2-0.1-0.5-0.2-0.7-0.2c-0.1,0-0.2,0-0.2,0c-0.2,0-0.4,0-0.7,0c-0.3,0-0.6,0.1-0.9,0.2
		c-0.1,0-0.2,0.1-0.3,0.1c-0.1,0-0.2,0.1-0.3,0.1c-0.1,0-0.1,0.1-0.2,0.1c-0.1,0.1-0.2,0.1-0.3,0.2c0,0-0.1,0.1-0.1,0.1
		c-0.1,0.1-0.2,0.3-0.3,0.4c-0.1,0.1-0.1,0.1-0.2,0.2c-0.2,0.2-0.4,0.5-0.5,0.7c0,0,0,0,0,0.1c0,0.1-0.1,0.3-0.1,0.4
		c-0.1,0.3-0.1,0.5-0.2,0.8c0,0.2,0,0.4,0,0.6c0,0.1,0,0.2,0,0.3c0,0,0,0,0,0.1c0,0,0.1,0,0.1,0c0.1,0,0.3,0.1,0.4,0.2
		c0.1,0.1,0.2,0.1,0.3,0.1c0.2,0.1,0.3,0.2,0.4,0.3c0.1,0,0.1,0.1,0.1,0.2c0,0.1,0,0.2,0,0.4c0,0.1,0,0.2-0.1,0.4
		c-0.1,0.2-0.2,0.4-0.3,0.6c-0.1,0.2-0.3,0.2-0.4,0.1c-0.1,0-0.1,0-0.2-0.1c-0.1,0,0,0.1,0,0.1c0.1,0.2,0.1,0.4,0.2,0.6
		c0,0.1,0.1,0.1,0.1,0.2c0.1,0.2,0.2,0.3,0.3,0.4c0.1,0,0.1,0.1,0.1,0.2c0.1,0.2,0.2,0.3,0.4,0.4c0,0,0,0,0.1,0.1
		c0.1,0.1,0.3,0.2,0.4,0.2c0.1,0,0.5,0,0.5-0.1c0.1-0.1,0.2-0.1,0.3-0.2c0.1-0.1,0.2-0.2,0.2-0.3c0.1-0.2,0.2-0.4,0.2-0.6
		c0-0.1,0-0.1,0.1-0.2c0-0.1,0-0.1,0.1-0.1c0.1,0,0.1,0,0.2,0c0,0,0.1,0,0.1,0.1c0.1,0.1,0.1,0.2,0.2,0.2c0,0,0,0,0.1,0.1
		c0.1,0.2,0.2,0.3,0.3,0.5c0.1,0.2,0.2,0.5,0.3,0.8c0,0.1,0,0.1,0,0.2c0,0.1,0,0.3,0,0.4c0,0.2,0,0.3,0,0.5c0,0.1,0,0.1-0.1,0.2
		c0,0,0,0.1-0.1,0.1c0,0,0,0.1,0,0.2c0,0.1,0,0.1-0.1,0.2c-0.1,0-0.2,0.1-0.2,0.2c-0.1,0.1-0.3,0.2-0.4,0.3c-0.1,0-0.1,0.1-0.2,0.1
		c-0.1,0.1-0.3,0.1-0.4,0.1c-0.1,0-0.2,0-0.3,0c-0.1,0-0.1,0-0.2,0c-0.4-0.1-0.7-0.1-1.1-0.3c0,0-0.1,0-0.1,0
		c-0.1,0-0.1-0.1-0.2-0.1c0,0-0.1,0-0.1-0.1c-0.1-0.1-0.3-0.1-0.4-0.2c-0.3-0.4-0.6-0.7-0.8-1.2c-0.1-0.2-0.2-0.4-0.3-0.7
		c-0.1-0.2-0.1-0.5-0.2-0.7c-0.1-0.2-0.2-0.5-0.3-0.8c0-0.1,0-0.2-0.1-0.2c0-0.2-0.1-0.3-0.1-0.5c0-0.1-0.1-0.1-0.1-0.1
		C133.5,226.2,133.4,226.1,133.3,226.2 M134.7,208.4C134.7,208.4,134.7,208.4,134.7,208.4C134.7,208.4,134.7,208.4,134.7,208.4
		C134.8,208.4,134.8,208.4,134.7,208.4C134.8,208.4,134.8,208.4,134.7,208.4 M132.5,204C132.4,204.1,132.4,204.1,132.5,204
		c-0.1,0.3-0.2,0.4-0.3,0.6c-0.1,0.1-0.1,0.3-0.2,0.4c0,0.1-0.1,0.2-0.1,0.3c-0.2,0.4-0.4,0.7-0.5,1.1c0,0.1-0.1,0.1-0.1,0.2
		c-0.1,0.1-0.2,0.3-0.3,0.4c-0.1,0.1-0.1,0.2-0.1,0.3c-0.2,0.4-0.4,0.7-0.7,1.1c-0.2,0.3-0.5,0.7-0.7,1c-0.1,0.2-0.2,0.3-0.3,0.5
		c0,0,0,0.1,0,0.1c0,0.1,0,0.1-0.1,0.2c-0.1,0.2-0.2,0.4-0.3,0.6c0,0.1-0.1,0.2-0.1,0.3c0,0.1-0.1,0.2-0.1,0.2
		c0,0.2-0.1,0.4-0.1,0.7c0,0.3,0,0.7,0,1c0,0.2,0,0.4,0,0.5c0,0.3,0.1,0.5,0.2,0.8c0,0,0,0.1,0,0.1c0.1,0.3,0.2,0.5,0.3,0.8
		c0.1,0.1,0.1,0.3,0.2,0.4c0,0.1,0.1,0.2,0.1,0.2c0,0.1,0.1,0.2,0.2,0.3c0.1,0.1,0.1,0.2,0.2,0.3c0,0,0.1,0.1,0.1,0.1
		c0.1,0.2,0.2,0.3,0.3,0.4c0.1,0.2,0.2,0.3,0.3,0.5c0.1,0.1,0.1,0.2,0.2,0.3c0.1,0.1,0.2,0.2,0.2,0.3c0,0,0,0.1,0.1,0.1
		c0,0.1,0,0.1,0.1,0.1c0.1,0,0.1,0.1,0.1,0.2c0,0,0,0.1,0,0.1c0.1,0.1,0.1,0.2,0.2,0.3c0.1,0.2,0.2,0.3,0.2,0.5
		c0.1,0.2,0.2,0.3,0.2,0.5c0,0.1,0.1,0.2,0.1,0.3c0,0.1,0.1,0.2,0.1,0.3c0,0,0,0.1,0,0.1c0.1,0.2,0.1,0.4,0.2,0.6
		c0,0.2,0.1,0.4,0.1,0.6c0,0,0,0,0,0c0.1,0.1,0.1,0.3,0.1,0.4c0,0.2,0,0.3,0.1,0.5c0,0.1,0,0.2,0,0.3c0,0.1,0,0.3,0.1,0.4
		c0,0.1,0,0.2,0,0.2c0,0.2,0,0.4,0,0.6c0,0,0,0.1,0,0.1c0,0.1,0,0.1,0,0.2c0,0,0,0.1,0,0.1c0,0,0,0.1-0.1,0.1c0,0,0,0-0.1,0
		c-0.2,0-0.3,0-0.5,0c0,0-0.1,0-0.1,0c-0.1,0-0.2,0-0.3,0c-0.1,0-0.1,0-0.2,0c0,0-0.1,0-0.1-0.1c0-0.1,0-0.1,0-0.2
		c-0.1-0.1,0-0.2,0-0.3c0,0,0-0.1,0-0.1c0-0.2,0-0.4,0-0.7c0-0.1,0-0.2,0-0.3c0-0.2-0.1-0.4-0.1-0.6c-0.1-0.3-0.1-0.5-0.2-0.8
		c0-0.2-0.1-0.3-0.2-0.4c-0.1-0.2-0.3-0.4-0.3-0.6c-0.1-0.2-0.1-0.3-0.2-0.5c-0.1-0.2-0.2-0.3-0.3-0.5c-0.2-0.4-0.5-0.7-0.7-1
		c-0.1-0.2-0.3-0.3-0.5-0.5c-0.1-0.1-0.1-0.1-0.2-0.2c-0.1-0.1-0.1-0.1-0.2-0.1c-0.2-0.2-0.4-0.3-0.6-0.5c-0.1-0.1-0.2-0.1-0.4-0.2
		c-0.2-0.1-0.4-0.2-0.6-0.3c-0.1,0-0.1,0-0.2-0.1c-0.1,0-0.1,0-0.2-0.1c-0.2-0.1-0.3-0.1-0.5-0.2c-0.2-0.1-0.4-0.1-0.6-0.1
		c-0.1,0-0.2,0-0.3,0c-0.2,0-0.3-0.1-0.5-0.1c-0.3,0-0.6,0-0.9,0.1c-0.3,0-0.5,0.1-0.8,0.1c0,0-0.1,0-0.1,0
		c-0.2,0.1-0.3,0.1-0.5,0.2c-0.1,0-0.3,0.1-0.4,0.2c0,0-0.1,0.1-0.1,0.1c-0.3,0.2-0.5,0.3-0.7,0.6c-0.1,0.1-0.3,0.3-0.4,0.5
		c-0.1,0.1-0.2,0.2-0.2,0.3c-0.1,0.2-0.2,0.4-0.3,0.6c-0.1,0.2-0.1,0.4-0.2,0.6c0,0.1-0.1,0.3-0.1,0.4c0,0.2,0,0.5-0.1,0.7
		c0,0.1,0,0.1,0,0.2c0,0.1,0,0.2,0,0.2c0,0.3,0.1,0.5,0.2,0.8c0.1,0.4,0.3,0.8,0.5,1.2c0.1,0.1,0.1,0.2,0.2,0.3
		c0.1,0.1,0.2,0.2,0.4,0.3c0.2,0.2,0.4,0.3,0.6,0.4c0,0,0.1,0.1,0.1,0.1c0.1,0.1,0.2,0.1,0.3,0.2c0.1,0.1,0.2,0.1,0.3,0.2
		c0.1,0,0.2,0.1,0.4,0.1c0.1,0,0.2,0.1,0.3,0.1c0.2,0,0.4,0,0.6,0.1c0.1,0,0.2,0,0.3,0c0,0,0.1,0,0.1-0.1c-0.1-0.1-0.2-0.1-0.3-0.2
		c-0.2-0.1-0.3-0.2-0.5-0.3c-0.2-0.1-0.4-0.2-0.6-0.4c-0.1,0-0.1-0.1-0.1-0.2c0,0,0-0.1,0-0.1c-0.1-0.1-0.2-0.2-0.2-0.3
		c0,0-0.1-0.1-0.1-0.1c-0.2-0.2-0.3-0.4-0.4-0.7c0-0.1,0-0.1,0-0.2c0-0.1-0.1-0.2-0.1-0.3c0,0,0-0.1,0-0.1c0-0.1,0-0.3,0-0.4
		c0-0.3,0-0.5,0-0.8c0-0.1,0-0.2,0.1-0.3c0-0.1,0-0.1,0-0.2c0-0.1,0.1-0.2,0.1-0.4c0-0.1,0.1-0.1,0.1-0.2c0-0.1,0.1-0.2,0.2-0.2
		c0.1-0.2,0.3-0.4,0.5-0.5c0,0,0.1,0,0.1-0.1c0.2-0.1,0.3-0.2,0.5-0.3c0.2-0.1,0.3-0.2,0.5-0.2c0.2-0.1,0.4-0.2,0.6-0.2
		c0.1,0,0.2,0,0.3-0.1c0.1,0,0.2-0.1,0.3-0.1c0.1,0,0.1,0,0.2,0c0.1-0.1,0.3-0.1,0.5,0c0.3,0,0.6,0.1,1,0.2c0.2,0.1,0.4,0.1,0.6,0.2
		c0.2,0.1,0.3,0.1,0.5,0.2c0.2,0.1,0.4,0.2,0.7,0.3c0.2,0.1,0.4,0.2,0.6,0.3c0.1,0,0.1,0.1,0.2,0.1c0.3,0.2,0.5,0.5,0.7,0.8
		c0.2,0.3,0.4,0.5,0.5,0.8c0.1,0.1,0.1,0.3,0.2,0.4c0,0,0,0.1,0,0.1c0.2,0.3,0.3,0.7,0.3,1c0,0.1,0,0.2,0,0.2
		c0.1,0.2,0.1,0.4,0.2,0.6c0,0.1,0,0.1,0,0.2c0.1,0.2,0.1,0.4,0.1,0.6c0,0.2,0,0.4-0.1,0.7c0,0,0,0.1-0.1,0.1c-0.1,0-0.1,0-0.2,0.1
		c0,0,0,0-0.1,0c-0.2,0.1-0.3,0.1-0.5,0.2c-0.2,0.1-0.4,0.2-0.6,0.3c0,0-0.1,0.1-0.1,0.1c0,0.1,0,0.2,0,0.3c0,0.1,0,0.2,0.1,0.3
		c0.1,0,0.1-0.1,0.1-0.2c0.2-0.1,0.4-0.1,0.6-0.1c0,0,0.1,0,0.1,0c0.1,0,0.2-0.1,0.2-0.1c0.1,0,0.1,0,0.2,0c0.2,0,0.5-0.1,0.7-0.1
		c0.1,0,0.2,0,0.2,0c0.3-0.1,0.5-0.1,0.8-0.1c0.2,0,0.3,0,0.5,0c0.1,0,0.2,0,0.3,0c0.2,0,0.4,0,0.6,0.1c0.2,0,0.5,0.1,0.7,0.1
		c0.1,0,0.3,0.1,0.4,0.1c0,0,0.1,0,0.2,0.1c0.1,0,0.2,0.1,0.3,0.1c0.1,0,0.2,0.1,0.2,0.1c0.1,0,0.1,0.1,0.2,0.1c0,0,0.1,0,0.1,0
		c0.1-0.1,0.1-0.1,0.1-0.2c0-0.1,0-0.2,0-0.3c0,0,0-0.1,0-0.1c-0.1,0-0.2-0.1-0.2-0.2c0,0,0,0-0.1,0c-0.1,0-0.1-0.1-0.2-0.1
		c-0.1-0.1-0.2-0.1-0.4-0.2c0,0-0.1,0-0.1,0c-0.1-0.1-0.2-0.1-0.4-0.1c-0.1,0-0.1,0-0.2,0c0,0-0.1,0-0.1,0c0-0.1,0-0.2,0-0.2
		c0-0.1,0-0.1,0-0.2c0-0.1,0-0.1,0-0.2c0-0.4,0.1-0.8,0.2-1.3c0-0.1,0-0.2,0.1-0.3c0.1-0.4,0.2-0.7,0.4-1.1c0.1-0.3,0.2-0.5,0.4-0.8
		c0.1-0.2,0.3-0.4,0.4-0.6c0.1-0.1,0.2-0.3,0.3-0.4c0.1-0.1,0.1-0.2,0.2-0.2c0.1-0.1,0.2-0.2,0.3-0.3c0.1-0.1,0.3-0.3,0.5-0.4
		c0.2-0.1,0.5-0.2,0.7-0.3c0.2-0.1,0.4-0.1,0.6-0.2c0.2-0.1,0.5-0.1,0.7-0.2c0,0,0.1,0,0.1,0c0.3-0.1,0.6-0.1,0.8-0.1
		c0.3,0,0.6,0,0.9,0c0.2,0,0.4,0,0.6,0.1c0.2,0.1,0.4,0.1,0.5,0.2c0,0,0,0,0,0c0.2,0.1,0.3,0.2,0.5,0.3c0.2,0.1,0.3,0.3,0.5,0.5
		c0,0,0,0,0,0c0.1,0.1,0.1,0.2,0.2,0.3c0,0.1,0.1,0.1,0.1,0.2c0,0,0.1,0.1,0.1,0.1c0,0.1,0,0.1,0.1,0.1c0.1,0,0.1,0.1,0.2,0.2
		c0.1,0.2,0.1,0.4,0.1,0.6c0,0.1,0,0.1,0,0.2c0,0.1,0,0.2,0.1,0.2c0,0,0,0.1,0,0.1c0,0.1,0,0.2,0,0.4c0.1,0.2,0,0.3,0,0.5
		c0,0.1-0.1,0.2-0.1,0.3c0,0.1,0,0.1-0.1,0.2c-0.1,0.2-0.2,0.5-0.4,0.7c-0.1,0.1-0.2,0.2-0.3,0.4c-0.2,0.2-0.4,0.5-0.7,0.6
		c-0.1,0.1-0.2,0.1-0.3,0.2c-0.2,0.1-0.3,0.2-0.5,0.3c0,0,0,0,0,0.1c0.2,0,0.3,0,0.5,0c0.2,0,0.4,0,0.6-0.1c0.2-0.1,0.4-0.1,0.6-0.2
		c0.1,0,0.2-0.1,0.3-0.1c0,0,0.1,0,0.1-0.1c0.4-0.2,0.7-0.4,1-0.7c0.1-0.1,0.2-0.2,0.2-0.3c0.3-0.4,0.5-0.8,0.7-1.3
		c0.1-0.3,0.1-0.7,0.1-1.1c0-0.3,0-0.6,0-0.9c0-0.3-0.1-0.7-0.2-1c0,0,0-0.1,0-0.1c-0.1-0.2-0.1-0.4-0.2-0.6c0-0.1,0-0.1-0.1-0.2
		c-0.1-0.1-0.2-0.2-0.2-0.4c-0.1-0.1-0.2-0.2-0.3-0.3c-0.1-0.1-0.1-0.1-0.2-0.2c-0.2-0.1-0.3-0.3-0.5-0.3c0,0-0.1,0-0.1,0
		c-0.1-0.1-0.1-0.1-0.2-0.1c0,0,0,0-0.1,0c-0.1-0.1-0.2-0.2-0.4-0.2c-0.1-0.1-0.3-0.1-0.4-0.2c-0.3-0.1-0.6-0.2-0.8-0.2
		c-0.3,0-0.6-0.1-1,0c-0.4,0-0.7,0-1.1,0.1c0,0-0.1,0-0.1,0c-0.2,0.1-0.4,0.1-0.7,0.2c-0.1,0-0.2,0.1-0.2,0.1
		c-0.3,0.1-0.5,0.2-0.8,0.4c-0.2,0.1-0.4,0.3-0.6,0.4c-0.2,0.1-0.3,0.2-0.5,0.4c-0.1,0.1-0.1,0.2-0.2,0.2c-0.1,0-0.1,0.1-0.2,0.1
		c-0.1,0.1-0.2,0.3-0.4,0.4c-0.1,0.1-0.2,0.2-0.3,0.3c-0.1,0.1-0.2,0.3-0.3,0.4c0,0,0,0.1-0.1,0.1c-0.2,0.3-0.3,0.5-0.5,0.8
		c-0.2,0.3-0.3,0.6-0.4,0.9c-0.1,0.2-0.2,0.5-0.2,0.7c0,0.1,0,0.2-0.1,0.3c0,0.1-0.1,0.2-0.1,0.3c0,0.3-0.1,0.5-0.1,0.8
		c-0.1,0.3-0.1,0.7-0.1,1c0,0.1,0,0.1,0.1,0.2c0.1,0,0.1,0.1,0,0.1c0,0.1-0.1,0.1-0.1,0.1c0,0-0.1,0.1-0.1,0.1c-0.1,0-0.2,0-0.2,0
		c-0.1,0-0.2,0-0.4-0.1c-0.1,0-0.2,0-0.3,0c-0.1,0-0.3,0-0.4-0.1c0,0,0-0.1,0-0.1c0-0.1,0-0.1,0-0.1c0-0.2,0-0.4,0-0.7
		c0-0.3,0-0.5,0-0.8c0-0.1,0-0.2,0-0.3c0-0.1,0-0.2,0-0.3c0-0.3,0-0.7,0-1c0-0.2,0-0.3,0-0.5c0-0.3,0-0.5,0-0.8c0-0.2,0-0.4,0-0.6
		c0-0.4,0-0.8,0-1.2c0-0.1,0-0.3,0-0.4c0-0.1,0-0.3,0-0.4c0-0.1,0-0.3,0-0.4c0-0.2,0-0.4,0-0.6c0-0.1,0-0.2,0-0.3
		c0-0.1,0-0.2-0.1-0.2c0,0,0,0,0,0c0-0.1,0-0.2,0-0.3c0,0,0-0.1,0-0.1c0-0.1,0-0.2,0-0.3c0-0.1,0-0.2,0-0.2c0-0.1,0-0.2,0-0.3
		c0-0.1,0-0.2,0-0.3c0-0.2,0-0.4,0-0.6c0-0.1,0-0.2,0-0.3c0-0.3,0-0.6,0-0.9c0-0.2,0-0.4,0-0.6c0-0.1,0-0.3,0-0.4c0-0.1,0-0.3,0-0.4
		c0-0.2,0-0.3,0-0.5c0-0.1,0-0.1,0-0.2c0-0.4,0-0.7,0.1-1.1c0-0.1,0-0.3,0.1-0.4c0,0,0,0,0-0.1c0-0.2,0-0.3,0-0.5c0-0.2,0-0.4,0-0.5
		c0-0.2,0-0.4,0-0.6c0-0.2,0-0.4,0-0.6c0-0.1,0-0.2,0-0.3c0-0.1,0-0.2,0-0.3c0-0.2,0-0.3,0-0.5c0-0.1,0-0.2,0-0.3
		C132.6,204.6,132.5,204.4,132.5,204C132.5,204.1,132.5,204.1,132.5,204 M132.3,225.8c0,0,0,0.1,0,0.1c0,0.2,0,0.4-0.1,0.5
		c0,0.2-0.1,0.5-0.2,0.7c0,0,0,0.1,0,0.1c0,0.2-0.1,0.5-0.2,0.7c-0.1,0.2-0.1,0.4-0.2,0.6c-0.1,0.2-0.1,0.4-0.3,0.6c0,0,0,0,0,0
		c-0.1,0.3-0.3,0.6-0.4,0.9c0,0,0,0.1-0.1,0.1c-0.1,0.2-0.2,0.3-0.3,0.5c-0.1,0.1-0.1,0.1,0,0.2c0.1,0.1,0.2,0.3,0.2,0.4
		c0.2,0.3,0.3,0.6,0.5,0.9c0.2,0.4,0.4,0.9,0.7,1.3c0.1,0.3,0.3,0.6,0.5,0.8c0,0,0,0.1,0.1,0c0-0.2,0-0.4,0-0.5c0-0.3,0-0.5,0-0.8
		c0-0.4,0-0.8,0-1.2c0,0,0-0.1,0-0.1c0-0.2,0-0.3,0-0.5c0-0.1,0-0.1,0-0.2c0-0.2,0.1-0.5,0-0.7c0,0,0-0.1,0-0.1c0-0.3,0-0.5,0-0.8
		c0,0,0,0,0,0c0-0.1,0-0.1,0-0.2c0-0.1,0-0.3,0.1-0.4c0-0.1,0.1-0.3,0-0.4c0-0.2,0-0.3-0.1-0.5c0-0.3,0-0.5,0-0.8c0-0.2,0-0.3,0-0.5
		c0-0.2,0-0.5,0-0.7c0,0,0-0.1,0-0.1c0-0.1,0-0.1-0.1-0.1C132.4,225.8,132.3,225.8,132.3,225.8 M134.1,226c0,0.1,0,0.2,0,0.3
		c0,0,0,0.1,0,0.1c0,0.3,0.1,0.6,0.2,0.8c0,0,0,0.1,0,0.1c0,0.1,0,0.1,0.1,0.2c0.1,0.2,0.1,0.4,0.2,0.5c0,0,0,0,0,0
		c0,0.2,0.1,0.3,0.2,0.5c0.1,0.2,0.2,0.3,0.2,0.5c0,0.1,0.1,0.1,0.1,0.2c0.1,0.2,0.2,0.4,0.4,0.6c0,0,0.1,0.1,0.1,0.1
		c0.2,0.1,0.3,0.2,0.5,0.3c0,0,0.1,0.1,0.1,0.1c0.4,0.2,0.8,0.4,1.2,0.5c0.1,0,0.2,0,0.2,0c0,0,0.1,0,0.1,0c0.2,0,0.4-0.1,0.5-0.2
		c0.3-0.1,0.5-0.3,0.6-0.7c0-0.1,0.1-0.2,0.1-0.3c0-0.1,0-0.2,0-0.2c0-0.1,0.1-0.2,0-0.3c0-0.3-0.1-0.6-0.2-0.8
		c-0.1-0.1-0.1-0.2-0.2-0.4c0,0,0,0-0.1,0c0,0.1,0,0.1,0,0.2c0,0.1,0,0.3,0,0.4c0,0.1,0,0.1,0,0.2c0,0.1,0,0.2-0.1,0.3
		c0,0.1-0.1,0.1-0.1,0.2c-0.1,0.1-0.1,0.2-0.2,0.3c-0.1,0.1-0.2,0.2-0.4,0.3c-0.1,0-0.1,0.1-0.2,0.1c-0.1,0-0.2,0-0.3,0
		c-0.2,0-0.4,0-0.5,0c-0.2,0-0.4-0.1-0.6-0.3c0,0,0,0,0,0c-0.1-0.1-0.2-0.2-0.3-0.3c-0.1-0.1-0.2-0.2-0.3-0.3
		c-0.1-0.1-0.2-0.2-0.2-0.3c0,0,0,0,0-0.1c-0.2-0.3-0.4-0.5-0.5-0.9c-0.1-0.2-0.1-0.4-0.1-0.5c0-0.1,0-0.2-0.1-0.3
		c-0.1-0.1-0.1-0.2-0.2-0.4c0-0.1-0.1-0.2-0.1-0.4c0-0.1,0-0.2,0-0.2c0-0.1-0.1-0.1-0.1-0.1c-0.1,0-0.2,0-0.4,0
		C134,225.9,134,225.9,134.1,226 M130.4,225.8c0,0.1,0,0.2,0,0.2c0,0.1,0,0.1,0,0.2c0,0.2,0,0.3-0.1,0.4c-0.1,0.1-0.1,0.1-0.1,0.2
		c-0.1,0.2-0.2,0.4-0.3,0.6c0,0,0,0.1,0,0.1c0,0.1-0.1,0.2-0.2,0.2c-0.1,0.1-0.2,0.2-0.3,0.3c-0.1,0.1-0.3,0.2-0.4,0.3
		c-0.1,0.1-0.2,0.1-0.3,0.2c-0.1,0.1-0.3,0.1-0.4,0.2c-0.1,0-0.1,0-0.2,0c-0.2,0-0.4-0.1-0.6-0.1c0,0,0,0,0,0
		c-0.1-0.1-0.2-0.1-0.3-0.2c-0.1-0.1-0.3-0.2-0.3-0.3c0-0.1-0.1-0.1-0.1-0.2c0-0.1-0.1-0.2-0.1-0.3c0,0,0-0.1-0.1-0.1c0,0,0,0,0,0
		c0,0,0,0,0,0c0,0.3-0.1,0.5-0.1,0.8c0,0.1,0,0.1,0,0.2c0,0,0.1,0.1,0.1,0.1c0,0.2,0.1,0.3,0.2,0.5c0.1,0.1,0.1,0.3,0.3,0.3
		c0.1,0.1,0.2,0.1,0.3,0.2c0.1,0,0.1,0,0.2,0c0.3,0,0.5,0,0.8-0.1c0.1,0,0.2,0,0.2,0c0.2,0,0.3-0.1,0.4-0.2c0,0,0,0,0,0
		c0.3-0.4,0.6-0.7,0.9-1.1c0.1-0.1,0.1-0.1,0.1-0.2c0-0.1,0.1-0.2,0.1-0.3c0.1-0.3,0.2-0.5,0.3-0.8c0,0,0-0.1,0-0.1
		c0.1-0.2,0.1-0.3,0.2-0.5c0-0.1,0-0.2,0.1-0.3c0-0.1,0-0.2,0.1-0.3c0,0,0-0.1,0-0.1c0,0,0-0.1-0.1-0.1
		C130.5,225.8,130.5,225.8,130.4,225.8 M134.6,208.1c0,0.1,0,0.1,0.1,0.1C134.7,208.2,134.6,208.1,134.6,208.1 M134.4,207.7
		c0,0.1,0,0.1,0,0.1C134.5,207.8,134.5,207.7,134.4,207.7"/>
</g>
</svg>
