<?xml version="1.0" encoding="UTF-8" standalone="no"?><!DOCTYPE svg PUBLIC "-//W3C//DTD SVG 1.1//EN" "http://www.w3.org/Graphics/SVG/1.1/DTD/svg11.dtd"><svg width="100%" height="100%" viewBox="0 0 1552 595" version="1.1" xmlns="http://www.w3.org/2000/svg" xmlns:xlink="http://www.w3.org/1999/xlink" xml:space="preserve" style="fill-rule:evenodd;clip-rule:evenodd;stroke-linejoin:round;stroke-miterlimit:1.41421;"><g id="Layer-4"><path d="M1485,466l0,-29l67,0l0,-29l-52,0l0,-12l10,0l0,-23l-101,0l0,-24l94,0l0,-28l-45,0l0,-33l-48,0l0,-27l-19,0l0,-30l44,0l0,-29l58,0l0,-30l-80,0l0,-30l36,0l0,-30l-48,0l0,-28l-25,0l-15,0l0,-28l-98,0l-2,0l-20,0l-69,0l-4,0l0,-31l-70,0l0,-25l-867,0l0,34l-130,0l0,30l-62,0l0,30l35,0l0,26l-22,0l0,30l-33,0l0,30l65,0l0,30l-32,0l0,30l-32,0l0,30l43,0l0,27l-63,0l0,30l54,0l0,30l-31,0l0,30l45,0l0,26l-24,0l0,33l51,0l0,28l-41,0l0,28l-28,0l0,30l44,0l0,30l33,0l0,33l1034,0l0,-41l35,0l0,41l91,0l0,-41l73,0l0,41l40,0l0,-71l136,0l0,-31l-61,0l0,-27l34,0Z" style="fill:#e53a7d;fill-rule:nonzero;"/><path d="M325.711,149.779l-20.887,0l0,-8.45l50.983,0l0,8.45l-20.792,0l0,59.623l-9.304,0l0,-59.623Z" style="fill:#fff;fill-rule:nonzero;"/><path d="M368.052,141.329l8.45,0l0,23.736c3.038,-3.703 8.259,-5.887 13.861,-5.887c11.393,0 18.323,7.215 18.323,19.273l0,30.951l-8.544,0l0.095,-28.862c0,-7.975 -4.178,-13.197 -11.773,-13.197c-4.747,0 -8.924,3.228 -10.443,6.741c-1.14,2.468 -1.425,4.842 -1.425,8.829l0,26.489l-8.544,0l0,-68.073Z" style="fill:#fff;fill-rule:nonzero;"/><path d="M431.752,180.16l26.774,0c-0.475,-7.025 -5.127,-12.817 -13.007,-12.817c-7.406,0 -12.912,4.747 -13.767,12.817m14.052,22.312c6.265,0 10.823,-2.754 11.962,-7.881l8.355,0c-1.804,9.589 -9.684,16.045 -20.507,16.045c-12.912,0 -22.691,-9.019 -22.691,-25.729c0,-15.38 9.684,-25.729 22.691,-25.729c13.671,0 21.741,9.969 21.741,24.495c0,1.329 0,2.943 -0.095,4.177l-35.697,0c0.474,9.02 6.456,14.622 14.241,14.622" style="fill:#fff;fill-rule:nonzero;"/><path d="M510.262,141.329l8.735,0l36.362,52.787l0,-52.787l8.924,0l0,68.073l-8.924,0l-36.362,-52.693l0,52.693l-8.735,0l0,-68.073Z" style="fill:#fff;fill-rule:nonzero;"/><path d="M589.153,180.16l26.774,0c-0.475,-7.025 -5.127,-12.817 -13.007,-12.817c-7.406,0 -12.912,4.747 -13.767,12.817m14.052,22.312c6.265,0 10.823,-2.754 11.962,-7.881l8.355,0c-1.804,9.589 -9.684,16.045 -20.507,16.045c-12.912,0 -22.691,-9.019 -22.691,-25.729c0,-15.38 9.684,-25.729 22.691,-25.729c13.671,0 21.741,9.969 21.741,24.495c0,1.329 0,2.943 -0.095,4.177l-35.697,0c0.474,9.02 6.455,14.622 14.241,14.622" style="fill:#fff;fill-rule:nonzero;"/><path d="M634.056,160.413l8.925,0l8.924,39.305l10.729,-39.305l8.829,0l10.254,39.305l9.209,-39.305l8.734,0l-13.196,48.989l-9.4,0l-5.981,-21.836l-4.082,-15.665l-0.19,0l-4.273,15.855l-6.17,21.646l-9.4,0l-12.912,-48.989Z" style="fill:#fff;fill-rule:nonzero;"/><path d="M793.076,175.698c0,-15.001 -8.45,-26.869 -23.356,-26.869c-15,0 -23.261,11.868 -23.355,26.869c0.094,14.621 8.355,26.488 23.355,26.488c14.906,0 23.45,-11.867 23.356,-26.488m-56.206,0c0,-19.748 12.248,-35.698 32.85,-35.698c20.602,0 32.754,15.95 32.754,35.698c0,19.368 -12.152,35.318 -32.754,35.318c-20.602,0 -32.85,-15.95 -32.85,-35.318" style="fill:#fff;fill-rule:nonzero;"/><path d="M817.47,160.413l8.165,0l0,5.981c2.849,-4.177 7.88,-6.93 13.957,-6.93l3.607,0l0,8.354l-4.462,0c-6.077,0 -12.722,4.747 -12.722,15.191l0,26.393l-8.545,0l0,-48.989Z" style="fill:#fff;fill-rule:nonzero;"/><path d="M854.778,200.193l0,-58.864l8.449,0l0,57.535c0,2.848 1.519,3.323 3.513,3.323l3.607,0l0,7.215l-5.506,0c-5.316,0 -10.063,-2.088 -10.063,-9.209" style="fill:#fff;fill-rule:nonzero;"/><path d="M889.144,180.16l26.773,0c-0.474,-7.025 -5.127,-12.817 -13.007,-12.817c-7.405,0 -12.912,4.747 -13.766,12.817m14.051,22.312c6.266,0 10.823,-2.754 11.963,-7.881l8.355,0c-1.804,9.589 -9.684,16.045 -20.508,16.045c-12.912,0 -22.691,-9.019 -22.691,-25.729c0,-15.38 9.684,-25.729 22.691,-25.729c13.671,0 21.742,9.969 21.742,24.495c0,1.329 0,2.943 -0.095,4.177l-35.697,0c0.474,9.02 6.455,14.622 14.24,14.622" style="fill:#fff;fill-rule:nonzero;"/><path d="M967.371,190.319l0,-5.792c-1.044,0.665 -2.658,1.14 -4.082,1.424l-8.45,1.805c-6.836,1.424 -9.874,3.322 -9.874,7.879c0,4.368 2.848,7.026 8.07,7.026c8.734,0 14.336,-5.696 14.336,-12.342m-31.995,6.171c0,-9.684 6.741,-13.861 15.95,-15.57l10.539,-1.994c4.652,-0.855 5.222,-2.278 5.222,-4.937c0,-3.228 -2.279,-6.646 -10.159,-6.646c-7.311,0 -10.539,2.754 -10.444,7.69l-8.83,0c0.096,-9.874 7.596,-15.855 19.084,-15.855c10.729,0 19.082,3.892 19.082,17.47l0,22.216c0,2.373 0.856,3.323 3.323,3.323l1.14,0l0,7.215l-6.931,0c-3.608,0 -5.601,-1.804 -5.601,-5.222l0,-1.044c-3.702,5.032 -9.399,7.5 -16.71,7.5c-8.26,0 -15.665,-5.221 -15.665,-14.146" style="fill:#fff;fill-rule:nonzero;"/><path d="M993.95,160.413l8.261,0l0,5.032c2.752,-3.608 8.26,-6.266 14.241,-6.266c11.393,0 18.133,7.405 18.133,20.032l0,30.191l-8.544,0l0.095,-28.767c0,-8.544 -4.273,-13.291 -10.539,-13.291c-7.785,0 -13.102,5.696 -13.102,14.336l0,27.722l-8.545,0l0,-48.989Z" style="fill:#fff;fill-rule:nonzero;"/><path d="M1048.35,194.116l8.83,0c0.475,5.981 4.083,8.735 11.014,8.735c6.93,0 10.538,-2.089 10.538,-6.456c0,-3.513 -2.278,-4.652 -8.165,-6.741l-6.362,-2.184c-7.878,-2.658 -14.429,-5.316 -14.429,-13.861c0,-9.589 8.069,-14.431 18.133,-14.431c10.159,0 18.419,4.177 18.513,15.855l-8.829,0c-0.285,-5.696 -4.273,-8.07 -9.875,-8.07c-6.551,0 -9.208,2.278 -9.208,5.886c0,3.324 2.088,4.273 7.975,6.362l9.019,3.227c6.931,2.469 11.582,5.602 11.582,13.008c0,11.202 -9.209,15.19 -18.987,15.19c-10.823,0 -19.749,-4.367 -19.749,-16.52" style="fill:#fff;fill-rule:nonzero;"/><rect x="268" y="81" width="66" height="31" style="fill:#002842;fill-rule:nonzero;"/><rect x="158" y="151" width="40" height="28" style="fill:#002842;fill-rule:nonzero;"/><rect x="428" y="453" width="47" height="28" style="fill:#002842;fill-rule:nonzero;"/><rect x="96" y="240" width="47" height="28" style="fill:#002842;fill-rule:nonzero;"/><rect x="137" y="449" width="82" height="28" style="fill:#002842;fill-rule:nonzero;"/><rect x="277" y="427" width="48" height="28" style="fill:#002842;fill-rule:nonzero;"/><rect x="201" y="514" width="64" height="28" style="fill:#002842;fill-rule:nonzero;"/><rect x="817" y="54" width="74" height="28" style="fill:#002842;fill-rule:nonzero;"/><rect x="1195" y="185" width="59" height="28" style="fill:#002842;fill-rule:nonzero;"/><rect x="1034" y="82" width="59" height="28" style="fill:#002842;fill-rule:nonzero;"/><rect x="1247" y="115" width="77" height="28" style="fill:#002842;fill-rule:nonzero;"/><rect x="541" y="83" width="39" height="28" style="fill:#002842;fill-rule:nonzero;"/><rect x="642" y="491" width="57" height="28" style="fill:#002842;fill-rule:nonzero;"/><rect x="823" y="453" width="67" height="28" style="fill:#002842;fill-rule:nonzero;"/><rect x="1064" y="469" width="39" height="28" style="fill:#002842;fill-rule:nonzero;"/><rect x="1012" y="528" width="109" height="28" style="fill:#002842;fill-rule:nonzero;"/><rect x="1229" y="469" width="55" height="28" style="fill:#002842;fill-rule:nonzero;"/><rect x="1148" y="421" width="39" height="28" style="fill:#002842;fill-rule:nonzero;"/><rect x="1325" y="410" width="37" height="28" style="fill:#002842;fill-rule:nonzero;"/><path d="M159.814,347.716l24.29,0c-0.175,16.602 9.961,23.067 25.164,23.067c13.107,0 23.417,-3.496 23.417,-15.378c0,-11.359 -7.865,-14.155 -29.534,-20.621c-22.367,-6.291 -40.367,-13.979 -40.367,-37.047c0,-25.163 21.145,-36.872 44.212,-36.872c24.291,0 47.008,11.184 47.183,40.018l-24.291,0c-0.874,-15.378 -11.359,-19.747 -23.416,-19.747c-9.612,0 -19.222,3.321 -19.222,13.98c0,9.437 5.242,12.058 30.755,20.271c21.32,6.641 38.97,13.456 38.97,36.697c0,23.068 -17.3,39.494 -48.231,39.494c-26.912,0 -49.454,-12.232 -48.93,-43.862" style="fill:#fff;fill-rule:nonzero;"/><path d="M299.611,284.981l-35.823,0l0,-21.32l96.811,0l0,21.32l-35.823,0l0,103.627l-25.165,0l0,-103.627Z" style="fill:#fff;fill-rule:nonzero;"/><path d="M464.921,326.746c0,-22.893 -12.932,-42.29 -37.222,-42.29c-24.465,0 -37.047,19.397 -37.047,42.29c0,21.843 12.582,41.24 37.047,41.24c24.29,0 37.222,-19.397 37.222,-41.24m-99.607,0c0,-36.872 23.94,-65.881 62.385,-65.881c38.445,0 62.211,29.009 62.211,65.881c0,35.824 -23.766,64.832 -62.211,64.832c-38.445,0 -62.385,-29.008 -62.385,-64.832" style="fill:#fff;fill-rule:nonzero;"/><path d="M535.338,316.261l22.193,0c13.282,0 20.446,-5.242 20.446,-16.426c0,-10.485 -7.514,-15.378 -20.271,-15.378l-22.368,0l0,31.804Zm45.61,72.348l-30.582,-51.378l-15.028,0l0,51.378l-24.989,0l0,-124.773l48.406,0c30.056,0 44.386,14.155 44.386,35.999c0.175,19.397 -12.233,31.28 -26.037,35.649l32.852,53.125l-29.008,0Z" style="fill:#fff;fill-rule:nonzero;"/><path d="M653.116,338.805l-43.862,-74.969l28.31,0l29.008,51.376l28.135,-51.376l27.96,0l-44.386,75.492l0,49.281l-25.165,0l0,-49.804Z" style="fill:#fff;fill-rule:nonzero;"/><path d="M817.9,368.512c12.757,0 22.019,-4.021 22.019,-17.475c0,-12.232 -8.563,-17.126 -22.718,-17.126l-22.194,0l0,34.601l22.893,0Zm0.699,-55.222c11.883,0 18.349,-5.068 18.349,-15.727c0,-10.135 -7.864,-13.805 -19.922,-13.805l-22.019,0l0,29.532l23.592,0Zm-48.58,-49.629l50.327,0c26.213,0 40.542,11.883 41.067,31.63c0,12.233 -5.942,20.446 -12.582,24.29l0,0.175c10.31,5.242 16.252,15.028 16.252,31.281c0,25.163 -20.272,37.572 -43.864,37.572l-51.2,0l0,-124.948Z" style="fill:#fff;fill-rule:nonzero;"/><path d="M978.84,326.746c0,-22.893 -12.932,-42.29 -37.223,-42.29c-24.465,0 -37.047,19.397 -37.047,42.29c0,21.843 12.582,41.24 37.047,41.24c24.291,0 37.223,-19.397 37.223,-41.24m-99.607,0c0,-36.872 23.94,-65.881 62.384,-65.881c38.446,0 62.211,29.009 62.211,65.881c0,35.824 -23.765,64.832 -62.211,64.832c-38.444,0 -62.384,-29.008 -62.384,-64.832" style="fill:#fff;fill-rule:nonzero;"/><path d="M1116.71,326.746c0,-22.893 -12.932,-42.29 -37.222,-42.29c-24.465,0 -37.047,19.397 -37.047,42.29c0,21.843 12.582,41.24 37.047,41.24c24.29,0 37.222,-19.397 37.222,-41.24m-99.607,0c0,-36.872 23.94,-65.881 62.385,-65.881c38.445,0 62.211,29.009 62.211,65.881c0,35.824 -23.766,64.832 -62.211,64.832c-38.445,0 -62.385,-29.008 -62.385,-64.832" style="fill:#fff;fill-rule:nonzero;"/><path d="M1182.24,284.981l-35.824,0l0,-21.32l96.811,0l0,21.32l-35.823,0l0,103.627l-25.164,0l0,-103.627Z" style="fill:#fff;fill-rule:nonzero;"/><path d="M1259.47,263.661l24.99,0l0,49.979l51.376,0l0,-49.979l25.164,0l0,124.947l-25.164,0l0,-50.678l-51.376,0l0,50.678l-24.99,0l0,-124.947Z" style="fill:#fff;fill-rule:nonzero;"/></g></svg>